<svg width="245" height="171" viewBox="0 0 245 171" fill="none" xmlns="http://www.w3.org/2000/svg">
<path opacity="0.5" d="M231.568 0.119082C237.261 -0.714826 242.373 2.91869 243.04 8.27104C245.65 29.239 248.242 81.2509 217.628 119.717C186.715 158.559 133.113 168.471 111.8 170.926C106.477 171.54 101.762 168.258 100.863 163.314C97.2604 143.516 92.0268 92.6541 122.94 53.8121C153.644 15.2331 208.988 3.42686 231.568 0.119082Z" fill="url(#paint0_linear_917_25763)"/>
<path fill-rule="evenodd" clip-rule="evenodd" d="M42.8033 87.5409L42.8879 87.4847C42.9217 87.4623 42.9521 87.4423 42.979 87.4249L42.9567 98.7126C38.8142 99.7583 34.4728 99.7198 30.3494 98.6009C26.9569 97.4312 23.9097 95.6655 21.1338 94.0571C17.7565 92.1003 14.781 90.3762 12.0743 90.2412C12.2305 90.2189 12.3421 89.8166 12.3421 89.8166C15.2491 89.8872 18.8077 91.5671 22.3856 93.2561L22.3857 93.2562C24.4652 94.2378 26.5512 95.2226 28.5196 95.8963C32.2383 97.0781 36.2154 97.1789 39.989 96.1869C39.989 96.1869 40.0113 92.3647 39.989 91.3812C39.9731 90.6825 39.0451 90.8412 38.1649 90.9917C37.8061 91.053 37.4553 91.113 37.1774 91.113C34.946 91.2918 28.0957 91.2471 28.2519 85.3015C28.3485 81.6972 30.3137 78.6558 32.5742 75.1572C34.4913 72.1903 36.6207 68.8947 38.003 64.6484C39.2004 60.758 39.498 56.6457 38.8733 52.6231C38.8733 52.4338 39.0909 52.2399 39.3744 51.9872C39.9617 51.4638 40.8317 50.6883 40.6361 49.1809C40.5527 48.8469 40.4888 48.7663 40.0627 48.2291L39.9667 48.108C39.279 47.3064 38.8441 46.3185 38.7171 45.2693C38.7708 45.0272 38.9897 44.2455 39.2772 43.2187L39.2775 43.2178L39.2775 43.2177L39.2776 43.2176C39.7068 41.6849 40.2889 39.6062 40.703 37.9602C40.7329 37.8224 40.7692 37.6815 40.8064 37.5373C40.9078 37.1434 41.0154 36.7256 41.0154 36.2838C41.3724 34.2051 41.3055 33.1099 41.0154 32.8193C39.9222 32.4291 38.7551 32.2916 37.6014 32.417C36.2549 32.4031 34.8912 32.4843 33.8271 32.5477H33.8271L33.827 32.5477C33.1806 32.5862 32.6449 32.6181 32.2907 32.6181C31.005 32.7112 29.7331 32.9435 28.4973 33.311C27.6454 33.5768 26.917 34.1399 26.4445 34.898C26.4445 34.898 25.9089 34.3839 25.4626 33.7581C25.0164 33.1322 23.0974 30.897 21.8924 30.897C21.7018 30.9353 21.5247 31.0239 21.3796 31.1535C21.2345 31.2832 21.1265 31.4493 21.0668 31.6346C20.7431 32.3326 20.6047 33.1026 20.6652 33.8698C21.0552 37.6532 22.2254 41.3143 24.1015 44.6211C24.9444 46.257 25.9222 47.8196 27.0246 49.2926C27.9044 50.5798 28.5608 51.3889 29.0579 52.0017C29.683 52.7721 30.0562 53.2321 30.3048 53.9418C30.7235 54.6772 30.9437 55.5092 30.9437 56.3558C30.9437 57.2024 30.7235 58.0344 30.3048 58.7698C30.0732 59.0018 29.7947 59.1068 29.4647 59.2312C28.7772 59.4905 27.866 59.8341 26.6899 61.5862C25.1161 64.5551 24.4268 67.9144 24.704 71.2645C24.782 73.3587 25.066 75.44 25.5519 77.4783L24.6593 77.6795C24.0527 73.2963 23.8956 68.8624 24.1908 64.4472C24.8355 53.5889 23.0279 42.7247 18.9024 32.6628C15.3321 23.0515 9.30738 20.5034 9.30738 20.5034C9.96644 25.3612 9.96644 30.2861 9.30738 35.1439C7.6837 43.4812 7.21069 52.0023 7.90161 60.4686C10.8917 82.6416 26.556 92.32 34.7229 94.8904V95.3598C25.3288 93.2364 7.07599 84.698 5.04543 63.0614C4.3876 55.9447 5.90181 47.7169 7.25543 40.3617C8.19758 35.2423 9.06193 30.5457 9.06193 26.9407C9.12179 23.8444 8.44084 20.7788 7.07599 18C12.2651 19.0405 17.205 21.0744 21.6247 23.9903C24.6344 26.3201 27.3208 29.0411 29.613 32.0817C31.887 31.0926 34.2576 30.3435 36.6865 29.8465C38.9552 29.3743 41.3037 29.4509 43.5369 30.07C41.3821 35.4962 40.5188 41.3507 41.0154 47.1692C41.8149 56.6672 40.1628 66.2115 36.2179 74.8855C36.0352 75.2396 35.8517 75.591 35.6695 75.9397C33.8049 79.5091 32.09 82.792 33.0047 85.7038C35.1579 92.6228 41.3236 88.5245 42.8033 87.5409ZM35.7465 42.6325C35.8695 42.3015 36.0396 41.8689 36.2294 41.3974C36.3451 41.2651 36.465 41.1266 36.5972 40.9114C36.9999 40.0237 37.3283 39.1042 37.579 38.1621L37.5835 38.1471C37.8783 37.5426 38.1539 36.9289 38.4099 36.3071C38.6645 35.7936 38.8733 35.3464 38.8733 35.1222C38.8733 35.0694 38.8653 35.0226 38.8501 34.9807C38.7462 34.6425 38.2574 34.5231 37.6919 34.3849C37.6317 34.3702 37.5707 34.3553 37.5093 34.3399C36.4205 34.1156 35.3181 33.9638 34.2094 33.8855C34.1352 33.88 34.0609 33.875 33.9865 33.8705C33.9217 33.8623 33.8565 33.8583 33.7915 33.8584C33.6539 33.8584 33.5167 33.8768 33.3835 33.9134C33.1883 33.9671 33.0055 34.0589 32.8457 34.1835C32.6448 34.4293 32.8457 35.0999 33.0242 35.3234C33.6442 36.2453 34.0834 37.2769 34.3184 38.3633C34.4446 39.6639 34.2502 39.9134 33.8176 40.4686L33.8176 40.4686L33.8175 40.4687C33.7149 40.6005 33.5988 40.7494 33.4704 40.9337C33.238 41.2383 33.4641 41.7582 33.7239 42.3554L33.724 42.3555L33.724 42.3555L33.7241 42.3558C33.7884 42.5036 33.8548 42.6561 33.9167 42.8113C34.2291 43.5936 35.3225 43.7724 35.7465 42.6325ZM25.5072 38.6538C25.4764 38.9809 25.4764 39.3102 25.5072 39.6373C25.3675 39.2113 25.1724 38.8055 24.9271 38.4303C24.4245 37.5489 24.0275 36.611 23.7444 35.6363C23.5659 34.8987 23.4097 34.2058 23.4097 34.2058C23.6798 34.5817 24.0209 34.9006 24.4139 35.1446C24.9857 35.6805 25.4546 36.3168 25.7973 37.0221C25.7973 37.0221 25.6188 37.7598 25.5072 38.7432V38.6538ZM72.4361 44.3747C72.9717 44.3747 73.5295 44.3747 74.1543 44.2629V70.7946C73.8299 70.7946 73.5236 70.7584 73.229 70.7237L73.2289 70.7236C72.9562 70.6915 72.6936 70.6605 72.4361 70.6605C71.9006 70.6605 71.2758 70.6605 70.7403 70.7946V57.3835C69.354 57.3835 67.9958 57.3386 66.6403 57.2938C65.2902 57.2492 63.9429 57.2046 62.5734 57.2046C59.8288 57.2046 57.2181 57.2046 54.4288 57.3835V70.7946C54.1011 70.7946 53.7917 70.7577 53.4976 70.7226L53.4976 70.7226C53.231 70.6908 52.9769 70.6605 52.733 70.6605C52.2197 70.6605 51.5726 70.6605 51.0371 70.7946V44.2629C51.297 44.2629 51.5621 44.2892 51.8351 44.3163C52.1246 44.3451 52.4229 44.3747 52.733 44.3747C53.3354 44.3747 53.804 44.3747 54.4288 44.2629V55.4388C55.8432 55.4388 57.2403 55.4848 58.6173 55.5302H58.6174H58.6175H58.6176H58.6177H58.6178H58.6179H58.618H58.6181H58.6182H58.6183H58.6184L58.6187 55.5302C59.9568 55.5742 61.276 55.6177 62.5734 55.6177C65.2064 55.6177 67.9734 55.6177 70.7403 55.4388V44.2629C71.0053 44.2629 71.2867 44.2903 71.571 44.3179C71.8612 44.3461 72.1544 44.3747 72.4361 44.3747ZM84.9717 64.5137C84.9717 64.5137 94.946 55.0365 97.8691 45.2687C98.0532 45.4065 98.2674 45.4984 98.4939 45.537C95.4389 56.771 85.0885 67.8236 82.7698 70.2997L82.7697 70.2997C82.5142 70.5726 82.3562 70.7413 82.3163 70.7946H81.156V44.2629C81.709 44.3535 82.2694 44.3909 82.8295 44.3747C83.0203 44.3747 83.3067 44.3495 83.6074 44.323C83.9399 44.2937 84.29 44.2629 84.5477 44.2629V64.5137H84.9717ZM103.692 44.2629L87.7598 67.5759L88.1169 67.9112L101.505 49.605H101.885V70.7946C102.106 70.7946 102.466 70.7581 102.811 70.7232L102.812 70.7232C103.128 70.6912 103.432 70.6605 103.603 70.6605C103.96 70.6605 104.964 70.6605 105.299 70.7946V44.2629H103.692ZM145.412 75.059L145.423 75.0205H145.356C145.368 75.029 145.38 75.0373 145.391 75.0454L145.412 75.059ZM132.481 94.2432C132.481 94.2432 142.452 84.8131 145.412 75.059C145.583 75.1714 145.778 75.2425 145.981 75.2664C142.903 86.7383 132.16 98.04 130.126 100.179C129.949 100.366 129.838 100.483 129.804 100.524H128.643V73.9924C129.204 74.0836 129.772 74.121 130.339 74.1041C130.502 74.1041 130.761 74.081 131.044 74.0558C131.383 74.0256 131.755 73.9924 132.035 73.9924V94.2432H132.481ZM151.312 73.9924L135.38 97.3054L135.715 97.6406L149.237 79.3568H149.616V100.524C149.809 100.524 150.151 100.495 150.488 100.467L150.488 100.467C150.815 100.439 151.137 100.412 151.312 100.412C151.669 100.412 152.651 100.412 153.03 100.524V73.9924H151.312ZM122.564 60.1491C121.313 58.7731 120.061 57.3974 118.847 55.9976L121.993 52.7343L130.763 44.2629C130.227 44.3747 129.826 44.3747 129.268 44.3747C128.98 44.3747 128.704 44.3449 128.437 44.3161C128.186 44.2891 127.943 44.2629 127.706 44.2629L118.178 54.1201C118.054 54.2392 117.902 54.3881 117.738 54.5501C117.161 55.1176 116.42 55.8461 116.125 56.02C115.746 56.2435 115.143 56.467 115.143 56.2435V44.2629C114.518 44.3747 113.983 44.3747 113.425 44.3747C113.14 44.3747 112.844 44.3455 112.554 44.317C112.275 44.2897 112.003 44.2629 111.751 44.2629V70.8393C112.265 70.7052 112.867 70.7052 113.425 70.7052C113.696 70.7052 113.962 70.7368 114.235 70.7694C114.524 70.8038 114.822 70.8393 115.143 70.8393V57.3164C115.143 57.0482 115.634 57.1823 115.768 57.3164L124.269 67.2183C125.229 68.3359 126.077 69.5205 126.947 70.7499C127.728 70.6158 128.397 70.6158 129.178 70.6158C129.572 70.6158 129.942 70.6498 130.31 70.6835C130.673 70.7168 131.033 70.7499 131.41 70.7499V70.5711L128.264 66.6595C126.457 64.4285 124.511 62.2887 122.564 60.1492L122.564 60.1491ZM143.927 48.7779L148.233 58.6797H139.687L143.927 48.7779ZM156.936 70.7945L145.422 43.6593H144.529L132.346 70.7945C132.789 70.7232 133.236 70.6784 133.685 70.6603C134.153 70.6603 134.599 70.6603 135.135 70.7945C135.988 67.8144 137.091 65.0116 138.181 62.242L138.181 62.2418C138.432 61.6046 138.682 60.9692 138.928 60.3338H148.813C150.331 63.843 151.736 67.5758 152.874 70.7945C153.183 70.7945 153.486 70.764 153.804 70.7321C154.153 70.6971 154.519 70.6603 154.927 70.6603C155.413 70.6603 155.779 70.695 156.168 70.7319C156.404 70.7543 156.649 70.7776 156.936 70.7945ZM99.0663 100.219C99.3609 100.248 99.6673 100.278 99.9917 100.278V73.7466H76.8522V100.278C77.3877 100.167 78.0348 100.167 78.5703 100.167C78.8278 100.167 79.0852 100.192 79.3525 100.219H79.3525H79.3526C79.6414 100.248 79.9418 100.278 80.2662 100.278V75.6912C83.0331 75.5795 85.7554 75.5795 88.4554 75.5795C89.7969 75.5795 91.1274 75.6071 92.466 75.6348H92.4662H92.4664H92.4665H92.4667C93.822 75.663 95.1857 75.6912 96.5777 75.6912V100.278C97.1355 100.167 97.738 100.167 98.2735 100.167C98.5309 100.167 98.7935 100.192 99.0662 100.219H99.0663ZM110.394 86.5978V75.2431C112.245 75.133 114.1 75.133 115.95 75.2431C116.584 75.2385 117.212 75.3693 117.791 75.6267C118.371 75.8841 118.889 76.2623 119.311 76.736C119.734 77.2097 120.05 77.7681 120.24 78.374C120.43 78.9799 120.489 79.6194 120.413 80.2499C120.437 81.0806 120.293 81.9077 119.991 82.6814C119.688 83.4551 119.232 84.1596 118.65 84.7524C118.069 85.3453 117.374 85.8144 116.607 86.1315C115.84 86.4486 115.017 86.6072 114.187 86.5978C112.911 86.71 111.626 86.71 110.349 86.5978H110.394ZM110.349 100.277V100.276L110.394 100.277H110.349ZM110.349 100.276V88.0954C112.086 88.2697 113.835 88.2697 115.571 88.0954C121.038 87.0225 123.894 84.8767 123.894 80.1828C123.894 75.4889 121.395 73.8349 113.875 73.8349H106.98V100.277C107.24 100.277 107.516 100.251 107.799 100.224C108.1 100.195 108.41 100.165 108.721 100.165C109.045 100.165 109.312 100.191 109.593 100.219H109.593H109.593H109.593C109.822 100.241 110.061 100.264 110.349 100.276ZM183.224 73.8807H181.528V73.7466H179.81V84.9226C178.9 84.945 177.984 84.9749 177.069 85.0049L177.068 85.0049L177.067 85.0049C175.248 85.0644 173.432 85.1237 171.666 85.1237C170.352 85.1237 169.022 85.0745 167.678 85.0247H167.677H167.677C166.305 84.9739 164.919 84.9226 163.521 84.9226V73.7466H161.803H160.107V100.278C160.665 100.167 161.29 100.167 161.803 100.167C162.047 100.167 162.306 100.192 162.578 100.218C162.878 100.248 163.193 100.278 163.521 100.278V86.8672C164.037 86.8505 164.549 86.833 165.059 86.8157H165.059H165.059C167.281 86.74 169.451 86.666 171.666 86.666C173.027 86.666 174.382 86.7163 175.738 86.7666C177.094 86.8169 178.449 86.8672 179.81 86.8672V100.278C180.368 100.167 181.015 100.167 181.528 100.167C181.772 100.167 182.027 100.192 182.293 100.218C182.587 100.248 182.897 100.278 183.224 100.278V73.8807ZM204 73.7466V74.9089V76.0712C202.852 75.8373 201.688 75.6879 200.519 75.6242H196.614H193.646V100.211C193.081 100.18 192.515 100.18 191.95 100.211C191.385 100.177 190.819 100.177 190.254 100.211V73.7466H204ZM59.3588 81.9494C51.2589 85.5704 52.9993 99.5403 61.9249 99.3391V99.205H63.5538C66.4098 98.9028 69.1236 97.8031 71.386 96.0311L71.2075 98.4674C68.6263 100.025 65.6506 100.801 62.6389 100.703C54.115 100.703 49.0052 95.6064 49.0052 86.8892C49.0052 78.1719 55.4539 73.2098 63.5984 73.2098C66.4656 73.2297 69.2983 73.8383 71.9215 74.998C71.5655 75.9628 71.2966 76.9577 71.1182 77.9708H70.8505C69.9026 76.9452 68.758 76.1217 67.4851 75.5495C66.2122 74.9772 64.8372 74.668 63.4422 74.6403C56.3241 74.6403 52.4415 81.0106 52.1737 87.6044C51.8066 90.6117 52.5528 93.6496 54.2712 96.1428C52.1291 91.1137 54.0704 83.3129 59.1133 80.8094C59.1077 81.2032 59.1916 81.593 59.3588 81.9494Z" fill="#1D6157"/>
<defs>
<linearGradient id="paint0_linear_917_25763" x1="111.751" y1="140.563" x2="241.128" y2="62.7101" gradientUnits="userSpaceOnUse">
<stop stop-color="#DBEBE5"/>
<stop offset="1" stop-color="#E8F0DB"/>
</linearGradient>
</defs>
</svg>
