<svg width="52" height="69" viewBox="0 0 52 69" fill="none" xmlns="http://www.w3.org/2000/svg">
<path d="M27 21H25V24H27V21Z" fill="#1D6157"/>
<path d="M32 21H29V24H32V21Z" fill="#1D6157"/>
<path d="M23 21H20V24H23V21Z" fill="#1D6157"/>
<path d="M10.6535 7.40047H4.98202C4.51096 7.39752 4.04402 7.4881 3.60824 7.66692C3.17246 7.84573 2.77654 8.10923 2.44344 8.44217C2.11034 8.7751 1.84667 9.17085 1.66776 9.60642C1.48886 10.042 1.39827 10.5087 1.40122 10.9795V64.0205C1.39909 64.491 1.49036 64.9573 1.6698 65.3923C1.84924 65.8273 2.1132 66.2224 2.44649 66.5547C3.12441 67.2153 4.03526 67.5826 4.98202 67.5773H47.0402C47.9834 67.5757 48.8873 67.1999 49.5535 66.5325C49.8938 66.2043 50.1639 65.8105 50.3475 65.3749C50.531 64.9392 50.624 64.4709 50.621 63.9982V10.9795C50.624 10.5069 50.531 10.0385 50.3475 9.60289C50.1639 9.16726 49.8938 8.77343 49.5535 8.44529C48.8873 7.77788 47.9834 7.40209 47.0402 7.40047H41.3686V12.6023C41.3628 13.3611 41.0587 14.0871 40.5219 14.6236C39.9851 15.1602 39.2587 15.4642 38.4996 15.47H13.5226C12.7635 15.4642 12.0371 15.1602 11.5003 14.6236C10.9635 14.0871 10.6593 13.3611 10.6535 12.6023V7.40047ZM4.98202 6H12.0325V12.669C12.0295 12.8625 12.0654 13.0546 12.1381 13.234C12.2108 13.4134 12.3188 13.5763 12.4557 13.7132C12.5926 13.85 12.7557 13.9579 12.9351 14.0306C13.1146 14.1033 13.3068 14.1392 13.5004 14.1362H38.4996C38.8899 14.1377 39.2653 13.986 39.5449 13.7138C39.8254 13.4379 39.9853 13.0623 39.9897 12.669V6H47.0402C48.3558 6.01168 49.6139 6.54073 50.5422 7.47269C51.4704 8.40464 51.9942 9.66448 52 10.9795V64.0205C51.9965 65.3352 51.4774 66.5962 50.5543 67.5328C50.0941 67.9967 49.5468 68.3652 48.9437 68.617C48.3407 68.8688 47.6938 68.9989 47.0402 69H4.98202C3.66346 68.9906 2.40143 68.4636 1.46794 67.5328C1.0018 67.0744 0.63183 66.5276 0.379771 65.9245C0.127712 65.3214 -0.00137543 64.6741 1.10513e-05 64.0205V10.9795C0.00586265 9.66066 0.532585 8.3975 1.46563 7.46492C2.39868 6.53234 3.66251 6.00585 4.98202 6Z" fill="#1D6157"/>
<path d="M11.1161 11.4119H9.92889C9.59115 11.4076 9.25615 11.475 8.94436 11.6099C8.63258 11.7448 8.35057 11.9443 8.11563 12.1962C7.62756 12.6927 7.34821 13.3693 7.33848 14.0787V58.899C7.34047 59.254 7.41017 59.6051 7.54355 59.9321C7.67693 60.259 7.87138 60.5553 8.11563 60.8038C8.35057 61.0557 8.63258 61.2553 8.94436 61.3901C9.25615 61.525 9.59115 61.5924 9.92889 61.5882H41.9633C42.6503 61.5882 43.3092 61.3049 43.795 60.8005C44.2808 60.2962 44.5537 59.6122 44.5537 58.899V14.0787C44.548 13.3693 44.2726 12.6911 43.7874 12.1916C43.3022 11.6921 42.6466 11.4118 41.9633 11.4119H40.8624C40.8567 12.1768 40.5616 12.9087 40.0406 13.4495C39.5196 13.9904 38.8146 14.2969 38.0778 14.3027H13.9008C13.164 14.2969 12.459 13.9904 11.938 13.4495C11.417 12.9087 11.1218 12.1768 11.1161 11.4119ZM10.0153 10H12.4761V11.4119C12.4732 11.6069 12.508 11.8006 12.5786 11.9814C12.6492 12.1622 12.754 12.3265 12.8869 12.4644C13.0198 12.6024 13.178 12.7112 13.3522 12.7845C13.5264 12.8577 13.7129 12.8939 13.9008 12.8909H38.1641C38.5429 12.8924 38.9072 12.7395 39.1786 12.4651C39.4509 12.187 39.6061 11.8084 39.6104 11.4119V10H42.0497C43.0919 10.0058 44.0902 10.4367 44.8292 11.1997C45.5682 11.9627 45.9887 12.9967 46 14.0787V58.899C45.9943 59.9848 45.5764 61.0245 44.8367 61.7923C44.0971 62.5602 43.0956 62.9941 42.0497 63H9.92889C8.88295 62.9952 7.88151 62.5601 7.14421 61.7899C6.77786 61.4112 6.48802 60.9605 6.29156 60.4641C6.09511 59.9677 5.996 59.4356 6.00012 58.899V14.0787C5.99886 13.5458 6.09934 13.0179 6.29571 12.5256C6.49208 12.0332 6.78045 11.5861 7.14421 11.2101C7.88151 10.4399 8.88295 10.0048 9.92889 10H10.0153Z" fill="#1D6157"/>
<path d="M40.5644 12.2937V7.38459H11.4588V12.2937C11.4556 12.4763 11.493 12.6576 11.5687 12.8269C11.6444 12.9962 11.7569 13.15 11.8994 13.2791C12.042 13.4082 12.2117 13.5101 12.3985 13.5787C12.5853 13.6473 12.7854 13.6811 12.987 13.6783H39.013C39.4194 13.6797 39.8102 13.5366 40.1013 13.2797C40.3933 13.0194 40.5598 12.6649 40.5644 12.2937ZM42 6.71328V12.2937C41.9939 13.0098 41.6773 13.6949 41.1185 14.2013C40.5596 14.7076 39.8033 14.9945 39.013 15H12.987C12.1967 14.9945 11.4404 14.7076 10.8816 14.2013C10.3227 13.6949 10.0061 13.0098 10 12.2937V6H42V6.71328Z" fill="#1D6157"/>
<path d="M27.2126 2.10237C27.0484 1.91078 26.853 1.75928 26.6378 1.65671C26.4226 1.55415 26.1919 1.50259 25.9593 1.5051C25.5262 1.55965 25.1257 1.79837 24.8347 2.17539C24.5437 2.55241 24.3827 3.04118 24.3827 3.54779C24.3827 4.0544 24.5437 4.54314 24.8347 4.92016C25.1257 5.29718 25.5262 5.5359 25.9593 5.59045C26.1919 5.59296 26.4226 5.5414 26.6378 5.43883C26.853 5.33627 27.0484 5.18476 27.2126 4.99318C27.54 4.60848 27.7237 4.08908 27.7237 3.54779C27.7237 3.00651 27.54 2.48706 27.2126 2.10237ZM25.9593 0C26.7676 0.00630856 27.541 0.384123 28.1107 1.05102C28.6803 1.71792 29 2.61974 29 3.55971C28.9793 4.45819 28.6631 5.31323 28.1166 5.9488C27.8345 6.28094 27.4986 6.54482 27.1283 6.72524C26.7581 6.90566 26.3608 6.99905 25.9593 7C25.1823 6.97703 24.4443 6.59942 23.9048 5.9488C23.6184 5.62387 23.3908 5.23558 23.2354 4.80682C23.08 4.37806 23 3.91749 23 3.45221C23 2.98693 23.08 2.52636 23.2354 2.09759C23.3908 1.66883 23.6184 1.28055 23.9048 0.955619C24.4703 0.374779 25.2052 0.067111 25.9593 0.0955473V0Z" fill="#1D6157"/>
<path d="M33.45 32.5833H18.3285V48.4865H33.4722L33.45 32.5833ZM18.0628 31.0699H33.8264C33.9797 31.0715 34.1311 31.1053 34.2718 31.1693C34.4124 31.2332 34.5395 31.3261 34.6456 31.4424C34.7594 31.5514 34.8498 31.6845 34.9109 31.8331C34.972 31.9816 35.0023 32.1421 34.9999 32.3039V48.7659C34.9996 48.9273 34.968 49.0869 34.9071 49.2351C34.8462 49.3832 34.7572 49.5167 34.6456 49.6274C34.5395 49.7438 34.4124 49.8366 34.2718 49.9006C34.1311 49.9646 33.9797 49.9984 33.8264 50H18.1735C18.0167 50.0002 17.8615 49.9673 17.717 49.9033C17.5725 49.8393 17.4416 49.7455 17.3321 49.6274C17.1208 49.3954 17.002 49.0872 17 48.7659V32.3039C16.9987 32.1444 17.0274 31.9862 17.0844 31.8383C17.1414 31.6905 17.2255 31.5559 17.3321 31.4424C17.5152 31.2048 17.7755 31.0472 18.0628 31V31.0699Z" fill="#1D6157"/>
<path d="M22.0122 39.4286L25.7849 42.9339L36.9648 32L38 33.0679L25.7849 45L21 40.5196L22.0122 39.4286Z" fill="#1D6157"/>
</svg>
