<svg width="90" height="110" viewBox="0 0 90 110" fill="none" xmlns="http://www.w3.org/2000/svg">
<g filter="url(#filter0_d_1010_47371)">
<path d="M45 93C45 93 74 65.6361 74 44.875C74 37.2169 70.9447 29.8724 65.5061 24.4573C60.0675 19.0422 52.6913 16 45 16C37.3087 16 29.9325 19.0422 24.4939 24.4573C19.0553 29.8724 16 37.2169 16 44.875C16 65.6361 45 93 45 93Z" fill="white"/>
<path d="M45 93C45.3431 93.3637 45.3433 93.3635 45.3436 93.3632L45.3447 93.3622L45.349 93.3582L45.3653 93.3427L45.4285 93.2824C45.4842 93.2293 45.5664 93.1505 45.6733 93.047C45.8873 92.84 46.2005 92.5343 46.5987 92.1381C47.3951 91.346 48.5318 90.192 49.8954 88.7426C52.6221 85.8445 56.2587 81.7623 59.8965 77.0275C63.5332 72.2943 67.1786 66.8991 69.9167 61.3752C72.6521 55.8568 74.5 50.174 74.5 44.875C74.5 37.0836 71.3914 29.6117 65.8589 24.103C60.3264 18.5943 52.8232 15.5 45 15.5C37.1768 15.5 29.6736 18.5943 24.1411 24.103C18.6086 29.6117 15.5 37.0836 15.5 44.875C15.5 50.174 17.3479 55.8568 20.0833 61.3752C22.8214 66.8991 26.4668 72.2943 30.1035 77.0275C33.7413 81.7623 37.3779 85.8445 40.1046 88.7426C41.4682 90.192 42.6049 91.346 43.4013 92.1381C43.7995 92.5343 44.1127 92.84 44.3267 93.047C44.4336 93.1505 44.5158 93.2293 44.5715 93.2824L44.6347 93.3427L44.651 93.3582L44.6553 93.3622L44.6564 93.3632C44.6567 93.3635 44.6569 93.3637 45 93ZM45 93L45.3431 93.3637L45 93.6874L44.6569 93.3637L45 93Z" stroke="#1D6157"/>
</g>
<path fill-rule="evenodd" clip-rule="evenodd" d="M49.5082 65.5514C48.8945 63.6351 50.0873 61.4059 51.3296 59.0841C51.4109 58.9321 51.4925 58.7797 51.5737 58.627C54.1201 53.0718 55.1846 46.9566 54.6646 40.8721C54.3513 37.1325 54.9055 33.3713 56.2843 29.8788C54.8339 29.4606 53.3015 29.4097 51.8263 29.7309C50.2587 30.0669 48.73 30.5627 47.2644 31.2104C45.7867 29.258 44.0581 27.507 42.1229 26.0023C39.2914 24.1381 36.1294 22.8275 32.8058 22.1406C33.6801 23.9219 34.1181 25.8842 34.0837 27.8666C34.0837 30.1779 33.5267 33.1881 32.9195 36.4689C32.0459 41.1899 31.0685 46.4713 31.4981 51.0368C32.8058 64.9152 44.6193 70.3896 50.6673 71.7509L50.7416 71.4401C45.3475 69.8274 35.2428 63.5984 33.311 49.424C32.8492 43.9852 33.1392 38.509 34.1729 33.1487C34.6381 30.0316 34.678 26.8663 34.2917 23.7386C34.2917 23.7386 38.1702 25.3809 40.4734 31.5507C43.1138 38.0049 44.2567 44.9693 43.8169 51.9245C43.6327 54.7533 43.7323 57.5934 44.1141 60.4025L44.6936 60.2841C44.3774 58.979 44.1932 57.6457 44.1438 56.3041C43.9624 54.1582 44.4061 52.0058 45.4218 50.1046C46.1818 48.9794 46.7669 48.7589 47.2132 48.5907C47.43 48.509 47.6141 48.4396 47.7696 48.2848C48.0297 47.8106 48.1661 47.2789 48.1661 46.7386C48.1661 46.1983 48.0297 45.6666 47.7696 45.1924C47.1418 44.1475 46.426 43.1575 45.6298 42.2333C44.9342 41.2936 44.3085 40.3045 43.7575 39.2741C42.5254 37.1587 41.751 34.8102 41.4839 32.3793C41.4311 31.8724 41.5185 31.3608 41.7365 30.8997C41.7759 30.7809 41.8461 30.6745 41.94 30.5913C42.034 30.5082 42.1483 30.4513 42.2715 30.4263C43.059 30.4263 44.2924 31.9058 44.5747 32.2609C44.8571 32.616 45.2137 32.9859 45.2137 32.9859C45.5197 32.5009 45.9882 32.1392 46.5362 31.965C47.3316 31.7362 48.148 31.5875 48.9733 31.5211C49.204 31.5211 49.552 31.4999 49.9712 31.4744C50.6588 31.4324 51.5381 31.3788 52.4059 31.388C53.1498 31.3048 53.9029 31.396 54.6051 31.6543C54.7983 31.8467 54.8429 32.5421 54.6051 33.8737C54.6051 34.1841 54.5277 34.4849 54.4588 34.7528L54.4587 34.7529C54.4423 34.8169 54.4263 34.8791 54.412 34.939C54.1834 35.8494 53.8727 36.9465 53.6143 37.8594L53.6143 37.8594L53.6142 37.8595C53.3687 38.7268 53.1702 39.4278 53.134 39.644C53.211 40.3174 53.4907 40.9518 53.9364 41.4639L53.99 41.5293L53.99 41.5293C54.2685 41.8691 54.3113 41.9214 54.3674 42.1445C54.4874 43.1407 53.9338 43.6205 53.5593 43.945C53.3776 44.1025 53.238 44.2234 53.238 44.3491C53.6377 46.929 53.4394 49.5658 52.6585 52.0577C51.7765 54.7598 50.4144 56.8667 49.1831 58.7712C47.7175 61.038 46.4374 63.018 46.3728 65.3739C46.2836 69.1912 50.6673 69.2208 52.1533 69.1172C52.3353 69.1172 52.5655 69.0782 52.8005 69.0383L52.8005 69.0383C53.3711 68.9415 53.9705 68.8398 53.981 69.28C53.9959 69.9014 53.981 72.3575 53.981 72.3575C51.5373 72.9984 48.9612 72.9369 46.5511 72.1799C45.2884 71.7464 43.954 71.1164 42.6237 70.4883L42.6236 70.4883C40.3219 69.4016 38.0326 68.3207 36.1492 68.2738C36.1492 68.2738 36.0749 68.5254 35.9709 68.555C37.7116 68.636 39.6215 69.7366 41.7933 70.9882C43.5889 72.023 45.5636 73.161 47.7696 73.911C50.4229 74.6286 53.217 74.654 55.8831 73.985V66.6611C55.2441 67.1198 50.9496 70.1973 49.5082 65.5514ZM53.2757 33.1218C53.2757 32.8386 52.9303 32.7521 52.5204 32.6494C52.4805 32.6394 52.4399 32.6292 52.399 32.6187C51.6532 32.4725 50.8988 32.3737 50.1403 32.3228C49.9923 32.3051 49.8426 32.3051 49.6945 32.3228C49.5804 32.3435 49.476 32.4006 49.3973 32.4856C49.2636 32.6483 49.3973 33.0774 49.5013 33.2105C49.9072 33.8012 50.1948 34.4644 50.3484 35.1636C50.4146 35.4299 50.4053 35.7092 50.3213 35.9705C50.2373 36.2318 50.0821 36.4647 49.8728 36.6432C49.848 36.686 49.818 36.7257 49.7837 36.7615V36.8947C49.8149 37.271 49.9317 37.6353 50.1255 37.96C50.3038 38.4482 51.0319 38.5962 51.2994 37.8564C51.3458 37.7563 51.4003 37.6241 51.4628 37.4723L51.4628 37.4722L51.4629 37.472C51.5205 37.3323 51.5848 37.1761 51.656 37.0131C51.7261 36.9285 51.7906 36.8396 51.8492 36.7467C52.0985 36.1802 52.307 35.5968 52.4733 35.0008C52.7847 34.3647 53.0625 33.7128 53.3055 33.0478L53.2757 33.1218ZM43.9194 33.1065C44.289 33.4563 44.5956 33.8667 44.8258 34.3198C44.8258 34.3198 44.7069 34.808 44.6326 35.4147C44.6216 35.6266 44.6216 35.8389 44.6326 36.0509C44.5597 35.7548 44.4338 35.4741 44.2611 35.2223C43.9305 34.6561 43.6757 34.0493 43.5033 33.4172C43.3844 32.9586 43.2804 32.5147 43.2804 32.5147C43.4561 32.7484 43.6725 32.9489 43.9194 33.1065Z" fill="#1D6157"/>
<defs>
<filter id="filter0_d_1010_47371" x="0" y="0" width="90" height="109.375" filterUnits="userSpaceOnUse" color-interpolation-filters="sRGB">
<feFlood flood-opacity="0" result="BackgroundImageFix"/>
<feColorMatrix in="SourceAlpha" type="matrix" values="0 0 0 0 0 0 0 0 0 0 0 0 0 0 0 0 0 0 127 0" result="hardAlpha"/>
<feOffset/>
<feGaussianBlur stdDeviation="7.5"/>
<feComposite in2="hardAlpha" operator="out"/>
<feColorMatrix type="matrix" values="0 0 0 0 0.162222 0 0 0 0 0.304167 0 0 0 0 0.290147 0 0 0 0.2 0"/>
<feBlend mode="normal" in2="BackgroundImageFix" result="effect1_dropShadow_1010_47371"/>
<feBlend mode="normal" in="SourceGraphic" in2="effect1_dropShadow_1010_47371" result="shape"/>
</filter>
</defs>
</svg>
