<svg width="55" height="56" viewBox="0 0 55 56" fill="none" xmlns="http://www.w3.org/2000/svg">
<path d="M1.25 50.0937L4.91423 43.6017V38.6932C4.91423 37.505 5.61542 36.4289 6.70229 35.9489L9.31752 34.7939M14.6862 50.0937H23.9975C25.102 50.0937 25.9975 49.1983 25.9975 48.0937V32.4861M14.6862 50.0937H11.3175C10.213 50.0937 9.31752 49.1983 9.31752 48.0937V39.5885L12.873 37.3917C13.5723 36.9596 14.2845 36.3706 14.2044 35.5525C14.1784 35.2864 14.0986 34.9817 13.9301 34.6447C13.2903 33.3651 11.8944 33.6559 11.8944 33.6559L9.31752 34.7939M14.6862 50.0937L12.2434 55.1178M9.31752 34.7939V25.6285C9.31752 24.524 10.213 23.6285 11.3175 23.6285H15.0818M15.0818 23.6285L11.2524 18.0519C10.8917 18.1019 10.5234 18.1277 10.149 18.1277C5.74747 18.1277 2.17936 14.5596 2.17936 10.1581C2.17936 5.75659 5.74747 2.18848 10.149 2.18848C14.5505 2.18848 18.1186 5.75659 18.1186 10.1581C18.1186 12.3587 17.2266 14.3511 15.7845 15.7933L17.6192 23.6285M15.0818 23.6285L15.9216 24.8515C16.5477 25.7632 17.9718 25.1343 17.7196 24.0574L17.6192 23.6285M17.6192 23.6285H23.9975C25.102 23.6285 25.9975 24.524 25.9975 25.6285V30.2448M7.73224 11.6948H6.4861C5.93382 11.6948 5.4861 11.2471 5.4861 10.6948V10.006C5.4861 9.45367 5.93382 9.00596 6.4861 9.00596H7.73224C8.28452 9.00596 8.73224 8.55824 8.73224 8.00596V6.6623C8.73224 6.11002 9.17995 5.6623 9.73224 5.6623H10.5743C11.1266 5.6623 11.5743 6.11002 11.5743 6.6623V8.00596C11.5743 8.55824 12.0221 9.00596 12.5743 9.00596H13.9598C14.5121 9.00596 14.9598 9.45367 14.9598 10.006V10.6948C14.9598 11.2471 14.5121 11.6948 13.9598 11.6948H12.5743C12.0221 11.6948 11.5743 12.1425 11.5743 12.6948V14.2056C11.5743 14.7579 11.1266 15.2056 10.5743 15.2056H9.73224C9.17995 15.2056 8.73224 14.7579 8.73224 14.2056V12.6948C8.73224 12.1425 8.28452 11.6948 7.73224 11.6948Z" stroke="#1D6157" stroke-linecap="round" stroke-linejoin="round"/>
<path d="M54.2344 5.89942L50.5702 12.3915L50.5702 17.3C50.5702 18.4881 49.869 19.5643 48.7821 20.0443L46.1669 21.1992M40.7981 5.89941L31.4869 5.89941C30.3824 5.89941 29.4869 6.79484 29.4869 7.89941L29.4869 12.5157M40.7981 5.89941L44.1669 5.89941C45.2714 5.89941 46.1669 6.79485 46.1669 7.89941L46.1669 16.4047L42.6114 18.6015C41.9121 19.0336 41.1999 19.6226 41.28 20.4407C41.306 20.7067 41.3857 21.0115 41.5543 21.3485C42.194 22.6281 43.5899 22.3373 43.5899 22.3373L46.1669 21.1992M40.7981 5.89941L43.241 0.875354M46.1669 21.1992L46.1669 30.3646C46.1669 31.4692 45.2714 32.3646 44.1669 32.3646L40.4026 32.3646M40.4026 32.3646L44.232 37.9412C44.5927 37.8913 44.961 37.8655 45.3354 37.8655C49.7369 37.8655 53.305 41.4336 53.305 45.8351C53.305 50.2366 49.7369 53.8047 45.3354 53.8047C40.9339 53.8047 37.3658 50.2366 37.3658 45.8351C37.3658 43.6344 38.2578 41.6421 39.6999 40.1999L37.8652 32.3646M40.4026 32.3646L39.5628 31.1417C38.9367 30.2299 37.5126 30.8589 37.7648 31.9357L37.8652 32.3646M37.8652 32.3646L31.4869 32.3646C30.3823 32.3646 29.4869 31.4692 29.4869 30.3646L29.4869 14.757" stroke="#1D6157" stroke-linecap="round" stroke-linejoin="round"/>
<path d="M45.6738 40.9639V50.7478" stroke="#1D6157" stroke-linecap="round" stroke-linejoin="round"/>
<path d="M48.1194 42.4316H44.4505C43.9964 42.4316 43.5609 42.612 43.2398 42.9331C42.9187 43.2542 42.7383 43.6897 42.7383 44.1438C42.7383 44.5979 42.9187 45.0334 43.2398 45.3545C43.5609 45.6756 43.9964 45.856 44.4505 45.856H46.8964C47.3505 45.856 47.786 46.0364 48.1071 46.3575C48.4282 46.6786 48.6086 47.1141 48.6086 47.5682C48.6086 48.0223 48.4282 48.4578 48.1071 48.7789C47.786 49.1 47.3505 49.2804 46.8964 49.2804H42.7383" stroke="#1D6157" stroke-linecap="round" stroke-linejoin="round"/>
</svg>
