<svg width="55" height="46" viewBox="0 0 55 46" fill="none" xmlns="http://www.w3.org/2000/svg">
<path d="M26.9944 39.5373C35.3921 39.5373 42.1997 32.7297 42.1997 24.332C42.1997 22.3959 41.8379 20.5443 41.1781 18.8412M24.4602 9.33691C17.2688 10.5434 11.7891 16.7978 11.7891 24.332C11.7891 25.1954 11.861 26.042 11.9993 26.8661" stroke="#1D6157" stroke-linecap="round" stroke-linejoin="round" stroke-dasharray="2 2"/>
<path d="M7.56261 28.9776V28.9776C7.56261 28.0445 6.80621 27.2881 5.87313 27.2881H2.80469C1.70012 27.2881 0.804688 28.1835 0.804688 29.2881V37.0088M7.56261 28.9776H11.0032C13.4148 28.9776 15.7451 29.8491 17.5649 31.4315L24.4574 37.425C24.4574 37.425 25.3022 38.6921 24.4574 39.9592C23.6127 41.2263 21.9232 40.3816 21.9232 40.3816L16.8548 35.7355M7.56261 28.9776V37.425M7.56261 37.425V37.425C7.56261 38.358 6.80621 39.1145 5.87313 39.1145H3.07738M7.56261 37.425C8.97052 37.1434 12.5466 37.8473 15.5877 42.9158C16.2916 43.9013 18.5442 45.7879 21.9232 45.45H33.3272C33.3272 45.45 35.0167 45.45 35.0167 43.3382C35.0167 41.2263 33.3272 40.8039 33.3272 40.8039H27.8364" stroke="#1D6157" stroke-linecap="round" stroke-linejoin="round"/>
<circle cx="0.42237" cy="0.42237" r="0.42237" transform="matrix(-1 0 0 1 1.2207 38.7012)" fill="#1D6157"/>
<path d="M47.2577 17.6377V17.6377C47.2577 18.5707 48.0141 19.3271 48.9472 19.3271L52.0156 19.3271C53.1202 19.3271 54.0156 18.4317 54.0156 17.3271L54.0156 9.60642M47.2577 17.6377L43.8172 17.6377C41.4055 17.6377 39.0752 16.7662 37.2554 15.1837L30.3629 9.19026C30.3629 9.19026 29.5181 7.92315 30.3629 6.65604C31.2076 5.38892 32.8971 6.23367 32.8971 6.23367L37.9656 10.8797M47.2577 17.6377L47.2577 9.19026M47.2577 9.19026V9.19026C47.2577 8.25719 48.0141 7.50078 48.9472 7.50078L51.7429 7.50078M47.2577 9.19026C45.8498 9.47184 42.2737 8.76789 39.2327 3.69944C38.5287 2.71391 36.2761 0.827326 32.8971 1.16522L21.4931 1.16522C21.4931 1.16522 19.8036 1.16522 19.8036 3.27707C19.8036 5.38892 21.4931 5.81129 21.4931 5.81129L26.9839 5.81129" stroke="#1D6157" stroke-linecap="round" stroke-linejoin="round"/>
<circle cx="0.42237" cy="0.42237" r="0.42237" transform="matrix(1 8.74228e-08 8.74228e-08 -1 53.5996 7.91406)" fill="#1D6157"/>
<path d="M20.0891 25.1759C21.357 26.8654 26.847 30.6667 26.847 30.6667C26.847 30.6667 32.3376 26.8654 33.6054 25.1759C34.8733 23.4864 34.7036 19.9385 30.6488 19.2627C29.5228 19.2627 27.1855 19.7695 26.847 21.7969C26.5085 19.7695 24.1718 19.2627 23.0457 19.2627C18.991 19.9385 18.8213 23.4864 20.0891 25.1759Z" stroke="#1D6157" stroke-linecap="round" stroke-linejoin="round"/>
</svg>
