<svg width="56" height="56" viewBox="0 0 56 56" fill="none" xmlns="http://www.w3.org/2000/svg">
                            <circle cx="28.4061" cy="14.3905" r="13.5155" stroke="#1D6157" stroke-linecap="round" stroke-linejoin="round" stroke-dasharray="3 3"/>
                            <path d="M27.4558 8.30694C27.7551 7.38562 29.0585 7.38562 29.3579 8.30693L30.2053 10.9149C30.3391 11.3269 30.7231 11.6059 31.1563 11.6059L33.8985 11.6059C34.8672 11.6059 35.27 12.8455 34.4863 13.4149L32.2678 15.0267C31.9173 15.2813 31.7707 15.7327 31.9045 16.1447L32.7519 18.7527C33.0513 19.674 31.9968 20.4401 31.2131 19.8707L28.9946 18.2589C28.6441 18.0043 28.1695 18.0043 27.819 18.2589L25.6006 19.8707C24.8169 20.4401 23.7624 19.674 24.0617 18.7527L24.9091 16.1447C25.043 15.7327 24.8963 15.2813 24.5458 15.0267L22.3274 13.4149C21.5437 12.8455 21.9464 11.6059 22.9152 11.6059L25.6573 11.6059C26.0906 11.6059 26.4745 11.3269 26.6084 10.9149L27.4558 8.30694Z" stroke="#1D6157" stroke-linejoin="round"/>
                            <path d="M6.78123 25.2031L7.38811 27.0709H9.35203L7.76318 28.2253L8.37007 30.0931L6.78123 28.9387L5.19238 30.0931L5.79927 28.2253L4.21042 27.0709H6.17434L6.78123 25.2031Z" stroke="#1D6157" stroke-linejoin="round"/>
                            <path d="M50.0312 25.2031L50.6381 27.0709H52.602L51.0132 28.2253L51.6201 30.0931L50.0312 28.9387L48.4424 30.0931L49.0493 28.2253L47.4604 27.0709H49.4243L50.0312 25.2031Z" stroke="#1D6157" stroke-linejoin="round"/>
                            <circle cx="6.78123" cy="36.916" r="2.7031" stroke="#1D6157" stroke-linejoin="round"/>
                            <circle cx="50.0312" cy="36.916" r="2.7031" stroke="#1D6157" stroke-linejoin="round"/>
                            <path d="M1.375 46.3223V49.5305H12.1874V46.3223C12.1874 44.1131 10.3965 42.3223 8.1874 42.3223H5.375C3.16586 42.3223 1.375 44.1131 1.375 46.3223Z" stroke="#1D6157" stroke-linejoin="round"/>
                            <path d="M25.7031 47.7287H21.5938C19.3846 47.7287 17.5938 49.5196 17.5938 51.7287V54.937H39.2186V51.7287C39.2186 49.5196 37.4277 47.7287 35.2186 47.7287H31.1093M25.7031 47.7287C25.7031 47.7287 25.7031 50.4318 28.4062 50.4318C31.1093 50.4318 31.1093 47.7287 31.1093 47.7287M25.7031 47.7287V45.4761M31.1093 47.7287V45.4761M31.1093 45.4761L28.4062 46.8277L25.7031 45.4761M31.1093 45.4761L32.9113 44.5751V40.5204L33.8124 39.6194L33.3618 38.7184M25.7031 45.4761L23.901 44.5751V40.5204L23 39.6194L23.4505 38.7184M23.4505 38.7184L24.802 36.0153L28.4062 36.9163L32.0103 36.0153L33.3618 38.7184M23.4505 38.7184C22.5494 37.8173 21.1979 35.4746 23 33.3122C23.3003 33.0118 24.0812 32.4111 24.802 32.4111C25.5228 32.4111 29.9079 32.4111 32.0103 32.4111C32.3106 32.4111 33.0915 32.5913 33.8124 33.3122C34.5632 34.2132 35.5243 36.5559 33.3618 38.7184" stroke="#1D6157" stroke-linejoin="round"/>
                            <path d="M44.623 46.3223V49.5305H55.4354V46.3223C55.4354 44.1131 53.6446 42.3223 51.4355 42.3223H48.623C46.4139 42.3223 44.623 44.1131 44.623 46.3223Z" stroke="#1D6157" stroke-linejoin="round"/>
                        </svg>  