<svg width="51" height="56" viewBox="0 0 51 56" fill="none" xmlns="http://www.w3.org/2000/svg">
<path d="M42.5239 12.002H28.6191C28.0669 12.002 27.6191 12.4497 27.6191 13.002V25.9067C27.6191 26.4589 28.0669 26.9067 28.6191 26.9067H48.6036C49.1559 26.9067 49.6036 26.4589 49.6036 25.9067V13.002C49.6036 12.4497 49.1559 12.002 48.6036 12.002H45.1322M30.2275 14.6103H32.4632M30.2275 17.1821H32.4632M30.2275 19.8269H32.4632M30.2275 22.4353H32.4632M34.642 19.8269H36.8418L38.4611 17.5617L41.1498 23.489L41.9442 19.3337L43.1052 20.6475L44.9078 17.1821L45.1322 19.8269H46.8327" stroke="#1D6157" stroke-linecap="round" stroke-linejoin="round"/>
<path d="M22.0839 34.2106H11.543M24.2583 34.2106H46.7838C48.4407 34.2106 49.7838 35.5537 49.7838 37.2106V38.0392H46.4273M5.63436 34.2106V34.2106C4.38116 34.2106 3.36523 35.2265 3.36523 36.4797V38.0392H6.34339M5.63436 34.2106V33.4219C5.63436 32.3173 6.52979 31.4219 7.63436 31.4219H9.54296C10.6475 31.4219 11.543 32.3173 11.543 33.4219V34.2106M5.63436 34.2106H11.543M6.34339 38.0392V39.0175C6.34339 40.1221 7.23882 41.0175 8.34339 41.0175H12.2993M6.34339 38.0392H46.4273M46.4273 38.0392V39.0175C46.4273 40.1221 45.5319 41.0175 44.4273 41.0175H31.3958M14.4736 41.0175H20.8549M12.5832 51.6888C11.67 51.6888 10.9297 52.4291 10.9297 53.3423C10.9297 54.2555 11.67 54.9958 12.5832 54.9958C13.4964 54.9958 14.2367 54.2555 14.2367 53.3423C14.2367 52.4291 13.4964 51.6888 12.5832 51.6888ZM12.5832 51.6888V49.2024C12.5832 48.6501 13.0309 48.2024 13.5832 48.2024H20.2877M39.1016 51.6888C38.1884 51.6888 37.4481 52.4291 37.4481 53.3423C37.4481 54.2555 38.1884 54.9958 39.1016 54.9958C40.0148 54.9958 40.7551 54.2555 40.7551 53.3423C40.7551 52.4291 40.0148 51.6888 39.1016 51.6888ZM39.1016 51.6888V49.2024C39.1016 48.6501 38.6539 48.2024 38.1016 48.2024H31.3958M20.2877 48.2024V45.2717L31.3958 41.0175M20.2877 48.2024H31.3958M31.3958 41.0175H20.8549M20.8549 41.0175L31.3958 48.2024" stroke="#1D6157" stroke-linecap="round" stroke-linejoin="round"/>
<path d="M13.0139 23.0969L12.8985 23.2123C12.3193 23.7915 11.4454 23.9589 10.6931 23.6349L8.36585 22.6325L10.051 20.9473M13.0139 23.0969L13.643 23.7259C14.0335 24.1165 14.6667 24.1165 15.0572 23.7259L16.0249 22.7583C16.4154 22.3677 16.4154 21.7346 16.0249 21.3441L15.3958 20.715M13.0139 23.0969L15.3958 20.715M15.3958 20.715L22.4659 13.6449C23.0817 13.029 23.2282 12.0854 22.8281 11.3118L21.757 9.24126L20.1304 10.8679M10.051 20.9473L9.65527 20.5515C8.09317 18.9894 8.09318 16.4568 9.65527 14.8947L11.1549 13.3951M10.051 20.9473L20.1304 10.8679M20.1304 10.8679L19.7347 10.4721C18.1726 8.91004 15.6399 8.91004 14.0778 10.4721L11.1549 13.3951M11.1549 13.3951L8.80192 11.0421L3.19562 11.071M16.557 19.5538L17.186 20.1829C17.5766 20.5734 18.2097 20.5734 18.6002 20.1829L19.5679 19.2152C19.9584 18.8247 19.9584 18.1915 19.5679 17.801L18.9388 17.1719L16.557 19.5538ZM19.9926 16.1182L20.6217 16.7473C21.0122 17.1378 21.6454 17.1378 22.0359 16.7473L23.0035 15.7796C23.3941 15.3891 23.3941 14.7559 23.0035 14.3654L22.3745 13.7363L19.9926 16.1182Z" stroke="#1D6157" stroke-linecap="round" stroke-linejoin="round"/>
</svg>
