<svg width="24" height="24" viewBox="0 0 24 24" fill="none" xmlns="http://www.w3.org/2000/svg">
<g id="logo-vk filled" clip-path="url(#clip0_3178_53231)">
<path id="Subtract" fill-rule="evenodd" clip-rule="evenodd" d="M1.68706 1.68706C0 3.37413 0 6.08942 0 11.52L0 12.48C0 17.9106 0 20.6259 1.68706 22.3129C3.37413 24 6.08942 24 11.52 24H12.48C17.9106 24 20.6259 24 22.3129 22.3129C24 20.6259 24 17.9106 24 12.48V11.52C24 6.08942 24 3.37413 22.3129 1.68706C20.6259 0 17.9106 0 12.48 0L11.52 0C6.08942 0 3.37413 0 1.68706 1.68706ZM4.05003 7.30005C4.18003 13.54 7.3 17.29 12.77 17.29H13.0801V13.72C15.0901 13.92 16.61 15.39 17.2199 17.29H20.06C19.28 14.45 17.2299 12.88 15.9499 12.28C17.2299 11.54 19.0299 9.74005 19.4599 7.30005L16.8799 7.30005C16.3199 9.28005 14.6601 11.08 13.0801 11.25V7.30005L10.5 7.30005V14.22C8.89998 13.82 6.88002 11.88 6.79002 7.30005H4.05003Z" fill="white"/>
</g>
<defs>
<clipPath id="clip0_3178_53231">
<rect width="24" height="24" fill="white"/>
</clipPath>
</defs>
</svg>
