<svg width="25" height="24" viewBox="0 0 25 24" fill="none" xmlns="http://www.w3.org/2000/svg">
<g id="logo-telega" clip-path="url(#clip0_3178_53225)">
<path id="Subtract" fill-rule="evenodd" clip-rule="evenodd" d="M2.18706 1.68706C0.5 3.37413 0.5 6.08942 0.5 11.52L0.5 12.48C0.5 17.9106 0.5 20.6259 2.18706 22.3129C3.87413 24 6.58942 24 12.02 24H12.98C18.4106 24 21.1259 24 22.8129 22.3129C24.5 20.6259 24.5 17.9106 24.5 12.48V11.52C24.5 6.08942 24.5 3.37413 22.8129 1.68706C21.1259 0 18.4106 0 12.98 0L12.02 0C6.58942 0 3.87413 0 2.18706 1.68706ZM19.4926 6.85808L17.1595 17.4285C17.0698 17.797 16.647 18.363 15.6728 17.6787C14.6986 16.9944 13.1404 15.8949 12.4831 15.4306L10.6327 17.1438C10.5763 17.193 10.3942 17.2913 10.1171 17.2913L10.3668 13.9458L16.8256 8.36611C16.9725 8.20793 16.7576 8.06004 16.5567 8.16068C16.3511 8.26369 13.6904 9.86514 11.2271 11.3478C10.1894 11.9724 9.18669 12.5759 8.41731 13.0375L4.82375 11.9627C4.57944 11.8573 4.23741 11.5432 4.82375 11.1301L18.4877 6.06215C18.8593 5.93556 19.5806 5.91751 19.4926 6.85808Z" fill="white"/>
</g>
<defs>
<clipPath id="clip0_3178_53225">
<rect width="24" height="24" fill="white" transform="translate(0.5)"/>
</clipPath>
</defs>
</svg>
