<svg width="24" height="24" viewBox="0 0 24 24" fill="none" xmlns="http://www.w3.org/2000/svg">
<g id="odnoklassniki">
<rect width="24" height="24" rx="6" fill="white"/>
<g id="icon ok">
<path d="M11.9998 3C9.24052 3 6.99655 5.01823 6.99655 7.49996C6.99655 9.98168 9.24052 11.9999 11.9998 11.9999C14.7592 11.9999 17.0031 9.98168 17.0031 7.49996C17.0031 5.01823 14.7592 3 11.9998 3ZM11.9998 9.74994C10.6202 9.74994 9.49819 8.74082 9.49819 7.49996C9.49819 6.25909 10.6202 5.24998 11.9998 5.24998C13.3795 5.24998 14.5015 6.25909 14.5015 7.49996C14.5015 8.74082 13.3795 9.74994 11.9998 9.74994Z" fill="#FF7700"/>
<path d="M18.6343 11.8749C18.1452 11.4351 17.3547 11.4351 16.8656 11.8749C14.1839 14.2869 9.81849 14.2869 7.13547 11.8749C6.6464 11.4351 5.85588 11.4351 5.3668 11.8749C4.87773 12.3148 4.87773 13.0258 5.3668 13.4668C6.92283 14.8663 8.89538 15.6639 10.9292 15.872L7.36312 19.0794C6.87405 19.5192 6.87405 20.2302 7.36312 20.6701C7.85219 21.11 8.64271 21.11 9.13178 20.6701L11.9999 18.0905L14.8681 20.6701C15.112 20.8895 15.4322 20.9997 15.7524 20.9997C16.0726 20.9997 16.3928 20.8895 16.6367 20.6701C17.1258 20.2302 17.1258 19.5192 16.6367 19.0794L13.0706 15.872C15.1045 15.6639 17.077 14.8663 18.633 13.4668C19.1221 13.0269 19.1221 12.3148 18.6343 11.8749Z" fill="#FF7700"/>
</g>
</g>
</svg>
