<svg width="34" height="24" viewBox="0 0 34 24" fill="none" xmlns="http://www.w3.org/2000/svg">
<g id="yt_logo_rgb_light 1" clip-path="url(#clip0_3178_53219)">
<path id="Subtract" fill-rule="evenodd" clip-rule="evenodd" d="M31.6141 1.82712C32.1321 2.35901 32.5052 3.02118 32.6959 3.74745C33.3831 6.42008 33.3913 11.9996 33.3913 11.9996C33.3913 11.9996 33.3913 17.5791 32.6959 20.2517C32.5052 20.978 32.1321 21.6401 31.6141 22.172C31.096 22.7039 30.4511 23.0869 29.7438 23.2827C27.1407 23.9996 16.6956 23.9996 16.6956 23.9996C16.6956 23.9996 6.25331 23.9996 3.65028 23.2827C2.94267 23.0874 2.29748 22.7046 1.77936 22.1726C1.26124 21.6407 0.888388 20.9782 0.69817 20.2517C0 17.5791 0 11.9996 0 11.9996C0 11.9996 0 6.42008 0.69817 3.74745C0.886703 3.01884 1.25881 2.35406 1.77704 1.81999C2.29527 1.28592 2.94135 0.901402 3.65028 0.705121C6.25056 -0.0117188 16.6956 -0.0117188 16.6956 -0.0117188C16.6956 -0.0117188 27.138 -0.0117188 29.7438 0.71641C30.4511 0.912234 31.096 1.29523 31.6141 1.82712ZM22.0336 11.9995L13.356 17.1416V6.85747L22.0336 11.9995Z" fill="white"/>
</g>
<defs>
<clipPath id="clip0_3178_53219">
<rect width="33.3913" height="24" fill="white"/>
</clipPath>
</defs>
</svg>
