<svg width="190" height="50" viewBox="0 0 190 50" fill="none" xmlns="http://www.w3.org/2000/svg">
<path d="M86.6015 41.3271C85.8623 41.5724 85.0859 41.6827 84.3087 41.6528C83.5006 41.7017 82.6907 41.5911 81.9241 41.3271V12.2514H68.7058V41.3271C67.9651 41.5663 67.1899 41.6764 66.4129 41.6528C65.6196 41.7072 64.8237 41.5963 64.0742 41.3271V8.18075H86.5901L86.6015 41.3271ZM116.982 8.18075C117.88 8.13278 118.78 8.24296 119.642 8.50639V41.3271C118.904 41.5792 118.126 41.6897 117.349 41.6528C116.555 41.7072 115.76 41.5963 115.01 41.3271V26.0682C115.01 18.2061 115.377 14.7635 115.377 14.7635H115.239C115.239 14.7635 114.414 17.1826 110.975 24.0212L101.734 41.3271C100.798 41.5663 99.8338 41.6758 98.8683 41.6528C97.9394 41.7116 97.0076 41.6013 96.1169 41.3271V8.48313C96.8562 8.23785 97.6325 8.12759 98.4098 8.15748C99.2173 8.12306 100.025 8.2333 100.794 8.48313V23.8351C100.794 30.8133 100.473 35.605 100.473 35.605H100.611C101.184 33.5116 103.087 29.5572 105.059 25.6495L114.276 8.48313C115.162 8.22136 116.084 8.1113 117.005 8.15748L116.982 8.18075ZM154.705 8.18075C155.723 8.16669 156.739 8.27601 157.732 8.50639V41.3271C156.992 41.5724 156.216 41.6827 155.439 41.6528C154.647 41.6722 153.857 41.5622 153.1 41.3271V26.4403C153.1 21.8812 153.008 16.8104 153.375 14.0192H153.146C152.573 16.1126 150.716 19.9274 149.065 23.3699L143.699 33.6046C143.242 33.7618 142.761 33.8404 142.278 33.8372C141.838 33.8608 141.399 33.7812 140.994 33.6046L135.772 23.556C134.052 20.1134 132.149 16.1126 131.599 14.0192H131.415C131.874 16.3452 131.874 21.1834 131.874 25.7425V41.3271C131.167 41.5743 130.42 41.6847 129.673 41.6528C128.971 41.6697 128.273 41.5594 127.609 41.3271V8.48313C128.524 8.25302 129.464 8.14357 130.407 8.15748C131.347 8.17066 132.285 8.27975 133.204 8.48313L139.257 20.1134C140.587 22.8117 141.917 25.6029 142.421 27.3242H142.605C143.078 25.9036 143.653 24.5198 144.324 23.1838C146.892 18.2991 149.369 13.4144 151.776 8.48313C152.748 8.27973 153.736 8.17069 154.728 8.15748L154.705 8.18075ZM187.206 8.18075C187.983 8.16979 188.756 8.27961 189.499 8.50639L180.42 32.6974C177.439 40.606 173.679 41.676 170.514 41.676C169.566 41.6922 168.621 41.5508 167.717 41.2573C167.506 40.6442 167.397 39.9995 167.396 39.35C167.388 38.7066 167.465 38.065 167.625 37.4426C168.326 37.525 169.03 37.5716 169.735 37.5822C171.798 37.5822 173.679 37.0006 175.559 32.6974H174.504L163.286 8.48313C164.103 8.23256 164.956 8.12249 165.808 8.15748C166.692 8.1047 167.577 8.21504 168.422 8.48313L175.805 24.3469C176.394 25.6755 176.914 27.0342 177.364 28.4175H177.502C177.548 28.2314 178.075 26.4171 178.878 24.184L184.931 8.48313C185.672 8.23716 186.45 8.1269 187.229 8.15748L187.206 8.18075Z" fill="#323232"/>
<path d="M28.0269 9.79108H28.3594V8.78506L29.6262 7.49991V7.27893H29.3682L28.1243 8.54663H27.127V8.88391H28.0269V9.79108Z" fill="#E8423B"/>
<path d="M20.3693 7.27893H20.1113V7.49991L21.3781 8.78506V9.79108H21.7106V8.88391H22.6105V8.54663H21.6131L20.3693 7.27893Z" fill="#B01831"/>
<path d="M24.8719 19.7117L22.8026 21.8051L20.0913 19.0546L17.122 22.0494C15.4941 23.7009 15.6947 26.591 17.5692 28.4867L24.8719 35.8836L22.8026 37.9771L15.5113 30.586C12.5019 27.5098 12.3013 22.7588 15.0699 19.9501L20.0913 14.856L22.1549 16.9553L24.8719 19.7117ZM46.9865 32.441C48.4322 33.9125 49.2439 35.9054 49.2439 37.9829C49.2439 40.0604 48.4322 42.0532 46.9865 43.5247L43.0887 47.479C41.6847 48.9446 39.7657 49.7864 37.7515 49.8202C35.7373 49.8539 33.7918 49.077 32.3409 47.6593L24.8891 40.0996L26.9412 37.9771L34.393 45.5368C35.2933 46.4014 36.4951 46.8681 37.7344 46.8343C38.9736 46.8005 40.149 46.269 41.0022 45.3565L44.9 41.4022C45.3458 40.9502 45.6994 40.4135 45.9407 39.8228C46.182 39.2321 46.3061 38.599 46.3061 37.9596C46.3061 37.3202 46.182 36.6871 45.9407 36.0964C45.6994 35.5057 45.3458 34.9691 44.9 34.5171L41.0022 30.5628C39.5565 29.0913 38.7448 27.0984 38.7448 25.0209C38.7448 22.9434 39.5565 20.9506 41.0022 19.4791L44.9 15.5248C45.8007 14.6109 46.3066 13.3716 46.3066 12.0793C46.3066 10.787 45.8007 9.54767 44.9 8.63381L41.0022 4.67951C39.1507 2.80703 36.3018 2.6035 34.6739 4.24919L32.2836 6.6741L29.6239 9.37234V7.27888H27.5603L30.2143 4.58646L32.5988 2.16155C35.3617 -0.647173 40.0506 -0.449458 43.0772 2.60931L46.9865 6.57525C48.4217 8.04527 49.2268 10.0306 49.2268 12.0996C49.2268 14.1687 48.4217 16.154 46.9865 17.624L43.0887 21.5725C42.188 22.4864 41.6821 23.7257 41.6821 25.018C41.6821 26.3103 42.188 27.5496 43.0887 28.4635L46.9865 32.441ZM30.4493 5.84254C30.3621 5.76235 30.2478 5.71927 30.1301 5.72221C30.0124 5.72515 29.9003 5.77389 29.8171 5.85833C29.7339 5.94277 29.6858 6.05645 29.6829 6.17583C29.68 6.29521 29.7225 6.41116 29.8015 6.49965C29.8433 6.54635 29.8939 6.58397 29.9504 6.61022C30.0068 6.63647 30.068 6.6508 30.1301 6.65235C30.1922 6.65391 30.254 6.64264 30.3116 6.61924C30.3693 6.59584 30.4217 6.5608 30.4656 6.51624C30.5096 6.47168 30.5441 6.41852 30.5672 6.36001C30.5902 6.30149 30.6013 6.23883 30.5998 6.17583C30.5983 6.11283 30.5841 6.0508 30.5583 5.99351C30.5324 5.93622 30.4953 5.88485 30.4493 5.84254V5.84254Z" fill="#B01831"/>
<path d="M34.672 19.9502L31.72 16.9554L29.6507 14.8561L27.5871 16.9554L22.8008 21.8053L24.8701 23.9045L29.6507 19.0547L32.597 22.0495C34.2249 23.701 34.0243 26.5911 32.1499 28.4869L15.3318 45.5369C14.4315 46.4015 13.2297 46.8682 11.9904 46.8344C10.7512 46.8006 9.5758 46.2691 8.72261 45.3566L4.82475 41.4023C4.37898 40.9503 4.02535 40.4136 3.78409 39.823C3.54282 39.2323 3.41864 38.5991 3.41864 37.9598C3.41864 37.3204 3.54282 36.6872 3.78409 36.0965C4.02535 35.5059 4.37898 34.9692 4.82475 34.5172L8.72261 30.5629C10.1683 29.0914 10.98 27.0986 10.98 25.021C10.98 22.9435 10.1683 20.9507 8.72261 19.4792L4.82475 15.5249C3.92411 14.611 3.41815 13.3717 3.41815 12.0794C3.41815 10.7871 3.92411 9.54779 4.82475 8.63393L8.72261 4.67963C10.5913 2.80715 13.4402 2.60362 15.0681 4.24931L17.4584 6.67423L20.1181 9.37246V7.279H22.1817L19.5277 4.58659L17.1202 2.16167C14.3573 -0.647051 9.66842 -0.449336 6.64184 2.60943L2.75545 6.57537C1.32026 8.04539 0.515132 10.0308 0.515132 12.0998C0.515132 14.1688 1.32026 16.1541 2.75545 17.6242L6.65331 21.5727C7.55395 22.4865 8.05991 23.7259 8.05991 25.0181C8.05991 26.3104 7.55395 27.5497 6.65331 28.4636L2.75545 32.4179C1.3098 33.8894 0.498047 35.8822 0.498047 37.9598C0.498047 40.0373 1.3098 42.0301 2.75545 43.5016L6.65331 47.4559C8.05728 48.9215 9.9763 49.7632 11.9905 49.797C14.0047 49.8308 15.9501 49.0539 17.4011 47.6362L24.8529 40.0765L26.9394 37.9772L34.2307 30.5861C37.24 27.5099 37.4407 22.7589 34.672 19.9502ZM19.2927 5.84266C19.3344 5.79596 19.385 5.75834 19.4415 5.73209C19.498 5.70584 19.5591 5.69151 19.6212 5.68996C19.6833 5.68841 19.7451 5.69967 19.8028 5.72307C19.8605 5.74647 19.9128 5.78151 19.9568 5.82607C20.0007 5.87063 20.0352 5.92379 20.0583 5.9823C20.0814 6.04082 20.0925 6.10348 20.0909 6.16648C20.0894 6.22948 20.0753 6.29151 20.0494 6.3488C20.0235 6.40609 19.9865 6.45746 19.9404 6.49977C19.8532 6.57996 19.7389 6.62304 19.6212 6.6201C19.5035 6.61716 19.3915 6.56842 19.3083 6.48398C19.225 6.39954 19.177 6.28586 19.1741 6.16648C19.1712 6.0471 19.2137 5.93115 19.2927 5.84266V5.84266Z" fill="#E8423B"/>
</svg>
