<svg width="200" height="140" viewBox="0 0 200 140" fill="none" xmlns="http://www.w3.org/2000/svg">
<path opacity="0.5" d="M189.401 0.0974943C194.067 -0.585237 198.257 2.38957 198.803 6.77161C200.943 23.9384 203.068 66.5212 177.974 98.014C152.635 129.814 108.699 137.929 91.2298 139.94C86.8668 140.442 83.0021 137.755 82.2647 133.707C79.3121 117.499 75.0223 75.8572 100.361 44.0567C125.528 12.4716 170.892 2.80562 189.401 0.0974943Z" fill="#D5E9B5"/>
<path fill-rule="evenodd" clip-rule="evenodd" d="M37.2451 76.2924C37.3049 76.2526 37.356 76.2187 37.3974 76.1919L37.3781 85.9784C33.7864 86.885 30.0225 86.8516 26.4474 85.8815C23.5061 84.8673 20.8641 83.3365 18.4574 81.942C15.5293 80.2454 12.9495 78.7507 10.6028 78.6337C10.7382 78.6143 10.8349 78.2654 10.8349 78.2654C13.3554 78.3267 16.4407 79.7832 19.5428 81.2476C21.3458 82.0987 23.1543 82.9525 24.861 83.5366C28.0851 84.5613 31.5333 84.6486 34.805 83.7885C34.805 83.7885 34.8243 80.4747 34.805 79.622C34.7913 79.0162 33.9866 79.1538 33.2235 79.2843C32.9124 79.3374 32.6083 79.3894 32.3674 79.3894C30.4327 79.5445 24.4934 79.5057 24.6288 74.3508C24.7126 71.2259 26.4164 68.589 28.3764 65.5557C30.0384 62.9834 31.8847 60.1261 33.0832 56.4444C34.1213 53.0715 34.3793 49.5061 33.8377 46.0184C33.8377 45.8544 34.0263 45.6862 34.2721 45.4672L34.2721 45.4671C34.7813 45.0133 35.5357 44.341 35.366 43.034C35.2938 42.7444 35.2384 42.6746 34.8689 42.2088L34.7857 42.1038C34.1894 41.4088 33.8124 40.5523 33.7023 39.6427C33.7488 39.4327 33.9387 38.7546 34.1882 37.8639L34.1882 37.8638L34.1884 37.8631C34.5605 36.5343 35.0651 34.7325 35.4241 33.3056C35.45 33.1862 35.4815 33.064 35.5136 32.9391L35.5137 32.9389C35.6016 32.5975 35.6949 32.2352 35.6949 31.8522C36.0045 30.0499 35.9464 29.1004 35.6949 28.8484C34.7471 28.5102 33.7352 28.3909 32.7349 28.4996C31.5676 28.4875 30.3853 28.558 29.4627 28.6129L29.4627 28.6129L29.4627 28.6129L29.4627 28.6129L29.4626 28.6129L29.4626 28.6129L29.4626 28.6129L29.4626 28.6129L29.4625 28.613C28.9021 28.6463 28.4376 28.674 28.1305 28.674C27.0158 28.7547 25.9131 28.9562 24.8417 29.2748C24.1031 29.5052 23.4715 29.9934 23.0618 30.6507C23.0618 30.6507 22.5975 30.205 22.2106 29.6624C21.8236 29.1197 20.1599 27.1818 19.1151 27.1818C18.9498 27.215 18.7964 27.2918 18.6705 27.4042C18.5447 27.5166 18.4511 27.6606 18.3993 27.8213C18.1187 28.4265 17.9987 29.094 18.0511 29.7592C18.3893 33.0395 19.4038 36.2136 21.0304 39.0807C21.7612 40.499 22.609 41.8538 23.5648 43.1309C24.3275 44.2469 24.8967 44.9484 25.3277 45.4797C25.8696 46.1477 26.1932 46.5465 26.4087 47.1618C26.7717 47.7994 26.9626 48.5207 26.9626 49.2547C26.9626 49.9888 26.7717 50.7101 26.4087 51.3477C26.2079 51.5488 25.9665 51.6399 25.6804 51.7477C25.0843 51.9726 24.2943 52.2705 23.2746 53.7895C21.9101 56.3636 21.3124 59.2762 21.5528 62.1807C21.6204 63.9963 21.8667 65.8009 22.2879 67.5681L21.5141 67.7425C20.9881 63.9423 20.852 60.0981 21.1078 56.27C21.6668 46.8558 20.0996 37.4365 16.5227 28.7128C13.4273 20.3797 8.20384 18.1705 8.20384 18.1705C8.77525 22.3822 8.77525 26.6521 8.20384 30.8639C6.7961 38.0924 6.386 45.4803 6.98502 52.8205C9.57743 72.0447 23.1585 80.4359 30.2393 82.6645V83.0715C22.0945 81.2305 6.26921 73.8276 4.5087 55.0685C3.93836 48.8983 5.25119 41.7648 6.42478 35.3878C7.24163 30.9492 7.99103 26.8772 7.99103 23.7517C8.04293 21.0672 7.45254 18.4092 6.26921 16C10.7682 16.9021 15.0512 18.6656 18.883 21.1936C21.4925 23.2135 23.8216 25.5727 25.809 28.2089C27.7805 27.3514 29.8359 26.7019 31.9417 26.271C33.9087 25.8616 35.9448 25.928 37.8811 26.4648C36.0128 31.1693 35.2643 36.2452 35.6949 41.2899C36.3881 49.5247 34.9557 57.7997 31.5355 65.3201C31.3771 65.6271 31.2179 65.9318 31.06 66.2341C29.4434 69.3288 27.9565 72.1751 28.7496 74.6997C30.6164 80.6985 35.9621 77.1452 37.2451 76.2924ZM31.1271 37.3565C31.2339 37.0695 31.3814 36.6943 31.546 36.2854C31.6462 36.1708 31.7501 36.0507 31.8646 35.8643C32.2137 35.0947 32.4985 34.2974 32.7159 33.4807L32.7195 33.4684C32.9755 32.9435 33.2148 32.4106 33.4371 31.8707C33.6575 31.4262 33.838 31.0392 33.838 30.8451C33.838 30.8004 33.8314 30.7606 33.8188 30.7249C33.7304 30.4297 33.3055 30.326 32.8138 30.2058C32.7617 30.1931 32.7088 30.1802 32.6555 30.1668C31.7103 29.9721 30.7533 29.8404 29.7909 29.7725C29.7276 29.7679 29.6644 29.7637 29.6011 29.7599C29.5449 29.7528 29.4885 29.7493 29.4321 29.7494C29.3129 29.7493 29.1939 29.7653 29.0785 29.7971C28.9092 29.8436 28.7507 29.9232 28.6121 30.0312C28.438 30.2443 28.6121 30.8257 28.7669 31.0195C29.3044 31.8188 29.6852 32.7132 29.889 33.6551C29.9984 34.7827 29.8299 34.999 29.4548 35.4804C29.3658 35.5946 29.2652 35.7238 29.1538 35.8837C28.9522 36.1477 29.1483 36.5985 29.3736 37.1163L29.3736 37.1164L29.3738 37.1166C29.4295 37.2448 29.487 37.377 29.5407 37.5115C29.8116 38.1898 30.7596 38.3449 31.1271 37.3565ZM22.2495 33.907C22.2228 34.1906 22.2228 34.4761 22.2495 34.7597C22.1283 34.3903 21.9592 34.0385 21.7465 33.7132C21.3108 32.949 20.9666 32.1359 20.7212 31.2908C20.5664 30.6513 20.431 30.0505 20.431 30.0505C20.6651 30.3764 20.9609 30.653 21.3016 30.8645C21.7974 31.3291 22.2039 31.8808 22.501 32.4923C22.501 32.4923 22.3463 33.1318 22.2495 33.9845V33.907ZM62.9374 38.867C63.4017 38.867 63.8853 38.867 64.427 38.7701V61.7732C64.1457 61.7732 63.8801 61.7419 63.6247 61.7118H63.6247H63.6247H63.6246H63.6246H63.6246H63.6245C63.3881 61.6838 63.1605 61.657 62.9374 61.657C62.473 61.657 61.9313 61.657 61.467 61.7732V50.1457C60.2655 50.1457 59.0883 50.1068 57.9134 50.068H57.9133H57.9132H57.9131H57.913H57.9129H57.9128H57.9127H57.9126H57.9125H57.9124H57.9123C56.7418 50.0293 55.5737 49.9907 54.3863 49.9907C52.0067 49.9907 49.7432 49.9907 47.3249 50.1457V61.7732C47.0407 61.7732 46.7725 61.7412 46.5175 61.7108L46.5175 61.7108C46.2864 61.6832 46.0661 61.657 45.8546 61.657C45.4096 61.657 44.8486 61.657 44.3843 61.7732V38.7701C44.6096 38.7701 44.8395 38.7929 45.0761 38.8164C45.3271 38.8413 45.5857 38.867 45.8546 38.867C46.3769 38.867 46.7832 38.867 47.3249 38.7701V48.4597C48.551 48.4597 49.7621 48.4996 50.9558 48.5389H50.956H50.9561H50.9562H50.9564H50.9565H50.9566H50.9568H50.9569H50.957H50.9571H50.9573H50.9573H50.9574H50.9575H50.9575H50.9576H50.9576H50.9577H50.9578H50.9578H50.9579H50.9579C52.118 48.5771 53.2615 48.6147 54.3863 48.6147C56.6692 48.6147 59.0681 48.6147 61.467 48.4597V38.7701C61.6968 38.7701 61.9408 38.7938 62.1872 38.8178L62.1873 38.8178C62.4389 38.8423 62.6931 38.867 62.9374 38.867ZM73.8053 56.3277C73.8053 56.3277 82.4531 48.1109 84.9874 39.6422C85.1471 39.7616 85.3327 39.8413 85.5291 39.8747C82.8805 49.6147 73.9066 59.1974 71.8962 61.3442C71.6746 61.5808 71.5376 61.7271 71.5031 61.7732H70.4971V38.7701C70.9765 38.8486 71.4624 38.8811 71.948 38.867C72.1134 38.867 72.3617 38.8451 72.6224 38.8222L72.6225 38.8222C72.9107 38.7968 73.2142 38.7701 73.4377 38.7701V56.3277H73.8053ZM90.0359 38.7701L76.2227 58.9826L76.5322 59.2733L88.14 43.4017H88.4689V61.7732C88.6606 61.7732 88.9733 61.7416 89.2725 61.7114C89.5471 61.6836 89.8104 61.657 89.9585 61.657C90.2681 61.657 91.1387 61.657 91.4289 61.7732V38.7701H90.0359ZM126.207 65.4705L126.217 65.4372H126.159C126.175 65.4487 126.191 65.4598 126.207 65.4705ZM114.996 82.1033C114.996 82.1033 123.641 73.9274 126.207 65.4705C126.355 65.568 126.524 65.6297 126.701 65.6504C124.031 75.5966 114.717 85.3952 112.954 87.25C112.8 87.4118 112.704 87.5131 112.675 87.5489H111.669V64.5457C112.155 64.6248 112.647 64.6573 113.139 64.6426C113.279 64.6426 113.503 64.6227 113.747 64.601L113.748 64.6009L113.748 64.6009L113.749 64.6008L113.75 64.6008L113.75 64.6008L113.75 64.6007L113.75 64.6007C114.044 64.5745 114.367 64.5457 114.609 64.5457V82.1033H114.996ZM131.323 64.5457L117.51 84.7583L117.8 85.049L129.524 69.1968H129.853V87.5489C130.02 87.5489 130.316 87.5239 130.608 87.4994L130.608 87.4993L130.609 87.4993L130.609 87.4993C130.892 87.4755 131.171 87.452 131.323 87.452C131.633 87.452 132.484 87.452 132.813 87.5489V64.5457H131.323ZM106.399 52.5435C105.313 51.3506 104.228 50.1578 103.176 48.9442L105.904 46.1148L113.507 38.7701C113.042 38.867 112.694 38.867 112.21 38.867C111.961 38.867 111.722 38.8412 111.49 38.8162C111.273 38.7928 111.062 38.7701 110.856 38.7701L102.595 47.3163C102.488 47.4196 102.357 47.5487 102.214 47.6892L102.214 47.6893L102.214 47.6894L102.213 47.6897L102.213 47.6899C101.713 48.1818 101.071 48.8129 100.815 48.9636C100.487 49.1574 99.9642 49.3512 99.9642 49.1574V38.7701C99.4225 38.867 98.9582 38.867 98.4745 38.867C98.2277 38.867 97.9707 38.8418 97.7191 38.817L97.719 38.817C97.4778 38.7933 97.2414 38.7701 97.0236 38.7701V61.812C97.4685 61.6957 97.9909 61.6957 98.4745 61.6957C98.7095 61.6957 98.9399 61.7232 99.1768 61.7514L99.1769 61.7514C99.4276 61.7813 99.6857 61.812 99.9642 61.812V50.0876C99.9642 49.855 100.39 49.9713 100.506 50.0876L107.877 58.6726C108.709 59.6415 109.444 60.6686 110.198 61.7345C110.876 61.6182 111.456 61.6182 112.133 61.6182C112.474 61.6182 112.795 61.6477 113.114 61.677C113.429 61.7058 113.741 61.7345 114.068 61.7345V61.5795L111.34 58.1881C109.774 56.2538 108.086 54.3985 106.399 52.5435ZM124.92 42.6846L128.653 51.2696H121.244L124.92 42.6846ZM136.199 61.7732L126.216 38.2468H125.442L114.879 61.7732C115.263 61.7114 115.651 61.6725 116.04 61.6569C116.446 61.6569 116.833 61.6569 117.297 61.7732C118.036 59.1894 118.993 56.7594 119.938 54.3581L119.939 54.3561C120.156 53.8043 120.373 53.254 120.586 52.7037H129.156C130.472 55.7462 131.691 58.9825 132.677 61.7732C132.945 61.7732 133.208 61.7468 133.483 61.7191C133.786 61.6887 134.103 61.6569 134.457 61.6569C134.879 61.6569 135.195 61.6869 135.533 61.7189C135.738 61.7384 135.95 61.7585 136.199 61.7732ZM86.0253 87.2846C86.2807 87.3097 86.5463 87.3358 86.8276 87.3358V64.3327H66.7655V87.3358C67.2298 87.2389 67.7908 87.2389 68.2551 87.2389C68.4784 87.2389 68.7016 87.2613 68.9334 87.2846C69.1838 87.3097 69.4442 87.3358 69.7255 87.3358V66.0187C72.1244 65.9218 74.4847 65.9218 76.8256 65.9218C77.9888 65.9218 79.1426 65.9457 80.3034 65.9698C81.4785 65.9942 82.6608 66.0187 83.8676 66.0187V87.3358C84.3513 87.2389 84.8736 87.2389 85.3379 87.2389C85.5611 87.2389 85.7888 87.2613 86.0253 87.2846ZM95.8465 75.4748V65.6301C97.4509 65.5347 99.0594 65.5347 100.664 65.6301C101.213 65.6261 101.758 65.7395 102.26 65.9627C102.763 66.1859 103.212 66.5138 103.578 66.9245C103.944 67.3352 104.219 67.8194 104.383 68.3447C104.548 68.87 104.599 69.4244 104.533 69.9711C104.554 70.6913 104.429 71.4084 104.167 72.0792C103.904 72.75 103.509 73.3608 103.005 73.8748C102.501 74.3888 101.898 74.7955 101.233 75.0704C100.568 75.3454 99.8547 75.4829 99.1354 75.4748C98.0284 75.5721 96.9149 75.5721 95.8079 75.4748H95.8465ZM95.8079 87.3349V87.3335L95.8465 87.3349H95.8079ZM95.8079 87.3335V76.7732C97.3131 76.9243 98.8297 76.9243 100.335 76.7732C105.075 75.843 107.551 73.9826 107.551 69.9129C107.551 65.8433 105.384 64.4092 98.8646 64.4092H92.8866V87.3349C93.1119 87.3349 93.3509 87.312 93.5969 87.2885C93.8578 87.2636 94.1267 87.238 94.3956 87.238C94.6772 87.238 94.9082 87.2605 95.1523 87.2843C95.3507 87.3036 95.5579 87.3239 95.8079 87.3335ZM158.991 64.449H157.52V64.3327H156.031V74.0223C155.241 74.0418 154.447 74.0677 153.654 74.0937L153.653 74.0937C152.076 74.1452 150.501 74.1967 148.969 74.1967C147.83 74.1967 146.677 74.154 145.511 74.1109C144.322 74.0668 143.12 74.0223 141.908 74.0223V64.3327H140.418H138.948V87.3358C139.432 87.2389 139.973 87.2389 140.418 87.2389C140.63 87.2389 140.855 87.2608 141.09 87.2838C141.35 87.3092 141.624 87.3358 141.908 87.3358V75.7083C142.355 75.6938 142.8 75.6787 143.241 75.6637C145.168 75.598 147.049 75.5339 148.969 75.5339C150.15 75.5339 151.325 75.5775 152.5 75.6211L152.5 75.6211C153.676 75.6647 154.851 75.7083 156.031 75.7083V87.3358C156.514 87.2389 157.076 87.2389 157.52 87.2389C157.732 87.2389 157.952 87.2608 158.183 87.2838C158.438 87.3092 158.707 87.3358 158.991 87.3358V64.449ZM177.003 64.3327V65.3404V66.3481C176.008 66.1453 174.999 66.0158 173.985 65.9605H170.599H168.026V87.2777C167.537 87.2502 167.046 87.2502 166.556 87.2777C166.066 87.2477 165.575 87.2477 165.086 87.2777V64.3327H177.003ZM51.5986 71.4446C44.5759 74.584 46.0849 86.696 53.8234 86.5216V86.4053H55.2357C57.7118 86.1433 60.0647 85.1898 62.0262 83.6535L61.8715 85.7658C59.6336 87.116 57.0536 87.7891 54.4425 87.7037C47.0522 87.7037 42.6219 83.2853 42.6219 75.7274C42.6219 68.1695 48.213 63.8673 55.2744 63.8673C57.7603 63.8846 60.2162 64.4122 62.4905 65.4176C62.1819 66.2542 61.9488 67.1168 61.7941 67.9951H61.5619C60.7401 67.1059 59.7477 66.3919 58.6441 65.8958C57.5405 65.3996 56.3484 65.1316 55.1389 65.1075C48.9675 65.1075 45.6012 70.6306 45.3691 76.3475C45.0507 78.9549 45.6978 81.5887 47.1876 83.7504C45.3304 79.39 47.0135 72.6267 51.3858 70.4562C51.3809 70.7976 51.4536 71.1356 51.5986 71.4446Z" fill="white"/>
</svg>
