<svg width="140" height="139" viewBox="0 0 140 139" fill="none" xmlns="http://www.w3.org/2000/svg">
<path fill-rule="evenodd" clip-rule="evenodd" d="M70.0003 0.000608426C83.8449 0.000608426 97.3786 4.07672 108.89 11.7134C120.401 19.3502 129.373 30.2045 134.672 42.9039C139.97 55.6033 141.356 69.5774 138.655 83.059C135.954 96.5406 129.287 108.924 119.498 118.644C109.708 128.364 97.2352 134.983 83.6565 137.665C70.0779 140.346 56.0034 138.97 43.2126 133.71C30.4218 128.449 19.4893 119.541 11.7977 108.112C4.10601 96.6831 0.000612803 83.246 0.000612803 69.5003C-0.0379759 60.3627 1.74627 51.308 5.25042 42.8587C8.75457 34.4093 13.9092 26.7325 20.417 20.2712C26.9248 13.8099 34.6568 8.69203 43.167 5.21292C51.6771 1.7338 60.797 -0.0377047 70.0003 0.000608426Z" fill="white"/>
<path d="M17 34.6211V16.1478H35.4733V18.2168H19.2168V34.5103L17 34.6211ZM35.4733 122H17V103.527H19.069V119.82H35.4733V122ZM123 103.527V122H104.527V119.931H120.82V103.785L123 103.527ZM104.527 16H123V34.4733H120.931V18.3277H104.638L104.527 16Z" fill="#276657"/>
<path d="M104.513 34.3286H36.8752C35.3978 34.3286 33.9808 34.9152 32.9361 35.9593C31.8914 37.0034 31.3044 38.4196 31.3044 39.8962V83.7409C31.3205 85.2149 31.9021 86.6266 32.9293 87.6846C33.4464 88.2032 34.0616 88.6139 34.739 88.8926C35.4164 89.1714 36.1426 89.3128 36.8752 89.3084H104.513C105.24 89.3171 105.96 89.1776 106.631 88.8984C107.301 88.6192 107.908 88.2061 108.413 87.6846C108.932 87.1677 109.343 86.5529 109.622 85.8758C109.901 85.1988 110.042 84.473 110.038 83.7409V39.8962C110.038 38.4276 109.457 37.0184 108.422 35.9756C107.388 34.9328 105.983 34.3408 104.513 34.3286ZM36.8752 32.1016H104.513C105.535 32.1015 106.547 32.3035 107.491 32.6958C108.435 33.0881 109.291 33.663 110.012 34.3874C110.732 35.1118 111.302 35.9714 111.689 36.9168C112.076 37.8622 112.272 38.8748 112.266 39.8962V83.7409C112.272 84.7623 112.076 85.7748 111.689 86.7202C111.302 87.6656 110.732 88.5253 110.012 89.2497C109.291 89.9741 108.435 90.549 107.491 90.9412C106.547 91.3335 105.535 91.5355 104.513 91.5355H36.8752C34.8106 91.5233 32.8339 90.6982 31.3739 89.239C29.914 87.7799 29.0884 85.8044 29.0762 83.7409V39.8962C29.0884 37.8327 29.914 35.8572 31.3739 34.398C32.8339 32.9389 34.8106 32.1137 36.8752 32.1016Z" fill="#0F6058"/>
<path d="M79.1846 91.3137H62.1575V104.999H79.1846V91.3137ZM61.0223 89.0718H81.455V107.241H59.8872V89.0718H61.0223Z" fill="#0F6058"/>
<path d="M87.6173 105.393H53.7251V107.241H87.6173V105.393Z" fill="#0F6058"/>
<path d="M110.038 77.8688H31.119V83.8047C31.135 85.2667 31.7166 86.6667 32.7437 87.716C33.2608 88.2304 33.8761 88.6377 34.5535 88.9142C35.2309 89.1907 35.9571 89.3308 36.6897 89.3265H104.328C105.054 89.3351 105.774 89.1968 106.445 88.9198C107.115 88.6429 107.722 88.2333 108.227 87.716C108.746 87.2034 109.157 86.5936 109.436 85.9221C109.715 85.2507 109.856 84.5309 109.852 83.8047L110.038 77.8688ZM30.1905 75.66H112.266V83.8047C112.272 84.8177 112.076 85.8219 111.689 86.7596C111.302 87.6972 110.732 88.5498 110.012 89.2683C109.291 89.9867 108.435 90.5569 107.491 90.9459C106.547 91.335 105.535 91.5353 104.513 91.5353H36.8754C34.8201 91.5331 32.8497 90.7221 31.3975 89.2805C30.657 88.5709 30.0696 87.7197 29.6706 86.7785C29.2716 85.8373 29.0694 84.8256 29.0763 83.8047V75.522L30.1905 75.66Z" fill="#0F6058"/>
<path d="M40.4764 41.3398H38.0115V44.4193H40.4764V41.3398Z" fill="#0F6058"/>
<path d="M40.4764 47.1909H38.0115V62.2804H40.4764V47.1909Z" fill="#0F6058"/>
<path d="M84.3726 63.3599C88.6 61.3967 92.4454 58.6845 95.7269 55.3518C92.4454 52.019 88.6 49.3068 84.3726 47.3436C80.1085 45.3536 75.4676 44.3229 70.7707 44.3229C66.0738 44.3229 61.4329 45.3536 57.1688 47.3436C52.9348 49.2952 49.0874 52.0087 45.8145 55.3518C49.0874 58.6948 52.9348 61.4084 57.1688 63.3599C61.4329 65.35 66.0738 66.3806 70.7707 66.3806C75.4676 66.3806 80.1085 65.35 84.3726 63.3599ZM98.2758 56.1479C94.6414 60.0648 90.3 63.2439 85.4849 65.5141C80.9396 67.6441 75.9895 68.7475 70.9792 68.7475C65.969 68.7475 61.0189 67.6441 56.4736 65.5141C51.672 63.2206 47.3347 60.0445 43.6827 56.1479L42.9412 55.3518L43.6827 54.5556C47.3347 50.659 51.672 47.4829 56.4736 45.1894C61.0189 43.0594 65.969 41.9561 70.9792 41.9561C75.9895 41.9561 80.9396 43.0594 85.4849 45.1894C90.3 47.4597 94.6414 50.6388 98.2758 54.5556L99.0173 55.3518L98.2758 56.1479Z" fill="#0F6058"/>
<path d="M76.9566 49.0136C76.1326 48.1945 75.1512 47.5452 74.0697 47.1035C72.9882 46.6617 71.8282 46.4365 70.6573 46.4409C69.4936 46.4375 68.3408 46.6633 67.267 47.1052C66.1932 47.547 65.22 48.1959 64.4047 49.0136C63.5752 49.8173 62.9164 50.7755 62.4667 51.8324C62.017 52.8893 61.7854 54.0238 61.7854 55.1697C61.7854 56.3156 62.017 57.4501 62.4667 58.507C62.9164 59.5639 63.5752 60.5221 64.4047 61.3259C65.22 62.1436 66.1932 62.7924 67.267 63.2343C68.3408 63.6761 69.4936 63.902 70.6573 63.8986C72.41 63.9013 74.1242 63.3925 75.5833 62.4364C77.0423 61.4803 78.1809 60.1199 78.855 58.527C79.5291 56.9341 79.7085 55.1802 79.3706 53.4869C79.0327 51.7937 78.1927 50.237 76.9566 49.0136ZM70.6573 44.4194C72.1219 44.4194 73.572 44.7034 74.925 45.2552C76.2781 45.807 77.5074 46.6157 78.543 47.6353C80.6061 49.6906 81.7631 52.4638 81.7631 55.3535C81.7631 58.2431 80.6061 61.0163 78.543 63.0716C77.5114 64.0898 76.286 64.8977 74.9368 65.4489C73.5877 66 72.1413 66.2837 70.6806 66.2837C69.2199 66.2837 67.7736 66 66.4245 65.4489C65.0753 64.8977 63.8498 64.0898 62.8182 63.0716C61.2706 61.5426 60.2173 59.5967 59.791 57.4792C59.3647 55.3618 59.5847 53.1674 60.423 51.1728C61.2613 49.1781 62.6805 47.4724 64.5018 46.2706C66.323 45.0688 68.4649 44.4247 70.6573 44.4194Z" fill="#0F6058"/>
<path d="M74.2753 55.399C74.396 54.4465 74.1463 53.4841 73.5776 52.7094C72.9832 51.9503 72.116 51.4514 71.1593 51.3182C70.2035 51.188 69.2346 51.4379 68.4619 52.0138C68.0807 52.2931 67.7604 52.6468 67.5205 53.0534C67.2807 53.4599 67.1263 53.9109 67.0667 54.3788C66.9969 54.8509 67.0226 55.3321 67.1425 55.794C67.2623 56.256 67.4737 56.6893 67.7643 57.0684C68.341 57.8247 69.193 58.3245 70.1362 58.4596C70.6098 58.5318 71.093 58.5098 71.558 58.3948C72.023 58.2798 72.4606 58.074 72.8454 57.7895C73.2303 57.5049 73.5548 57.1472 73.8002 56.7369C74.0456 56.3266 74.2071 55.8719 74.2753 55.399ZM75.3449 51.3646C75.8129 51.9804 76.1527 52.6832 76.3444 53.4317C76.5361 54.1803 76.5758 54.9595 76.4611 55.7236C76.242 57.2533 75.4241 58.6342 74.1865 59.5641C72.9488 60.494 71.3921 60.8972 69.8571 60.6854C68.3226 60.4585 66.9377 59.6432 65.9971 58.4132C65.5291 57.7975 65.1893 57.0947 64.9976 56.3461C64.8059 55.5975 64.7662 54.8183 64.8809 54.0542C64.9813 53.2928 65.2349 52.5593 65.6265 51.8979C66.018 51.2366 66.5396 50.6608 67.1598 50.2053C68.3998 49.2841 69.9526 48.8845 71.4848 49.0924C73.0144 49.3331 74.3946 50.1456 75.3449 51.3646Z" fill="#0F6058"/>
</svg>
