<svg viewBox="0 0 16 16" fill="none" xmlns="http://www.w3.org/2000/svg">
<g clip-path="url(#clip0_1676_137126)">
<path fill-rule="evenodd" clip-rule="evenodd" d="M7.99935 14.6666C7.99935 14.6666 13.3327 10.6666 13.3327 6.66659C13.3327 5.2521 12.7708 3.89554 11.7706 2.89535C10.7704 1.89516 9.41384 1.33325 7.99935 1.33325C6.58486 1.33325 5.22831 1.89516 4.22811 2.89535C3.22792 3.89554 2.66602 5.2521 2.66602 6.66659C2.66602 10.6666 7.99935 14.6666 7.99935 14.6666ZM9.99935 6.66659C9.99935 7.77115 9.10392 8.66659 7.99935 8.66659C6.89478 8.66659 5.99935 7.77115 5.99935 6.66659C5.99935 5.56202 6.89478 4.66658 7.99935 4.66658C9.10392 4.66658 9.99935 5.56202 9.99935 6.66659Z" fill="#739C96"/>
</g>
<defs>
<clipPath id="clip0_1676_137126">
<rect width="16" height="16" fill="white"/>
</clipPath>
</defs>
</svg>
