<svg  viewBox="0 0 16 16" fill="none" xmlns="http://www.w3.org/2000/svg">
<path d="M12.6673 6.00008H12.0007V2.66675H5.33398V13.3334H14.6673V8.00008C14.6673 6.89341 13.774 6.00008 12.6673 6.00008ZM6.66732 4.00008H10.6673V6.00008H6.66732V4.00008ZM9.33398 11.3334H6.66732V8.00008H9.33398V11.3334ZM10.6673 11.3334C10.3007 11.3334 10.0007 11.0334 10.0007 10.6667C10.0007 10.3001 10.3007 10.0001 10.6673 10.0001C11.034 10.0001 11.334 10.3001 11.334 10.6667C11.334 11.0334 11.034 11.3334 10.6673 11.3334ZM10.6673 9.33341C10.3007 9.33341 10.0007 9.03341 10.0007 8.66675C10.0007 8.30008 10.3007 8.00008 10.6673 8.00008C11.034 8.00008 11.334 8.30008 11.334 8.66675C11.334 9.03341 11.034 9.33341 10.6673 9.33341ZM12.6673 11.3334C12.3007 11.3334 12.0007 11.0334 12.0007 10.6667C12.0007 10.3001 12.3007 10.0001 12.6673 10.0001C13.034 10.0001 13.334 10.3001 13.334 10.6667C13.334 11.0334 13.034 11.3334 12.6673 11.3334ZM12.6673 9.33341C12.3007 9.33341 12.0007 9.03341 12.0007 8.66675C12.0007 8.30008 12.3007 8.00008 12.6673 8.00008C13.034 8.00008 13.334 8.30008 13.334 8.66675C13.334 9.03341 13.034 9.33341 12.6673 9.33341ZM3.00065 5.33341C2.55862 5.33341 2.1347 5.50901 1.82214 5.82157C1.50958 6.13413 1.33398 6.55805 1.33398 7.00008V12.3334C1.33398 12.7754 1.50958 13.1994 1.82214 13.5119C2.1347 13.8245 2.55862 14.0001 3.00065 14.0001C3.44268 14.0001 3.8666 13.8245 4.17916 13.5119C4.49172 13.1994 4.66732 12.7754 4.66732 12.3334V7.00008C4.66732 6.78121 4.62421 6.56448 4.54045 6.36228C4.45669 6.16007 4.33393 5.97633 4.17916 5.82157C4.0244 5.66681 3.84067 5.54404 3.63846 5.46028C3.43625 5.37652 3.21952 5.33341 3.00065 5.33341Z" fill="#739C96"/>
</svg>
