<svg viewBox="0 0 16 19" fill="none" xmlns="http://www.w3.org/2000/svg">
<path d="M8.25 3.25C4.80375 3.25 2 6.05375 2 9.5C2 12.9462 4.80375 15.75 8.25 15.75C11.6962 15.75 14.5 12.9462 14.5 9.5C14.5 6.05375 11.6962 3.25 8.25 3.25ZM8.25 5.8125C8.4107 5.8125 8.56779 5.86015 8.7014 5.94943C8.83502 6.03871 8.93916 6.1656 9.00065 6.31407C9.06215 6.46253 9.07824 6.6259 9.04689 6.78351C9.01554 6.94112 8.93815 7.08589 8.82452 7.19952C8.71089 7.31315 8.56612 7.39054 8.40851 7.42189C8.2509 7.45324 8.08753 7.43715 7.93907 7.37565C7.7906 7.31416 7.66371 7.21002 7.57443 7.0764C7.48515 6.94279 7.4375 6.7857 7.4375 6.625C7.4375 6.40951 7.5231 6.20285 7.67548 6.05048C7.82785 5.8981 8.03451 5.8125 8.25 5.8125ZM9.75 12.875H7C6.86739 12.875 6.74021 12.8223 6.64645 12.7286C6.55268 12.6348 6.5 12.5076 6.5 12.375C6.5 12.2424 6.55268 12.1152 6.64645 12.0214C6.74021 11.9277 6.86739 11.875 7 11.875H7.875V9.125H7.375C7.24239 9.125 7.11521 9.07232 7.02145 8.97855C6.92768 8.88479 6.875 8.75761 6.875 8.625C6.875 8.49239 6.92768 8.36521 7.02145 8.27145C7.11521 8.17768 7.24239 8.125 7.375 8.125H8.375C8.50761 8.125 8.63479 8.17768 8.72855 8.27145C8.82232 8.36521 8.875 8.49239 8.875 8.625V11.875H9.75C9.88261 11.875 10.0098 11.9277 10.1036 12.0214C10.1973 12.1152 10.25 12.2424 10.25 12.375C10.25 12.5076 10.1973 12.6348 10.1036 12.7286C10.0098 12.8223 9.88261 12.875 9.75 12.875Z" fill="#739C96"/>
</svg>
