<svg viewBox="0 0 16 16" fill="none" xmlns="http://www.w3.org/2000/svg">
<path fill-rule="evenodd" clip-rule="evenodd" d="M13.334 2.66675H2.66732C1.93094 2.66675 1.33398 3.2637 1.33398 4.00008L7.31398 7.80008C7.5198 7.92903 7.75777 7.99742 8.00065 7.99742C8.24353 7.99742 8.4815 7.92903 8.68732 7.80008L14.6673 4.00008C14.6673 3.2637 14.0704 2.66675 13.334 2.66675ZM13.334 13.3334C14.0704 13.3334 14.6673 12.7365 14.6673 12.0001V4.66675L8.68732 8.46675C8.4815 8.5957 8.24353 8.66409 8.00065 8.66409C7.75777 8.66409 7.5198 8.5957 7.31398 8.46675L1.33398 4.66675V12.0001C1.33398 12.7365 1.93094 13.3334 2.66732 13.3334H13.334Z" fill="#739C96"/>
</svg>
