<svg viewBox="0 0 16 16" fill="none" xmlns="http://www.w3.org/2000/svg">
<path d="M10.9073 9.33325C10.9607 8.89325 11.0007 8.45325 11.0007 7.99992C11.0007 7.54658 10.9607 7.10658 10.9073 6.66658H13.1607C13.2673 7.09325 13.334 7.53992 13.334 7.99992C13.334 8.45992 13.2673 8.90658 13.1607 9.33325M9.72732 13.0399C10.1273 12.2999 10.434 11.4999 10.6473 10.6666H12.614C11.9681 11.7788 10.9434 12.6212 9.72732 13.0399ZM9.56065 9.33325H6.44065C6.37398 8.89325 6.33398 8.45325 6.33398 7.99992C6.33398 7.54658 6.37398 7.09992 6.44065 6.66658H9.56065C9.62065 7.09992 9.66732 7.54658 9.66732 7.99992C9.66732 8.45325 9.62065 8.89325 9.56065 9.33325ZM8.00065 13.3066C7.44732 12.5066 7.00065 11.6199 6.72732 10.6666H9.27398C9.00065 11.6199 8.55398 12.5066 8.00065 13.3066ZM5.33398 5.33325H3.38732C4.02655 4.21806 5.05051 3.37424 6.26732 2.95992C5.86732 3.69992 5.56732 4.49992 5.33398 5.33325ZM3.38732 10.6666H5.33398C5.56732 11.4999 5.86732 12.2999 6.26732 13.0399C5.05307 12.621 4.03055 11.7784 3.38732 10.6666ZM2.84065 9.33325C2.73398 8.90658 2.66732 8.45992 2.66732 7.99992C2.66732 7.53992 2.73398 7.09325 2.84065 6.66658H5.09398C5.04065 7.10658 5.00065 7.54658 5.00065 7.99992C5.00065 8.45325 5.04065 8.89325 5.09398 9.33325M8.00065 2.68659C8.55398 3.48659 9.00065 4.37992 9.27398 5.33325H6.72732C7.00065 4.37992 7.44732 3.48659 8.00065 2.68659ZM12.614 5.33325H10.6473C10.4387 4.50756 10.1297 3.71052 9.72732 2.95992C10.954 3.37992 11.974 4.22659 12.614 5.33325ZM8.00065 1.33325C4.31398 1.33325 1.33398 4.33325 1.33398 7.99992C1.33398 9.76803 2.03636 11.4637 3.28661 12.714C3.90566 13.333 4.64059 13.8241 5.44943 14.1591C6.25826 14.4941 7.12517 14.6666 8.00065 14.6666C9.76876 14.6666 11.4645 13.9642 12.7147 12.714C13.9649 11.4637 14.6673 9.76803 14.6673 7.99992C14.6673 7.12444 14.4949 6.25753 14.1598 5.4487C13.8248 4.63986 13.3338 3.90493 12.7147 3.28587C12.0956 2.66682 11.3607 2.17575 10.5519 1.84072C9.74304 1.50569 8.87613 1.33325 8.00065 1.33325Z" fill="#739C96"/>
</svg>
