<svg width="55" height="56" viewBox="0 0 55 56" fill="none" xmlns="http://www.w3.org/2000/svg">
<mask id="path-1-outside-1_12_372" maskUnits="userSpaceOnUse" x="-0.457031" y="-0.678711" width="55" height="57" fill="black">
<rect fill="white" x="-0.457031" y="-0.678711" width="55" height="57"/>
<path fill-rule="evenodd" clip-rule="evenodd" d="M39.8577 1.26582H14.8824V4.85505H39.8577V1.26582ZM14.4192 0.359064H40.7842V2.79608H54.2379V55.2366H0.542969V2.79608H1.122H14.0525V0.321289L14.4192 0.359064ZM40.7842 5.79958V3.70283H53.2342V54.3298H1.50801V3.70283H14.0525V5.79958H40.7842ZM17.7021 11.9392L20.0954 17.4553L20.2112 17.7197L26.5998 18.2676L21.7746 22.3668L23.2029 28.3741L17.7021 25.1438L12.2207 28.3741L13.6489 22.2724L8.82373 18.1542L15.2123 17.6064L17.7021 11.9392ZM20.8867 16.8508L18.1654 10.598L17.7407 9.61565L14.614 16.8508L6.60415 17.5308L12.6646 22.688L10.8696 30.3576L17.7407 26.2961L24.6311 30.3576L22.8168 22.688L28.8773 17.5308L20.8867 16.8508ZM36.8861 16.3782C36.8273 16.3225 36.7578 16.2788 36.6816 16.2496C36.6054 16.2204 36.524 16.2063 36.4422 16.2082C36.3635 16.2078 36.2855 16.2226 36.2126 16.2518C36.1397 16.2809 36.0735 16.3239 36.0176 16.3782C35.9133 16.4935 35.852 16.64 35.8439 16.7938C35.8476 16.9541 35.9092 17.108 36.0176 17.2283C36.1354 17.3304 36.2851 17.3903 36.4422 17.3983C36.5241 17.4009 36.6056 17.3871 36.6817 17.3576C36.7579 17.3282 36.827 17.2838 36.8849 17.2271C36.9428 17.1704 36.9882 17.1027 37.0183 17.0282C37.0484 16.9537 37.0625 16.8739 37.0598 16.7938C37.0517 16.64 36.9905 16.4935 36.8861 16.3782ZM36.4422 15.3014C36.8519 15.305 37.2449 15.4603 37.5424 15.7359C37.6838 15.875 37.7958 16.0401 37.872 16.2216C37.9482 16.4031 37.987 16.5976 37.9863 16.7938C37.9889 16.993 37.9507 17.1906 37.874 17.3751C37.7974 17.5596 37.6837 17.7272 37.5398 17.8681C37.3959 18.0089 37.2247 18.1201 37.0362 18.1952C36.8477 18.2702 36.6457 18.3076 36.4422 18.305C36.0381 18.3024 35.6507 18.1467 35.3614 17.8706C35.0797 17.5794 34.9211 17.1947 34.9174 16.7938C34.9167 16.5976 34.9556 16.4031 35.0318 16.2216C35.108 16.0401 35.2199 15.875 35.3614 15.7359C35.6597 15.4804 36.046 15.3454 36.4422 15.3581V15.3014ZM41.2478 16.2469C41.3212 16.2763 41.387 16.3211 41.4407 16.3782C41.5581 16.4867 41.6274 16.6359 41.6337 16.7938C41.6303 16.9578 41.561 17.114 41.4407 17.2283C41.3267 17.3362 41.1747 17.3971 41.0161 17.3983C40.8583 17.3935 40.7075 17.3331 40.5915 17.2283C40.5346 17.1707 40.4899 17.1027 40.4601 17.0281C40.4303 16.9535 40.4159 16.8739 40.4178 16.7938C40.4174 16.7167 40.4325 16.6404 40.4623 16.5691C40.4921 16.4977 40.536 16.4329 40.5915 16.3782C40.646 16.3221 40.712 16.278 40.7852 16.2487C40.8584 16.2194 40.9371 16.2056 41.0161 16.2082C41.0953 16.2043 41.1744 16.2175 41.2478 16.2469ZM41.6007 15.4133C41.4153 15.3388 41.2166 15.3007 41.0161 15.3014C40.6117 15.3014 40.2239 15.4587 39.938 15.7385C39.652 16.0184 39.4913 16.398 39.4913 16.7938C39.495 17.1947 39.6536 17.5794 39.9353 17.8706C40.2239 18.1475 40.6119 18.3026 41.0161 18.3026C41.4203 18.3026 41.8083 18.1475 42.097 17.8706C42.2433 17.7302 42.3596 17.5626 42.4392 17.3778C42.5187 17.1929 42.5598 16.9944 42.5602 16.7938C42.5617 16.5957 42.5213 16.3995 42.4416 16.2174C42.3619 16.0354 42.2445 15.8714 42.097 15.7359C41.9548 15.5975 41.7862 15.4879 41.6007 15.4133ZM40.2258 18.7397C41.8085 18.7397 43.4298 18.5508 45.1283 18.343C45.302 18.343 45.3985 18.343 45.4371 18.2108C45.4706 18.1364 45.4879 18.0559 45.4879 17.9746C45.4879 17.8933 45.4706 17.8129 45.4371 17.7385C45.3039 17.367 45.1153 17.0169 44.8773 16.6995C43.767 15.2772 42.2482 14.2117 40.5154 13.6392C40.4424 13.8963 40.3027 14.1306 40.11 14.3193C39.9711 14.4634 39.8036 14.5782 39.6177 14.6566C39.4319 14.7351 39.2316 14.7755 39.0292 14.7755C38.8268 14.7755 38.6265 14.7351 38.4407 14.6566C38.2548 14.5782 38.0873 14.4634 37.9484 14.3193C37.7315 14.1233 37.5829 13.8656 37.5237 13.5825C36.6375 13.7963 35.804 14.1817 35.0725 14.716C34.1246 15.4036 33.3355 16.279 32.7564 17.2851C32.6544 17.5079 32.583 17.7429 32.5441 17.9841C32.5301 18.0654 32.5301 18.1484 32.5441 18.2297H32.795C33.5615 18.3636 34.3346 18.4581 35.1111 18.513C35.5214 18.513 35.9371 18.5504 36.3583 18.5882L36.3584 18.5882C36.7297 18.6216 37.1053 18.6553 37.4851 18.6641C37.5622 18.6618 37.6387 18.6783 37.7076 18.7121C37.7765 18.746 37.8357 18.7961 37.8797 18.8581C37.9238 18.92 37.9514 18.9917 37.9601 19.0667C37.9687 19.1417 37.958 19.2176 37.929 19.2875C37.7993 19.6838 37.7663 20.1044 37.8326 20.5154C37.9333 21.236 38.1079 21.9448 38.3537 22.6312C38.4814 23.2015 38.5269 23.7865 38.4888 24.3691C38.4428 24.8958 38.3126 25.4122 38.1028 25.8993C37.9995 26.2532 38.041 26.6326 38.2186 26.9571C38.2873 27.0733 38.3972 27.1607 38.5274 27.2027C38.6777 27.2517 38.8402 27.2517 38.9906 27.2027C39.2213 27.149 39.4382 27.0491 39.6276 26.9093C39.8169 26.7695 39.9746 26.5928 40.0908 26.3904C40.3827 25.807 40.5536 25.1726 40.5933 24.5241C40.6331 23.8755 40.541 23.2257 40.3224 22.6123C40.0629 21.9489 39.8564 21.2668 39.7047 20.5721C39.5813 20.0716 39.5358 19.5558 39.5696 19.042C39.5899 18.9378 39.6442 18.8429 39.7242 18.7714C39.8042 18.6999 39.9057 18.6556 40.0135 18.6452L40.2258 18.7397ZM45.0318 19.1364C43.4684 19.3442 41.9629 19.4764 40.4768 19.5331C40.4768 19.7787 40.4768 20.062 40.5926 20.4021C40.7515 21.0434 40.9513 21.6743 41.1909 22.2911C41.4608 23.032 41.576 23.8185 41.5296 24.6037C41.4832 25.389 41.2761 26.1572 40.9207 26.8627C40.7292 27.1683 40.4766 27.4328 40.1781 27.6406C39.8796 27.8483 39.5414 27.995 39.1836 28.0717C38.868 28.1579 38.5342 28.1579 38.2186 28.0717C37.9116 27.9484 37.6494 27.7378 37.4658 27.4672C37.2987 27.1839 37.1935 26.8697 37.1569 26.5445C37.1204 26.2193 37.1533 25.8902 37.2535 25.5781C37.4326 25.1765 37.5434 24.749 37.5816 24.3124C37.6475 23.8297 37.6475 23.3406 37.5816 22.8579C37.3108 22.1169 37.1168 21.3511 37.0026 20.5721C36.9639 20.2079 36.9639 19.8407 37.0026 19.4764H37.0025C36.3656 19.4764 35.7287 19.4764 35.0725 19.3631C34.7238 19.3029 34.2988 19.2586 33.864 19.2134L33.864 19.2134L33.8639 19.2134L33.8638 19.2134C33.4805 19.1735 33.0898 19.1328 32.7371 19.0797C32.5585 19.0685 32.3827 19.0302 32.216 18.9664C31.9725 18.8781 31.7724 18.7026 31.6563 18.4752C31.5413 18.2538 31.4943 18.0044 31.5212 17.7574C31.5565 17.4057 31.6477 17.0615 31.7914 16.7373C32.4329 15.6096 33.315 14.6303 34.3777 13.8659C35.3755 13.1463 36.5327 12.6673 37.7553 12.468C37.8754 12.4517 37.9973 12.4821 38.0947 12.5528C38.1922 12.6234 38.2574 12.7286 38.2765 12.8458C38.2956 12.9009 38.2956 12.9607 38.2765 13.0158V13.1481C38.2777 13.3033 38.3399 13.4521 38.4502 13.5637C38.567 13.6814 38.7265 13.7492 38.8941 13.7526C39.0554 13.7463 39.2078 13.6785 39.3187 13.5637C39.377 13.5111 39.4228 13.4466 39.4529 13.3748C39.4829 13.303 39.4964 13.2256 39.4924 13.1481V13.0347C39.4784 12.9763 39.4769 12.9156 39.4881 12.8565C39.4993 12.7974 39.5228 12.7413 39.5573 12.6916C39.5917 12.6419 39.6364 12.5997 39.6883 12.5677C39.7403 12.5357 39.7984 12.5146 39.8591 12.5058C39.9285 12.4864 40.0021 12.4864 40.0714 12.5058C42.229 13.0624 44.1326 14.3133 45.4757 16.0572C45.7904 16.4471 46.0322 16.8884 46.1898 17.3607C46.2869 17.5547 46.3375 17.768 46.3375 17.9841C46.3375 18.2002 46.2869 18.4134 46.1898 18.6075C46.0779 18.7634 45.931 18.8921 45.7604 18.9838C45.5898 19.0755 45.3999 19.1277 45.2055 19.1364H45.0318ZM37.0795 45.2624H36.8673V45.319C36.6342 44.6614 36.2201 44.0796 35.6706 43.6378C35.018 43.1127 34.1993 42.8256 33.3545 42.8255C32.5593 42.8263 31.7858 43.0788 31.1492 43.5452C30.5127 44.0116 30.0473 44.667 29.8224 45.4135H24.1866C23.9691 44.7325 23.5532 44.1285 22.99 43.6755C22.3325 43.1285 21.4982 42.8273 20.6353 42.8255C19.8686 42.8083 19.1151 43.0219 18.4765 43.4375C17.8379 43.853 17.345 44.4505 17.0646 45.149H16.447C16.2488 43.4941 16.6818 41.8258 17.6629 40.4641C18.2481 39.859 18.9549 39.3788 19.7388 39.0538C20.5226 38.7287 21.3666 38.5657 22.2179 38.5751C22.5712 38.5751 22.9201 38.5729 23.2631 38.5708C23.9318 38.5666 24.5779 38.5626 25.1903 38.5751C25.6327 38.5841 26.062 38.619 26.4802 38.653L26.4803 38.653C26.9376 38.6901 27.3817 38.7262 27.8152 38.7262C28.2158 38.8091 28.5879 38.9912 28.896 39.2551C29.2207 39.5844 29.4706 39.9771 29.6295 40.4075C29.6644 40.6869 29.7712 40.9532 29.94 41.1811C30.1088 41.4091 30.334 41.5914 30.5945 41.7109C31.2207 41.9168 31.8984 41.9168 32.5246 41.7109C35.4969 41.3142 37.0795 42.1454 37.0795 44.1856C37.1173 44.4425 37.1173 44.7033 37.0795 44.9601C37.0998 45.0599 37.0998 45.1626 37.0795 45.2624ZM36.1338 46.2069H37.3884L37.8709 46.3958L38.006 46.1691C38.1503 45.9051 38.242 45.6166 38.2762 45.319C38.3143 44.9863 38.3143 44.6505 38.2762 44.3178C38.1604 41.6354 36.2882 40.5208 32.679 40.9931C32.2381 41.1212 31.7688 41.1212 31.3279 40.9931C31.2007 40.9216 31.0935 40.8203 31.0161 40.6983C30.9386 40.5763 30.8932 40.4375 30.884 40.2941C30.6776 39.7137 30.3337 39.1893 29.8803 38.764C29.4519 38.3808 28.9247 38.1195 28.3556 38.0084C27.545 37.8383 26.58 37.8383 25.615 37.8383H25.6149H22.5653C21.5809 37.8583 20.611 38.0747 19.715 38.4742C18.8189 38.8738 18.0156 39.448 17.3541 40.1619C16.169 41.8078 15.6781 43.8378 15.9838 45.8291V46.1691H16.3119H16.9102H17.7787H18.0624C18.0095 46.7414 18.1587 47.3144 18.4854 47.7924C18.8156 48.2756 19.3068 48.6317 19.8752 48.8001C20.4436 48.9686 21.0541 48.9389 21.6027 48.7161C22.1513 48.4933 22.604 48.0913 22.8836 47.5785C23.1633 47.0657 23.2526 46.4738 23.1364 45.9037C23.0201 45.3337 22.7055 44.8207 22.2462 44.4523C21.7877 44.0845 21.2134 43.8834 20.6207 43.883H20.6366C20.2961 43.8797 19.9585 43.9431 19.6436 44.0697C19.3286 44.1962 19.0428 44.3833 18.803 44.6197C18.7565 44.6653 18.712 44.7124 18.6694 44.761C18.8081 44.5835 18.9689 44.4218 19.1491 44.28C19.6376 43.9005 20.2431 43.6941 20.8669 43.6944C21.5138 43.6994 22.1398 43.9192 22.6425 44.3178C23.1401 44.7282 23.4748 45.2965 23.5883 45.9235V46.2825H30.7103V45.9235C30.8234 45.2971 31.1666 44.7327 31.6753 44.3367C32.0405 44.0407 32.4774 43.8418 32.944 43.7591C33.4105 43.6764 33.891 43.7127 34.339 43.8646C34.787 44.0165 35.1875 44.2788 35.5019 44.6261C35.8163 44.9735 36.0339 45.3943 36.1338 45.848V46.2069ZM21.7753 45.262C21.4673 44.9624 21.0515 44.7928 20.6172 44.7897C20.1825 44.7908 19.766 44.9606 19.4592 45.262C19.3041 45.4088 19.1813 45.585 19.0983 45.7799C19.0153 45.9749 18.9739 46.1843 18.9767 46.3955C18.9767 46.8213 19.1495 47.2297 19.4572 47.5309C19.7649 47.832 20.1821 48.0012 20.6172 48.0012C20.833 48.0038 21.047 47.9633 21.2461 47.8821C21.4453 47.8009 21.6253 47.6807 21.7753 47.5289C22.0832 47.2286 22.2568 46.8209 22.2578 46.3955C22.2547 45.9704 22.0814 45.5635 21.7753 45.262ZM33.9898 44.874C34.1887 44.9681 34.3663 45.1001 34.5124 45.2622V45.1866C34.8186 45.4881 34.9918 45.895 34.9949 46.3201C34.9939 46.7455 34.8203 47.1532 34.5124 47.4535C34.3625 47.6053 34.1824 47.7256 33.9833 47.8068C33.7841 47.888 33.5701 47.9285 33.3544 47.9258C32.9193 47.9258 32.502 47.7566 32.1943 47.4555C31.8866 47.1544 31.7138 46.7459 31.7138 46.3201C31.711 46.1089 31.7524 45.8995 31.8354 45.7046C31.9184 45.5097 32.0412 45.3334 32.1963 45.1866C32.5031 44.8853 32.9197 44.7154 33.3544 44.7144C33.5749 44.7257 33.791 44.78 33.9898 44.874ZM34.9833 44.3769C34.524 44.0084 33.9483 43.8072 33.3544 43.8076V43.8832C32.6843 43.8613 32.0324 44.0989 31.5401 44.5444C31.1203 44.9556 30.8593 45.4966 30.8013 46.0751C30.7434 46.6536 30.8923 47.2339 31.2225 47.717C31.5527 48.2002 32.0439 48.5563 32.6123 48.7248C33.1808 48.8932 33.7913 48.8635 34.3398 48.6407C34.8884 48.418 35.3411 48.0159 35.6207 47.5031C35.9004 46.9903 35.9897 46.3984 35.8735 45.8284C35.7573 45.2583 35.4427 44.7454 34.9833 44.3769Z"/>
</mask>
<path fill-rule="evenodd" clip-rule="evenodd" d="M39.8577 1.26582H14.8824V4.85505H39.8577V1.26582ZM14.4192 0.359064H40.7842V2.79608H54.2379V55.2366H0.542969V2.79608H1.122H14.0525V0.321289L14.4192 0.359064ZM40.7842 5.79958V3.70283H53.2342V54.3298H1.50801V3.70283H14.0525V5.79958H40.7842ZM17.7021 11.9392L20.0954 17.4553L20.2112 17.7197L26.5998 18.2676L21.7746 22.3668L23.2029 28.3741L17.7021 25.1438L12.2207 28.3741L13.6489 22.2724L8.82373 18.1542L15.2123 17.6064L17.7021 11.9392ZM20.8867 16.8508L18.1654 10.598L17.7407 9.61565L14.614 16.8508L6.60415 17.5308L12.6646 22.688L10.8696 30.3576L17.7407 26.2961L24.6311 30.3576L22.8168 22.688L28.8773 17.5308L20.8867 16.8508ZM36.8861 16.3782C36.8273 16.3225 36.7578 16.2788 36.6816 16.2496C36.6054 16.2204 36.524 16.2063 36.4422 16.2082C36.3635 16.2078 36.2855 16.2226 36.2126 16.2518C36.1397 16.2809 36.0735 16.3239 36.0176 16.3782C35.9133 16.4935 35.852 16.64 35.8439 16.7938C35.8476 16.9541 35.9092 17.108 36.0176 17.2283C36.1354 17.3304 36.2851 17.3903 36.4422 17.3983C36.5241 17.4009 36.6056 17.3871 36.6817 17.3576C36.7579 17.3282 36.827 17.2838 36.8849 17.2271C36.9428 17.1704 36.9882 17.1027 37.0183 17.0282C37.0484 16.9537 37.0625 16.8739 37.0598 16.7938C37.0517 16.64 36.9905 16.4935 36.8861 16.3782ZM36.4422 15.3014C36.8519 15.305 37.2449 15.4603 37.5424 15.7359C37.6838 15.875 37.7958 16.0401 37.872 16.2216C37.9482 16.4031 37.987 16.5976 37.9863 16.7938C37.9889 16.993 37.9507 17.1906 37.874 17.3751C37.7974 17.5596 37.6837 17.7272 37.5398 17.8681C37.3959 18.0089 37.2247 18.1201 37.0362 18.1952C36.8477 18.2702 36.6457 18.3076 36.4422 18.305C36.0381 18.3024 35.6507 18.1467 35.3614 17.8706C35.0797 17.5794 34.9211 17.1947 34.9174 16.7938C34.9167 16.5976 34.9556 16.4031 35.0318 16.2216C35.108 16.0401 35.2199 15.875 35.3614 15.7359C35.6597 15.4804 36.046 15.3454 36.4422 15.3581V15.3014ZM41.2478 16.2469C41.3212 16.2763 41.387 16.3211 41.4407 16.3782C41.5581 16.4867 41.6274 16.6359 41.6337 16.7938C41.6303 16.9578 41.561 17.114 41.4407 17.2283C41.3267 17.3362 41.1747 17.3971 41.0161 17.3983C40.8583 17.3935 40.7075 17.3331 40.5915 17.2283C40.5346 17.1707 40.4899 17.1027 40.4601 17.0281C40.4303 16.9535 40.4159 16.8739 40.4178 16.7938C40.4174 16.7167 40.4325 16.6404 40.4623 16.5691C40.4921 16.4977 40.536 16.4329 40.5915 16.3782C40.646 16.3221 40.712 16.278 40.7852 16.2487C40.8584 16.2194 40.9371 16.2056 41.0161 16.2082C41.0953 16.2043 41.1744 16.2175 41.2478 16.2469ZM41.6007 15.4133C41.4153 15.3388 41.2166 15.3007 41.0161 15.3014C40.6117 15.3014 40.2239 15.4587 39.938 15.7385C39.652 16.0184 39.4913 16.398 39.4913 16.7938C39.495 17.1947 39.6536 17.5794 39.9353 17.8706C40.2239 18.1475 40.6119 18.3026 41.0161 18.3026C41.4203 18.3026 41.8083 18.1475 42.097 17.8706C42.2433 17.7302 42.3596 17.5626 42.4392 17.3778C42.5187 17.1929 42.5598 16.9944 42.5602 16.7938C42.5617 16.5957 42.5213 16.3995 42.4416 16.2174C42.3619 16.0354 42.2445 15.8714 42.097 15.7359C41.9548 15.5975 41.7862 15.4879 41.6007 15.4133ZM40.2258 18.7397C41.8085 18.7397 43.4298 18.5508 45.1283 18.343C45.302 18.343 45.3985 18.343 45.4371 18.2108C45.4706 18.1364 45.4879 18.0559 45.4879 17.9746C45.4879 17.8933 45.4706 17.8129 45.4371 17.7385C45.3039 17.367 45.1153 17.0169 44.8773 16.6995C43.767 15.2772 42.2482 14.2117 40.5154 13.6392C40.4424 13.8963 40.3027 14.1306 40.11 14.3193C39.9711 14.4634 39.8036 14.5782 39.6177 14.6566C39.4319 14.7351 39.2316 14.7755 39.0292 14.7755C38.8268 14.7755 38.6265 14.7351 38.4407 14.6566C38.2548 14.5782 38.0873 14.4634 37.9484 14.3193C37.7315 14.1233 37.5829 13.8656 37.5237 13.5825C36.6375 13.7963 35.804 14.1817 35.0725 14.716C34.1246 15.4036 33.3355 16.279 32.7564 17.2851C32.6544 17.5079 32.583 17.7429 32.5441 17.9841C32.5301 18.0654 32.5301 18.1484 32.5441 18.2297H32.795C33.5615 18.3636 34.3346 18.4581 35.1111 18.513C35.5214 18.513 35.9371 18.5504 36.3583 18.5882L36.3584 18.5882C36.7297 18.6216 37.1053 18.6553 37.4851 18.6641C37.5622 18.6618 37.6387 18.6783 37.7076 18.7121C37.7765 18.746 37.8357 18.7961 37.8797 18.8581C37.9238 18.92 37.9514 18.9917 37.9601 19.0667C37.9687 19.1417 37.958 19.2176 37.929 19.2875C37.7993 19.6838 37.7663 20.1044 37.8326 20.5154C37.9333 21.236 38.1079 21.9448 38.3537 22.6312C38.4814 23.2015 38.5269 23.7865 38.4888 24.3691C38.4428 24.8958 38.3126 25.4122 38.1028 25.8993C37.9995 26.2532 38.041 26.6326 38.2186 26.9571C38.2873 27.0733 38.3972 27.1607 38.5274 27.2027C38.6777 27.2517 38.8402 27.2517 38.9906 27.2027C39.2213 27.149 39.4382 27.0491 39.6276 26.9093C39.8169 26.7695 39.9746 26.5928 40.0908 26.3904C40.3827 25.807 40.5536 25.1726 40.5933 24.5241C40.6331 23.8755 40.541 23.2257 40.3224 22.6123C40.0629 21.9489 39.8564 21.2668 39.7047 20.5721C39.5813 20.0716 39.5358 19.5558 39.5696 19.042C39.5899 18.9378 39.6442 18.8429 39.7242 18.7714C39.8042 18.6999 39.9057 18.6556 40.0135 18.6452L40.2258 18.7397ZM45.0318 19.1364C43.4684 19.3442 41.9629 19.4764 40.4768 19.5331C40.4768 19.7787 40.4768 20.062 40.5926 20.4021C40.7515 21.0434 40.9513 21.6743 41.1909 22.2911C41.4608 23.032 41.576 23.8185 41.5296 24.6037C41.4832 25.389 41.2761 26.1572 40.9207 26.8627C40.7292 27.1683 40.4766 27.4328 40.1781 27.6406C39.8796 27.8483 39.5414 27.995 39.1836 28.0717C38.868 28.1579 38.5342 28.1579 38.2186 28.0717C37.9116 27.9484 37.6494 27.7378 37.4658 27.4672C37.2987 27.1839 37.1935 26.8697 37.1569 26.5445C37.1204 26.2193 37.1533 25.8902 37.2535 25.5781C37.4326 25.1765 37.5434 24.749 37.5816 24.3124C37.6475 23.8297 37.6475 23.3406 37.5816 22.8579C37.3108 22.1169 37.1168 21.3511 37.0026 20.5721C36.9639 20.2079 36.9639 19.8407 37.0026 19.4764H37.0025C36.3656 19.4764 35.7287 19.4764 35.0725 19.3631C34.7238 19.3029 34.2988 19.2586 33.864 19.2134L33.864 19.2134L33.8639 19.2134L33.8638 19.2134C33.4805 19.1735 33.0898 19.1328 32.7371 19.0797C32.5585 19.0685 32.3827 19.0302 32.216 18.9664C31.9725 18.8781 31.7724 18.7026 31.6563 18.4752C31.5413 18.2538 31.4943 18.0044 31.5212 17.7574C31.5565 17.4057 31.6477 17.0615 31.7914 16.7373C32.4329 15.6096 33.315 14.6303 34.3777 13.8659C35.3755 13.1463 36.5327 12.6673 37.7553 12.468C37.8754 12.4517 37.9973 12.4821 38.0947 12.5528C38.1922 12.6234 38.2574 12.7286 38.2765 12.8458C38.2956 12.9009 38.2956 12.9607 38.2765 13.0158V13.1481C38.2777 13.3033 38.3399 13.4521 38.4502 13.5637C38.567 13.6814 38.7265 13.7492 38.8941 13.7526C39.0554 13.7463 39.2078 13.6785 39.3187 13.5637C39.377 13.5111 39.4228 13.4466 39.4529 13.3748C39.4829 13.303 39.4964 13.2256 39.4924 13.1481V13.0347C39.4784 12.9763 39.4769 12.9156 39.4881 12.8565C39.4993 12.7974 39.5228 12.7413 39.5573 12.6916C39.5917 12.6419 39.6364 12.5997 39.6883 12.5677C39.7403 12.5357 39.7984 12.5146 39.8591 12.5058C39.9285 12.4864 40.0021 12.4864 40.0714 12.5058C42.229 13.0624 44.1326 14.3133 45.4757 16.0572C45.7904 16.4471 46.0322 16.8884 46.1898 17.3607C46.2869 17.5547 46.3375 17.768 46.3375 17.9841C46.3375 18.2002 46.2869 18.4134 46.1898 18.6075C46.0779 18.7634 45.931 18.8921 45.7604 18.9838C45.5898 19.0755 45.3999 19.1277 45.2055 19.1364H45.0318ZM37.0795 45.2624H36.8673V45.319C36.6342 44.6614 36.2201 44.0796 35.6706 43.6378C35.018 43.1127 34.1993 42.8256 33.3545 42.8255C32.5593 42.8263 31.7858 43.0788 31.1492 43.5452C30.5127 44.0116 30.0473 44.667 29.8224 45.4135H24.1866C23.9691 44.7325 23.5532 44.1285 22.99 43.6755C22.3325 43.1285 21.4982 42.8273 20.6353 42.8255C19.8686 42.8083 19.1151 43.0219 18.4765 43.4375C17.8379 43.853 17.345 44.4505 17.0646 45.149H16.447C16.2488 43.4941 16.6818 41.8258 17.6629 40.4641C18.2481 39.859 18.9549 39.3788 19.7388 39.0538C20.5226 38.7287 21.3666 38.5657 22.2179 38.5751C22.5712 38.5751 22.9201 38.5729 23.2631 38.5708C23.9318 38.5666 24.5779 38.5626 25.1903 38.5751C25.6327 38.5841 26.062 38.619 26.4802 38.653L26.4803 38.653C26.9376 38.6901 27.3817 38.7262 27.8152 38.7262C28.2158 38.8091 28.5879 38.9912 28.896 39.2551C29.2207 39.5844 29.4706 39.9771 29.6295 40.4075C29.6644 40.6869 29.7712 40.9532 29.94 41.1811C30.1088 41.4091 30.334 41.5914 30.5945 41.7109C31.2207 41.9168 31.8984 41.9168 32.5246 41.7109C35.4969 41.3142 37.0795 42.1454 37.0795 44.1856C37.1173 44.4425 37.1173 44.7033 37.0795 44.9601C37.0998 45.0599 37.0998 45.1626 37.0795 45.2624ZM36.1338 46.2069H37.3884L37.8709 46.3958L38.006 46.1691C38.1503 45.9051 38.242 45.6166 38.2762 45.319C38.3143 44.9863 38.3143 44.6505 38.2762 44.3178C38.1604 41.6354 36.2882 40.5208 32.679 40.9931C32.2381 41.1212 31.7688 41.1212 31.3279 40.9931C31.2007 40.9216 31.0935 40.8203 31.0161 40.6983C30.9386 40.5763 30.8932 40.4375 30.884 40.2941C30.6776 39.7137 30.3337 39.1893 29.8803 38.764C29.4519 38.3808 28.9247 38.1195 28.3556 38.0084C27.545 37.8383 26.58 37.8383 25.615 37.8383H25.6149H22.5653C21.5809 37.8583 20.611 38.0747 19.715 38.4742C18.8189 38.8738 18.0156 39.448 17.3541 40.1619C16.169 41.8078 15.6781 43.8378 15.9838 45.8291V46.1691H16.3119H16.9102H17.7787H18.0624C18.0095 46.7414 18.1587 47.3144 18.4854 47.7924C18.8156 48.2756 19.3068 48.6317 19.8752 48.8001C20.4436 48.9686 21.0541 48.9389 21.6027 48.7161C22.1513 48.4933 22.604 48.0913 22.8836 47.5785C23.1633 47.0657 23.2526 46.4738 23.1364 45.9037C23.0201 45.3337 22.7055 44.8207 22.2462 44.4523C21.7877 44.0845 21.2134 43.8834 20.6207 43.883H20.6366C20.2961 43.8797 19.9585 43.9431 19.6436 44.0697C19.3286 44.1962 19.0428 44.3833 18.803 44.6197C18.7565 44.6653 18.712 44.7124 18.6694 44.761C18.8081 44.5835 18.9689 44.4218 19.1491 44.28C19.6376 43.9005 20.2431 43.6941 20.8669 43.6944C21.5138 43.6994 22.1398 43.9192 22.6425 44.3178C23.1401 44.7282 23.4748 45.2965 23.5883 45.9235V46.2825H30.7103V45.9235C30.8234 45.2971 31.1666 44.7327 31.6753 44.3367C32.0405 44.0407 32.4774 43.8418 32.944 43.7591C33.4105 43.6764 33.891 43.7127 34.339 43.8646C34.787 44.0165 35.1875 44.2788 35.5019 44.6261C35.8163 44.9735 36.0339 45.3943 36.1338 45.848V46.2069ZM21.7753 45.262C21.4673 44.9624 21.0515 44.7928 20.6172 44.7897C20.1825 44.7908 19.766 44.9606 19.4592 45.262C19.3041 45.4088 19.1813 45.585 19.0983 45.7799C19.0153 45.9749 18.9739 46.1843 18.9767 46.3955C18.9767 46.8213 19.1495 47.2297 19.4572 47.5309C19.7649 47.832 20.1821 48.0012 20.6172 48.0012C20.833 48.0038 21.047 47.9633 21.2461 47.8821C21.4453 47.8009 21.6253 47.6807 21.7753 47.5289C22.0832 47.2286 22.2568 46.8209 22.2578 46.3955C22.2547 45.9704 22.0814 45.5635 21.7753 45.262ZM33.9898 44.874C34.1887 44.9681 34.3663 45.1001 34.5124 45.2622V45.1866C34.8186 45.4881 34.9918 45.895 34.9949 46.3201C34.9939 46.7455 34.8203 47.1532 34.5124 47.4535C34.3625 47.6053 34.1824 47.7256 33.9833 47.8068C33.7841 47.888 33.5701 47.9285 33.3544 47.9258C32.9193 47.9258 32.502 47.7566 32.1943 47.4555C31.8866 47.1544 31.7138 46.7459 31.7138 46.3201C31.711 46.1089 31.7524 45.8995 31.8354 45.7046C31.9184 45.5097 32.0412 45.3334 32.1963 45.1866C32.5031 44.8853 32.9197 44.7154 33.3544 44.7144C33.5749 44.7257 33.791 44.78 33.9898 44.874ZM34.9833 44.3769C34.524 44.0084 33.9483 43.8072 33.3544 43.8076V43.8832C32.6843 43.8613 32.0324 44.0989 31.5401 44.5444C31.1203 44.9556 30.8593 45.4966 30.8013 46.0751C30.7434 46.6536 30.8923 47.2339 31.2225 47.717C31.5527 48.2002 32.0439 48.5563 32.6123 48.7248C33.1808 48.8932 33.7913 48.8635 34.3398 48.6407C34.8884 48.418 35.3411 48.0159 35.6207 47.5031C35.9004 46.9903 35.9897 46.3984 35.8735 45.8284C35.7573 45.2583 35.4427 44.7454 34.9833 44.3769Z" fill="white"/>
<path d="M14.8824 1.26582V1.06582H14.6824V1.26582H14.8824ZM39.8577 1.26582H40.0577V1.06582H39.8577V1.26582ZM14.8824 4.85505H14.6824V5.05505H14.8824V4.85505ZM39.8577 4.85505V5.05505H40.0577V4.85505H39.8577ZM40.7842 0.359064H40.9842V0.159064H40.7842V0.359064ZM14.4192 0.359064L14.3987 0.558011L14.409 0.559064H14.4192V0.359064ZM40.7842 2.79608H40.5842V2.99608H40.7842V2.79608ZM54.2379 2.79608H54.4379V2.59608H54.2379V2.79608ZM54.2379 55.2366V55.4366H54.4379V55.2366H54.2379ZM0.542969 55.2366H0.342969V55.4366H0.542969V55.2366ZM0.542969 2.79608V2.59608H0.342969V2.79608H0.542969ZM14.0525 2.79608V2.99608H14.2525V2.79608H14.0525ZM14.0525 0.321289L14.073 0.122342L13.8525 0.0996293V0.321289H14.0525ZM40.7842 3.70283V3.50283H40.5842V3.70283H40.7842ZM40.7842 5.79958V5.99958H40.9842V5.79958H40.7842ZM53.2342 3.70283H53.4342V3.50283H53.2342V3.70283ZM53.2342 54.3298V54.5298H53.4342V54.3298H53.2342ZM1.50801 54.3298H1.30801V54.5298H1.50801V54.3298ZM1.50801 3.70283V3.50283H1.30801V3.70283H1.50801ZM14.0525 3.70283H14.2525V3.50283H14.0525V3.70283ZM14.0525 5.79958H13.8525V5.99958H14.0525V5.79958ZM20.0954 17.4553L19.912 17.5349L19.9122 17.5355L20.0954 17.4553ZM17.7021 11.9392L17.8856 11.8596L17.7033 11.4394L17.519 11.8588L17.7021 11.9392ZM20.2112 17.7197L20.028 17.8L20.0757 17.9089L20.1941 17.919L20.2112 17.7197ZM26.5998 18.2676L26.7293 18.42L27.095 18.1093L26.6169 18.0683L26.5998 18.2676ZM21.7746 22.3668L21.6451 22.2144L21.5517 22.2938L21.58 22.4131L21.7746 22.3668ZM23.2029 28.3741L23.1016 28.5465L23.5059 28.784L23.3974 28.3278L23.2029 28.3741ZM17.7021 25.1438L17.8034 24.9713L17.7019 24.9117L17.6006 24.9715L17.7021 25.1438ZM12.2207 28.3741L12.026 28.3285L11.9194 28.7838L12.3222 28.5464L12.2207 28.3741ZM13.6489 22.2724L13.8437 22.318L13.8714 22.1994L13.7788 22.1203L13.6489 22.2724ZM8.82373 18.1542L8.80664 17.955L8.33005 17.9958L8.69389 18.3064L8.82373 18.1542ZM15.2123 17.6064L15.2294 17.8057L15.3477 17.7955L15.3954 17.6868L15.2123 17.6064ZM18.1654 10.598L17.9818 10.6773L17.982 10.6778L18.1654 10.598ZM20.8867 16.8508L20.7034 16.9306L20.751 17.0399L20.8698 17.0501L20.8867 16.8508ZM17.7407 9.61565L17.9243 9.53629L17.7407 9.11154L17.5571 9.53631L17.7407 9.61565ZM14.614 16.8508L14.6309 17.0501L14.7501 17.0399L14.7976 16.9301L14.614 16.8508ZM6.60415 17.5308L6.58723 17.3316L6.10906 17.3722L6.47453 17.6832L6.60415 17.5308ZM12.6646 22.688L12.8593 22.7336L12.8871 22.6147L12.7942 22.5357L12.6646 22.688ZM10.8696 30.3576L10.6749 30.312L10.5682 30.7681L10.9714 30.5298L10.8696 30.3576ZM17.7407 26.2961L17.8423 26.1238L17.7406 26.0639L17.639 26.1239L17.7407 26.2961ZM24.6311 30.3576L24.5296 30.5299L24.9337 30.7681L24.8257 30.3116L24.6311 30.3576ZM22.8168 22.688L22.6872 22.5357L22.594 22.615L22.6222 22.734L22.8168 22.688ZM28.8773 17.5308L29.0069 17.6832L29.3723 17.3722L28.8942 17.3316L28.8773 17.5308ZM36.6816 16.2496L36.7531 16.0628L36.7531 16.0628L36.6816 16.2496ZM36.8861 16.3782L37.0344 16.244L37.0293 16.2383L37.0237 16.233L36.8861 16.3782ZM36.4422 16.2082L36.4412 16.4083L36.4468 16.4081L36.4422 16.2082ZM36.0176 16.3782L35.878 16.2345L35.8693 16.244L36.0176 16.3782ZM35.8439 16.7938L35.6442 16.7832L35.6438 16.7908L35.6439 16.7985L35.8439 16.7938ZM36.0176 17.2283L35.8691 17.3622L35.8773 17.3713L35.8866 17.3794L36.0176 17.2283ZM36.4422 17.3983L36.4321 17.5981L36.4358 17.5982L36.4422 17.3983ZM36.6817 17.3576L36.7539 17.5442L36.7539 17.5442L36.6817 17.3576ZM37.0183 17.0282L36.8329 16.9533L36.8329 16.9533L37.0183 17.0282ZM37.0598 16.7938L37.2598 16.7871L37.2596 16.7832L37.0598 16.7938ZM37.5424 15.7359L37.6827 15.5933L37.6783 15.5892L37.5424 15.7359ZM36.4422 15.3014L36.444 15.1014L36.2422 15.0997V15.3014H36.4422ZM37.872 16.2216L38.0564 16.1442L38.0564 16.1442L37.872 16.2216ZM37.9863 16.7938L37.7862 16.7931L37.7863 16.7964L37.9863 16.7938ZM37.5398 17.8681L37.6797 18.011L37.6797 18.011L37.5398 17.8681ZM37.0362 18.1952L36.9622 18.0094L36.9622 18.0094L37.0362 18.1952ZM36.4422 18.305L36.4447 18.105L36.4435 18.105L36.4422 18.305ZM35.3614 17.8706L35.2175 18.0097L35.2233 18.0153L35.3614 17.8706ZM34.9174 16.7938L34.7174 16.7945L34.7175 16.7956L34.9174 16.7938ZM35.0318 16.2216L35.2162 16.299L35.2162 16.299L35.0318 16.2216ZM35.3614 15.7359L35.231 15.5837L35.2211 15.5933L35.3614 15.7359ZM36.4422 15.3581L36.4358 15.558L36.6422 15.5646V15.3581H36.4422ZM41.4407 16.3782L41.2947 16.5156L41.305 16.5251L41.4407 16.3782ZM41.2478 16.2469L41.3221 16.0612L41.3221 16.0612L41.2478 16.2469ZM41.6337 16.7938L41.8341 16.798L41.8336 16.7857L41.6337 16.7938ZM41.4407 17.2283L41.5782 17.3735L41.5785 17.3732L41.4407 17.2283ZM41.0161 17.3983L41.01 17.5984L41.0176 17.5983L41.0161 17.3983ZM40.5915 17.2283L40.4491 17.3691L40.4574 17.3767L40.5915 17.2283ZM40.4601 17.0281L40.6458 16.9539L40.6458 16.9539L40.4601 17.0281ZM40.4178 16.7938L40.6178 16.7985L40.6178 16.7928L40.4178 16.7938ZM40.5915 16.3782L40.7319 16.5207L40.7349 16.5176L40.5915 16.3782ZM40.7852 16.2487L40.7108 16.063L40.7108 16.063L40.7852 16.2487ZM41.0161 16.2082L41.0095 16.4081L41.0177 16.4084L41.0259 16.408L41.0161 16.2082ZM41.0161 15.3014V15.5014L41.0168 15.5014L41.0161 15.3014ZM41.6007 15.4133L41.6753 15.2278L41.6753 15.2278L41.6007 15.4133ZM39.938 15.7385L39.7981 15.5956L39.7981 15.5956L39.938 15.7385ZM39.4913 16.7938L39.2913 16.7938L39.2913 16.7956L39.4913 16.7938ZM39.9353 17.8706L39.7914 18.0097L39.7968 18.0149L39.9353 17.8706ZM42.097 17.8706L42.2354 18.0149L42.2354 18.0149L42.097 17.8706ZM42.4392 17.3778L42.6229 17.4568L42.6229 17.4568L42.4392 17.3778ZM42.5602 16.7938L42.3602 16.7923L42.3602 16.7935L42.5602 16.7938ZM42.4416 16.2174L42.6248 16.1372L42.6248 16.1372L42.4416 16.2174ZM42.097 15.7359L41.9574 15.8793L41.9617 15.8832L42.097 15.7359ZM45.1283 18.343V18.143H45.1161L45.104 18.1445L45.1283 18.343ZM40.2258 18.7397L40.1445 18.9224L40.1834 18.9397H40.2258V18.7397ZM45.4371 18.2108L45.2547 18.1287L45.249 18.1414L45.2451 18.1547L45.4371 18.2108ZM45.4371 17.7385L45.2488 17.806L45.2514 17.8134L45.2547 17.8206L45.4371 17.7385ZM44.8773 16.6995L45.0374 16.5795L45.035 16.5764L44.8773 16.6995ZM40.5154 13.6392L40.5781 13.4493L40.38 13.3839L40.323 13.5846L40.5154 13.6392ZM40.11 14.3193L39.97 14.1764L39.9661 14.1805L40.11 14.3193ZM37.9484 14.3193L38.0927 14.1801L38.0824 14.1709L37.9484 14.3193ZM37.5237 13.5825L37.7195 13.5416L37.6773 13.3398L37.4768 13.3881L37.5237 13.5825ZM35.0725 14.716L35.19 14.8779L35.1905 14.8775L35.0725 14.716ZM32.7564 17.2851L32.5831 17.1854L32.5785 17.1934L32.5746 17.2018L32.7564 17.2851ZM32.5441 17.9841L32.7412 18.0181L32.7416 18.0159L32.5441 17.9841ZM32.5441 18.2297L32.347 18.2637L32.3757 18.4297H32.5441V18.2297ZM32.795 18.2297L32.8295 18.0326L32.8124 18.0297H32.795V18.2297ZM35.1111 18.513L35.097 18.713H35.1111V18.513ZM36.3583 18.5882L36.3782 18.3892L36.3762 18.389L36.3583 18.5882ZM36.3584 18.5882L36.3385 18.7872L36.3405 18.7874L36.3584 18.5882ZM37.4851 18.6641L37.4805 18.8644L37.4913 18.864L37.4851 18.6641ZM37.7076 18.7121L37.6194 18.8916L37.6194 18.8916L37.7076 18.7121ZM37.8797 18.8581L38.0427 18.7421L38.0427 18.742L37.8797 18.8581ZM37.9601 19.0667L38.1587 19.0439L38.1587 19.0439L37.9601 19.0667ZM37.929 19.2875L37.7442 19.211L37.7413 19.2181L37.739 19.2253L37.929 19.2875ZM37.8326 20.5154L38.0307 20.4877L38.03 20.4836L37.8326 20.5154ZM38.3537 22.6312L38.5488 22.5875L38.5461 22.5754L38.542 22.5638L38.3537 22.6312ZM38.4888 24.3691L38.6881 24.3865L38.6884 24.3822L38.4888 24.3691ZM38.1028 25.8993L37.9191 25.8202L37.9142 25.8314L37.9108 25.8432L38.1028 25.8993ZM38.2186 26.9571L38.043 27.0532L38.0465 27.059L38.2186 26.9571ZM38.5274 27.2027L38.5893 27.0126L38.5889 27.0124L38.5274 27.2027ZM38.9906 27.2027L38.9452 27.0079L38.9368 27.0099L38.9286 27.0126L38.9906 27.2027ZM40.0908 26.3904L40.2645 26.4901L40.2696 26.4799L40.0908 26.3904ZM40.3224 22.6123L40.5108 22.5451L40.5086 22.5394L40.3224 22.6123ZM39.7047 20.5721L39.9002 20.5294L39.8989 20.5242L39.7047 20.5721ZM39.5696 19.042L39.3733 19.0037L39.3709 19.0161L39.3701 19.0288L39.5696 19.042ZM39.7242 18.7714L39.5909 18.6222L39.5909 18.6222L39.7242 18.7714ZM40.0135 18.6452L40.0948 18.4625L40.0468 18.4411L39.9944 18.4462L40.0135 18.6452ZM40.4768 19.5331L40.4691 19.3333L40.2768 19.3406V19.5331H40.4768ZM45.0318 19.1364V18.9364H45.0185L45.0054 18.9382L45.0318 19.1364ZM40.5926 20.4021L40.7867 20.354L40.7846 20.3457L40.7819 20.3376L40.5926 20.4021ZM41.1909 22.2911L41.3788 22.2227L41.3773 22.2187L41.1909 22.2911ZM41.5296 24.6037L41.3299 24.5919L41.3299 24.5919L41.5296 24.6037ZM40.9207 26.8627L41.0901 26.9689L41.0951 26.961L41.0993 26.9527L40.9207 26.8627ZM40.1781 27.6406L40.2924 27.8047L40.2924 27.8047L40.1781 27.6406ZM39.1836 28.0717L39.1416 27.8758L39.1309 27.8788L39.1836 28.0717ZM38.2186 28.0717L38.144 28.2573L38.1547 28.2616L38.1659 28.2646L38.2186 28.0717ZM37.4658 27.4672L37.2932 27.569L37.3003 27.5795L37.4658 27.4672ZM37.1569 26.5445L37.3557 26.5221L37.3557 26.5221L37.1569 26.5445ZM37.2535 25.5781L37.0709 25.4967L37.0664 25.5066L37.0631 25.517L37.2535 25.5781ZM37.5816 24.3124L37.3832 24.2854L37.3824 24.295L37.5816 24.3124ZM37.5816 22.8579L37.7798 22.8308L37.7769 22.8095L37.7695 22.7892L37.5816 22.8579ZM37.0026 20.5721L36.8036 20.5933L36.8047 20.6011L37.0026 20.5721ZM37.0026 19.4764L37.2015 19.4976L37.225 19.2764H37.0026V19.4764ZM35.0725 19.3631L35.0385 19.5602L35.0385 19.5602L35.0725 19.3631ZM33.864 19.2134L33.8847 19.0144L33.8806 19.0141L33.864 19.2134ZM33.864 19.2134L33.8356 19.4117L33.8474 19.4127L33.864 19.2134ZM33.8639 19.2134L33.8922 19.0149L33.8781 19.0139L33.8639 19.2134ZM33.8638 19.2134L33.8431 19.4124L33.8496 19.4129L33.8638 19.2134ZM32.7371 19.0797L32.7669 18.882L32.7583 18.8807L32.7497 18.8801L32.7371 19.0797ZM32.216 18.9664L32.2875 18.7796L32.2842 18.7784L32.216 18.9664ZM31.6563 18.4752L31.8344 18.3843L31.8338 18.3831L31.6563 18.4752ZM31.5212 17.7574L31.72 17.779L31.7202 17.7774L31.5212 17.7574ZM31.7914 16.7373L31.6176 16.6384L31.6126 16.6471L31.6085 16.6563L31.7914 16.7373ZM34.3777 13.8659L34.4945 14.0283L34.4947 14.0281L34.3777 13.8659ZM37.7553 12.468L37.7284 12.2698L37.7232 12.2706L37.7553 12.468ZM38.0947 12.5528L38.2121 12.3908L38.2121 12.3908L38.0947 12.5528ZM38.2765 12.8458L38.0791 12.8779L38.0818 12.895L38.0875 12.9113L38.2765 12.8458ZM38.2765 13.0158L38.0875 12.9503L38.0765 12.9821V13.0158H38.2765ZM38.2765 13.1481L38.0765 13.1481L38.0765 13.1497L38.2765 13.1481ZM38.4502 13.5637L38.3079 13.7043L38.3082 13.7046L38.4502 13.5637ZM38.8941 13.7526L38.8901 13.9529L38.9018 13.9524L38.8941 13.7526ZM39.3187 13.5637L39.1845 13.4147L39.1748 13.4248L39.3187 13.5637ZM39.4529 13.3748L39.6374 13.4519L39.6374 13.4519L39.4529 13.3748ZM39.4924 13.1481H39.2921L39.2927 13.1583L39.4924 13.1481ZM39.4924 13.0347H39.6924V13.0111L39.6869 12.9881L39.4924 13.0347ZM39.4881 12.8565L39.2916 12.8193L39.2916 12.8194L39.4881 12.8565ZM39.5573 12.6916L39.3929 12.5776L39.3929 12.5776L39.5573 12.6916ZM39.8591 12.5058L39.888 12.7037L39.9007 12.7018L39.913 12.6984L39.8591 12.5058ZM40.0714 12.5058L40.0175 12.6984L40.0215 12.6994L40.0714 12.5058ZM45.4757 16.0572L45.3172 16.1793L45.32 16.1829L45.4757 16.0572ZM46.1898 17.3607L46.0001 17.424L46.0046 17.4375L46.011 17.4502L46.1898 17.3607ZM46.1898 18.6075L46.3523 18.7241L46.3615 18.7112L46.3686 18.697L46.1898 18.6075ZM45.7604 18.9838L45.6657 18.8076L45.6657 18.8076L45.7604 18.9838ZM45.2055 19.1364V19.3366L45.2144 19.3362L45.2055 19.1364ZM36.8673 45.2624V45.0624H36.6673V45.2624H36.8673ZM37.0795 45.2624V45.4624H37.243L37.2755 45.3022L37.0795 45.2624ZM36.8673 45.319L36.6788 45.3858L37.0673 45.319H36.8673ZM35.6706 43.6378L35.5452 43.7936L35.5453 43.7936L35.6706 43.6378ZM33.3545 42.8255L33.3545 42.6255L33.3543 42.6255L33.3545 42.8255ZM31.1492 43.5452L31.2674 43.7065L31.2674 43.7065L31.1492 43.5452ZM29.8224 45.4135V45.6135H29.9711L30.014 45.4712L29.8224 45.4135ZM24.1866 45.4135L23.9961 45.4744L24.0405 45.6135H24.1866V45.4135ZM22.99 43.6755L22.862 43.8293L22.8646 43.8314L22.99 43.6755ZM20.6353 42.8255L20.6308 43.0255L20.6348 43.0255L20.6353 42.8255ZM18.4765 43.4375L18.5855 43.6051L18.5855 43.6051L18.4765 43.4375ZM17.0646 45.149V45.349H17.1998L17.2502 45.2235L17.0646 45.149ZM16.447 45.149L16.2484 45.1728L16.2695 45.349H16.447V45.149ZM17.6629 40.4641L17.5192 40.3251L17.5091 40.3355L17.5007 40.3472L17.6629 40.4641ZM19.7388 39.0538L19.8154 39.2385L19.8154 39.2385L19.7388 39.0538ZM22.2179 38.5751L22.2157 38.7751H22.2179V38.5751ZM23.2631 38.5708L23.2619 38.3708L23.2619 38.3708L23.2631 38.5708ZM25.1903 38.5751L25.1862 38.775L25.1862 38.775L25.1903 38.5751ZM26.4802 38.653L26.5106 38.4553L26.5035 38.4542L26.4964 38.4536L26.4802 38.653ZM26.4803 38.653L26.4499 38.8506L26.4569 38.8517L26.4641 38.8523L26.4803 38.653ZM27.8152 38.7262L27.8557 38.5304L27.8357 38.5262H27.8152V38.7262ZM28.896 39.2551L29.0384 39.1147L29.0325 39.1087L29.0261 39.1032L28.896 39.2551ZM29.6295 40.4075L29.8279 40.3827L29.8251 40.3598L29.8171 40.3382L29.6295 40.4075ZM30.5945 41.7109L30.5111 41.8927L30.5213 41.8974L30.532 41.9009L30.5945 41.7109ZM32.5246 41.7109L32.4981 41.5127L32.4797 41.5151L32.4621 41.5209L32.5246 41.7109ZM37.0795 44.1856H36.8795V44.2002L36.8817 44.2147L37.0795 44.1856ZM37.0795 44.9601L36.8817 44.931L36.8766 44.9657L36.8836 44.9999L37.0795 44.9601ZM37.3884 46.2069L37.4613 46.0207L37.4261 46.0069H37.3884V46.2069ZM36.1338 46.2069H35.9338V46.4069H36.1338V46.2069ZM37.8709 46.3958L37.798 46.582L37.9559 46.6439L38.0427 46.4982L37.8709 46.3958ZM38.006 46.1691L38.1779 46.2716L38.1815 46.265L38.006 46.1691ZM38.2762 45.319L38.4749 45.3419L38.4749 45.3418L38.2762 45.319ZM38.2762 44.3178L38.0764 44.3265L38.0767 44.3335L38.0775 44.3406L38.2762 44.3178ZM32.679 40.9931L32.653 40.7948L32.6378 40.7968L32.6232 40.801L32.679 40.9931ZM31.3279 40.9931L31.2299 41.1674L31.25 41.1787L31.2721 41.1851L31.3279 40.9931ZM31.0161 40.6983L30.8472 40.8055L30.8472 40.8055L31.0161 40.6983ZM30.884 40.2941L31.0836 40.2813L31.0818 40.2534L31.0724 40.2271L30.884 40.2941ZM29.8803 38.764L30.0172 38.6181L30.0137 38.6149L29.8803 38.764ZM28.3556 38.0084L28.3145 38.2041L28.3172 38.2046L28.3556 38.0084ZM22.5653 37.8383L22.5653 37.6383L22.5613 37.6384L22.5653 37.8383ZM17.3541 40.1619L17.2074 40.026L17.199 40.035L17.1918 40.045L17.3541 40.1619ZM15.9838 45.8291H16.1838V45.8138L16.1814 45.7987L15.9838 45.8291ZM15.9838 46.1691H15.7838V46.3691H15.9838V46.1691ZM18.0624 46.1691L18.2616 46.1875L18.2818 45.9691H18.0624V46.1691ZM18.4854 47.7924L18.6505 47.6796L18.6505 47.6795L18.4854 47.7924ZM19.8752 48.8001L19.8184 48.9919L19.8184 48.9919L19.8752 48.8001ZM21.6027 48.7161L21.678 48.9014L21.678 48.9014L21.6027 48.7161ZM22.8836 47.5785L22.708 47.4827L22.708 47.4827L22.8836 47.5785ZM23.1364 45.9037L22.9404 45.9437L22.9404 45.9437L23.1364 45.9037ZM22.2462 44.4523L22.3713 44.2962L22.3713 44.2962L22.2462 44.4523ZM20.6207 43.883V43.683L20.6206 44.083L20.6207 43.883ZM20.6366 43.883V44.083L20.6385 43.683L20.6366 43.883ZM19.6436 44.0697L19.7181 44.2553L19.7181 44.2553L19.6436 44.0697ZM18.803 44.6197L18.9429 44.7626L18.9434 44.7621L18.803 44.6197ZM18.6694 44.761L18.5118 44.6379L18.8199 44.8927L18.6694 44.761ZM19.1491 44.28L19.0264 44.1221L19.0254 44.1229L19.1491 44.28ZM20.8669 43.6944L20.8684 43.4944L20.867 43.4944L20.8669 43.6944ZM22.6425 44.3178L22.7698 44.1635L22.7668 44.1611L22.6425 44.3178ZM23.5883 45.9235H23.7883V45.9056L23.7851 45.8879L23.5883 45.9235ZM23.5883 46.2825H23.3883V46.4825H23.5883V46.2825ZM30.7103 46.2825V46.4825H30.9103V46.2825H30.7103ZM30.7103 45.9235L30.5135 45.888L30.5103 45.9056V45.9235H30.7103ZM31.6753 44.3367L31.7982 44.4946L31.8013 44.4921L31.6753 44.3367ZM32.944 43.7591L32.9789 43.956L32.9789 43.956L32.944 43.7591ZM34.339 43.8646L34.4032 43.6752L34.4032 43.6752L34.339 43.8646ZM36.1338 45.848H36.3338V45.8262L36.3291 45.805L36.1338 45.848ZM20.6172 44.7897L20.6187 44.5897L20.6168 44.5897L20.6172 44.7897ZM21.7753 45.262L21.9156 45.1195L21.9148 45.1187L21.7753 45.262ZM19.4592 45.262L19.5967 45.4073L19.5993 45.4047L19.4592 45.262ZM19.0983 45.7799L19.2823 45.8583L19.2823 45.8583L19.0983 45.7799ZM18.9767 46.3955H19.1767L19.1767 46.3928L18.9767 46.3955ZM20.6172 48.0012L20.6197 47.8012H20.6172V48.0012ZM21.7753 47.5289L21.6356 47.3857L21.633 47.3883L21.7753 47.5289ZM22.2578 46.3955L22.4578 46.396L22.4578 46.394L22.2578 46.3955ZM34.5124 45.2622L34.3638 45.3961L34.7124 45.783V45.2622H34.5124ZM33.9898 44.874L34.0753 44.6932L34.0753 44.6932L33.9898 44.874ZM34.5124 45.1866L34.6528 45.0441L34.3124 44.709V45.1866H34.5124ZM34.9949 46.3201L35.195 46.3206L35.1949 46.3186L34.9949 46.3201ZM34.5124 47.4535L34.3728 47.3103L34.3701 47.313L34.5124 47.4535ZM33.9833 47.8068L33.9077 47.6216L33.9077 47.6216L33.9833 47.8068ZM33.3544 47.9258L33.3569 47.7258H33.3544V47.9258ZM31.7138 46.3201H31.9138L31.9138 46.3175L31.7138 46.3201ZM32.1963 45.1866L32.3338 45.3319L32.3364 45.3293L32.1963 45.1866ZM33.3544 44.7144L33.3646 44.5143L33.3539 44.5144L33.3544 44.7144ZM33.3544 43.8076L33.3542 43.6076L33.1544 43.6077V43.8076H33.3544ZM34.9833 44.3769L34.8582 44.5329L34.8582 44.5329L34.9833 44.3769ZM33.3544 43.8832L33.3478 44.0831L33.5544 44.0898V43.8832H33.3544ZM31.5401 44.5444L31.4058 44.3959L31.4001 44.4015L31.5401 44.5444ZM31.2225 47.717L31.0574 47.8299L31.0574 47.8299L31.2225 47.717ZM32.6123 48.7248L32.6691 48.533L32.6691 48.533L32.6123 48.7248ZM35.6207 47.5031L35.7963 47.5989L35.7963 47.5989L35.6207 47.5031ZM35.8735 45.8284L36.0695 45.7884L36.0695 45.7884L35.8735 45.8284ZM14.8824 1.46582H39.8577V1.06582H14.8824V1.46582ZM15.0824 4.85505V1.26582H14.6824V4.85505H15.0824ZM39.8577 4.65505H14.8824V5.05505H39.8577V4.65505ZM39.6577 1.26582V4.85505H40.0577V1.26582H39.6577ZM40.7842 0.159064H14.4192V0.559064H40.7842V0.159064ZM40.9842 2.79608V0.359064H40.5842V2.79608H40.9842ZM54.2379 2.59608H40.7842V2.99608H54.2379V2.59608ZM54.4379 55.2366V2.79608H54.0379V55.2366H54.4379ZM0.542969 55.4366H54.2379V55.0366H0.542969V55.4366ZM0.342969 2.79608V55.2366H0.742969V2.79608H0.342969ZM1.122 2.59608H0.542969V2.99608H1.122V2.59608ZM14.0525 2.59608H1.122V2.99608H14.0525V2.59608ZM13.8525 0.321289V2.79608H14.2525V0.321289H13.8525ZM14.4397 0.160117L14.073 0.122342L14.032 0.520236L14.3987 0.558011L14.4397 0.160117ZM40.5842 3.70283V5.79958H40.9842V3.70283H40.5842ZM53.2342 3.50283H40.7842V3.90283H53.2342V3.50283ZM53.4342 54.3298V3.70283H53.0342V54.3298H53.4342ZM1.50801 54.5298H53.2342V54.1298H1.50801V54.5298ZM1.30801 3.70283V54.3298H1.70801V3.70283H1.30801ZM14.0525 3.50283H1.50801V3.90283H14.0525V3.50283ZM14.2525 5.79958V3.70283H13.8525V5.79958H14.2525ZM40.7842 5.59958H14.0525V5.99958H40.7842V5.59958ZM20.2789 17.3757L17.8856 11.8596L17.5186 12.0188L19.912 17.5349L20.2789 17.3757ZM20.3944 17.6395L20.2786 17.3751L19.9122 17.5355L20.028 17.8L20.3944 17.6395ZM26.6169 18.0683L20.2283 17.5205L20.1941 17.919L26.5827 18.4668L26.6169 18.0683ZM21.9041 22.5193L26.7293 18.42L26.4703 18.1152L21.6451 22.2144L21.9041 22.5193ZM23.3974 28.3278L21.9692 22.3206L21.58 22.4131L23.0083 28.4203L23.3974 28.3278ZM17.6008 25.3162L23.1016 28.5465L23.3041 28.2016L17.8034 24.9713L17.6008 25.3162ZM12.3222 28.5464L17.8037 25.3161L17.6006 24.9715L12.1192 28.2018L12.3222 28.5464ZM13.4542 22.2268L12.026 28.3285L12.4154 28.4197L13.8437 22.318L13.4542 22.2268ZM8.69389 18.3064L13.5191 22.4245L13.7788 22.1203L8.95357 18.0021L8.69389 18.3064ZM15.1952 17.4071L8.80664 17.955L8.84082 18.3535L15.2294 17.8057L15.1952 17.4071ZM17.519 11.8588L15.0292 17.526L15.3954 17.6868L17.8852 12.0197L17.519 11.8588ZM17.982 10.6778L20.7034 16.9306L21.0701 16.771L18.3487 10.5182L17.982 10.6778ZM17.5571 9.695L17.9818 10.6773L18.3489 10.5186L17.9243 9.53629L17.5571 9.695ZM14.7976 16.9301L17.9243 9.69499L17.5571 9.53631L14.4304 16.7714L14.7976 16.9301ZM6.62107 17.7301L14.6309 17.0501L14.5971 16.6515L6.58723 17.3316L6.62107 17.7301ZM12.7942 22.5357L6.73376 17.3785L6.47453 17.6832L12.535 22.8403L12.7942 22.5357ZM11.0644 30.4032L12.8593 22.7336L12.4699 22.6424L10.6749 30.312L11.0644 30.4032ZM17.639 26.1239L10.7679 30.1854L10.9714 30.5298L17.8425 26.4683L17.639 26.1239ZM24.7327 30.1853L17.8423 26.1238L17.6392 26.4684L24.5296 30.5299L24.7327 30.1853ZM22.6222 22.734L24.4365 30.4036L24.8257 30.3116L23.0115 22.6419L22.6222 22.734ZM28.7477 17.3785L22.6872 22.5357L22.9464 22.8403L29.0069 17.6832L28.7477 17.3785ZM20.8698 17.0501L28.8603 17.7301L28.8942 17.3316L20.9037 16.6515L20.8698 17.0501ZM36.6101 16.4364C36.662 16.4562 36.709 16.4859 36.7486 16.5234L37.0237 16.233C36.9457 16.1591 36.8537 16.1013 36.7531 16.0628L36.6101 16.4364ZM36.4468 16.4081C36.5027 16.4069 36.5582 16.4165 36.6101 16.4364L36.7531 16.0628C36.6526 16.0243 36.5454 16.0058 36.4377 16.0082L36.4468 16.4081ZM36.2869 16.4374C36.3358 16.4179 36.3882 16.4079 36.4412 16.4082L36.4432 16.0082C36.3388 16.0077 36.2352 16.0273 36.1383 16.0661L36.2869 16.4374ZM36.157 16.5216C36.194 16.4857 36.2381 16.457 36.2869 16.4374L36.1383 16.0661C36.0413 16.1049 35.953 16.1622 35.8782 16.2348L36.157 16.5216ZM36.0436 16.8044C36.0493 16.697 36.0921 16.594 36.1659 16.5124L35.8693 16.244C35.7345 16.393 35.6548 16.583 35.6442 16.7832L36.0436 16.8044ZM36.1661 17.0943C36.0894 17.0092 36.0464 16.9011 36.0438 16.7891L35.6439 16.7985C35.6488 17.0072 35.7289 17.2068 35.8691 17.3622L36.1661 17.0943ZM36.4524 17.1986C36.3394 17.1928 36.2323 17.1497 36.1486 17.0771L35.8866 17.3794C36.0385 17.511 36.2308 17.5878 36.4321 17.598L36.4524 17.1986ZM36.6096 17.1711C36.5585 17.1908 36.5038 17.2002 36.4487 17.1984L36.4358 17.5982C36.5444 17.6017 36.6526 17.5833 36.7539 17.5442L36.6096 17.1711ZM36.745 17.0842C36.7067 17.1217 36.6606 17.1514 36.6096 17.1711L36.7539 17.5442C36.8551 17.505 36.9474 17.4458 37.0248 17.37L36.745 17.0842ZM36.8329 16.9533C36.8132 17.0021 36.7834 17.0466 36.745 17.0842L37.0248 17.37C37.1023 17.2942 37.1633 17.2034 37.2038 17.1031L36.8329 16.9533ZM36.86 16.8005C36.8617 16.8526 36.8525 16.9046 36.8329 16.9533L37.2038 17.1031C37.2443 17.0027 37.2634 16.8951 37.2597 16.7871L36.86 16.8005ZM36.7378 16.5124C36.8116 16.5939 36.8544 16.6969 36.8601 16.8044L37.2596 16.7832C37.2489 16.5831 37.1693 16.393 37.0344 16.244L36.7378 16.5124ZM37.6783 15.5892C37.3439 15.2793 36.9029 15.1055 36.444 15.1014L36.4405 15.5014C36.8009 15.5046 37.1459 15.6412 37.4064 15.8826L37.6783 15.5892ZM38.0564 16.1442C37.9699 15.938 37.8428 15.7509 37.6826 15.5933L37.4021 15.8785C37.5248 15.9992 37.6217 16.1421 37.6876 16.299L38.0564 16.1442ZM38.1863 16.7945C38.1871 16.5714 38.1429 16.3504 38.0564 16.1442L37.6876 16.299C37.7534 16.4558 37.7869 16.6237 37.7863 16.7931L38.1863 16.7945ZM38.0587 17.4519C38.1458 17.2423 38.1892 17.0176 38.1863 16.7912L37.7863 16.7964C37.7885 16.9683 37.7556 17.1389 37.6894 17.2983L38.0587 17.4519ZM37.6797 18.011C37.8427 17.8515 37.9716 17.6614 38.0587 17.4519L37.6894 17.2983C37.6231 17.4578 37.5248 17.603 37.3999 17.7251L37.6797 18.011ZM37.1101 18.381C37.323 18.2962 37.5168 18.1705 37.6797 18.011L37.3999 17.7251C37.2751 17.8473 37.1263 17.944 36.9622 18.0094L37.1101 18.381ZM36.4397 18.505C36.6693 18.5079 36.8972 18.4657 37.1101 18.381L36.9622 18.0094C36.7981 18.0747 36.6221 18.1073 36.4447 18.1051L36.4397 18.505ZM35.2233 18.0153C35.55 18.327 35.9864 18.502 36.4409 18.505L36.4435 18.105C36.0898 18.1027 35.7515 17.9664 35.4994 17.7259L35.2233 18.0153ZM34.7175 16.7956C34.7216 17.2484 34.9007 17.6821 35.2176 18.0096L35.5051 17.7315C35.2587 17.4768 35.1206 17.141 35.1174 16.792L34.7175 16.7956ZM34.8474 16.1442C34.7608 16.3504 34.7167 16.5714 34.7175 16.7945L35.1174 16.7931C35.1168 16.6237 35.1504 16.4558 35.2162 16.299L34.8474 16.1442ZM35.2211 15.5933C35.0609 15.7509 34.9339 15.938 34.8474 16.1442L35.2162 16.299C35.282 16.1421 35.3789 15.9992 35.5016 15.8785L35.2211 15.5933ZM36.4487 15.1582C36.0031 15.1439 35.5679 15.2957 35.2313 15.584L35.4915 15.8878C35.7515 15.6651 36.089 15.5468 36.4358 15.558L36.4487 15.1582ZM36.2422 15.3014V15.3581H36.6422V15.3014H36.2422ZM41.5864 16.2412C41.5126 16.1627 41.4223 16.1013 41.3221 16.0612L41.1734 16.4326C41.22 16.4512 41.2615 16.4795 41.2951 16.5152L41.5864 16.2412ZM41.8336 16.7857C41.825 16.5743 41.7323 16.3754 41.5765 16.2314L41.305 16.5251C41.3839 16.5981 41.4297 16.6975 41.4339 16.8019L41.8336 16.7857ZM41.5785 17.3732C41.737 17.2226 41.8291 17.016 41.8337 16.798L41.4338 16.7897C41.4315 16.8997 41.385 17.0053 41.3029 17.0833L41.5785 17.3732ZM41.0176 17.5983C41.2263 17.5967 41.4271 17.5166 41.5782 17.3735L41.3032 17.0831C41.2264 17.1558 41.1231 17.1975 41.0146 17.1983L41.0176 17.5983ZM40.4574 17.3767C40.609 17.5136 40.8053 17.592 41.01 17.5982L41.0222 17.1984C40.9113 17.195 40.806 17.1526 40.7256 17.0799L40.4574 17.3767ZM40.2744 17.1023C40.3142 17.202 40.3737 17.2925 40.4493 17.3689L40.7337 17.0876C40.6954 17.0489 40.6656 17.0034 40.6458 16.9539L40.2744 17.1023ZM40.2178 16.7891C40.2153 16.8962 40.2345 17.0027 40.2744 17.1024L40.6458 16.9539C40.626 16.9043 40.6165 16.8515 40.6177 16.7985L40.2178 16.7891ZM40.2778 16.4919C40.2377 16.5879 40.2172 16.6909 40.2178 16.7949L40.6178 16.7928C40.6175 16.7426 40.6274 16.6928 40.6468 16.6462L40.2778 16.4919ZM40.4511 16.2358C40.3769 16.3089 40.3179 16.3959 40.2778 16.4919L40.6468 16.6462C40.6663 16.5995 40.6952 16.5568 40.7319 16.5206L40.4511 16.2358ZM40.7108 16.063C40.6119 16.1026 40.5222 16.1625 40.448 16.2388L40.7349 16.5176C40.7697 16.4818 40.8121 16.4533 40.8595 16.4343L40.7108 16.063ZM41.0228 16.0083C40.9161 16.0048 40.8098 16.0234 40.7108 16.063L40.8595 16.4343C40.9069 16.4154 40.958 16.4064 41.0095 16.4081L41.0228 16.0083ZM41.3221 16.0612C41.2219 16.0211 41.1141 16.0032 41.0063 16.0084L41.0259 16.408C41.0765 16.4055 41.1268 16.4139 41.1734 16.4326L41.3221 16.0612ZM41.0168 15.5014C41.1916 15.5008 41.3647 15.534 41.5261 15.5989L41.6753 15.2278C41.4659 15.1435 41.2416 15.1007 41.0154 15.1014L41.0168 15.5014ZM40.0778 15.8815C40.326 15.6386 40.6634 15.5014 41.0161 15.5014V15.1014C40.56 15.1014 40.1218 15.2787 39.7981 15.5956L40.0778 15.8815ZM39.6913 16.7938C39.6913 16.4525 39.8299 16.1242 40.0778 15.8815L39.7981 15.5956C39.4741 15.9126 39.2913 16.3435 39.2913 16.7938H39.6913ZM40.079 17.7315C39.8326 17.4768 39.6945 17.141 39.6913 16.792L39.2913 16.7956C39.2955 17.2484 39.4746 17.6821 39.7915 18.0096L40.079 17.7315ZM41.0161 18.1026C40.663 18.1026 40.3247 17.967 40.0737 17.7262L39.7968 18.0149C40.1231 18.3279 40.5609 18.5026 41.0161 18.5026V18.1026ZM41.9585 17.7262C41.7075 17.967 41.3693 18.1026 41.0161 18.1026V18.5026C41.4713 18.5026 41.9091 18.3279 42.2354 18.0149L41.9585 17.7262ZM42.2555 17.2987C42.1866 17.4588 42.0857 17.6042 41.9585 17.7262L42.2354 18.0149C42.4009 17.8561 42.5327 17.6664 42.6229 17.4568L42.2555 17.2987ZM42.3602 16.7935C42.3599 16.9669 42.3243 17.1386 42.2554 17.2987L42.6229 17.4568C42.7131 17.2472 42.7598 17.0219 42.7602 16.7941L42.3602 16.7935ZM42.2584 16.2977C42.3269 16.454 42.3615 16.6224 42.3602 16.7923L42.7602 16.7953C42.7619 16.569 42.7158 16.3449 42.6248 16.1372L42.2584 16.2977ZM41.9617 15.8832C42.089 16.0001 42.1899 16.1413 42.2584 16.2977L42.6248 16.1372C42.5339 15.9295 42.4001 15.7428 42.2322 15.5886L41.9617 15.8832ZM41.5261 15.5989C41.6876 15.6638 41.8341 15.7591 41.9574 15.8792L42.2365 15.5927C42.0755 15.4359 41.8848 15.312 41.6753 15.2278L41.5261 15.5989ZM45.104 18.1445C43.4042 18.3524 41.7945 18.5397 40.2258 18.5397V18.9397C41.8225 18.9397 43.4554 18.7492 45.1526 18.5415L45.104 18.1445ZM45.2451 18.1547C45.2417 18.1664 45.2411 18.1612 45.2501 18.1515C45.2544 18.1467 45.2594 18.1428 45.2641 18.1399C45.2686 18.1372 45.2715 18.1363 45.2713 18.1363C45.2694 18.137 45.2591 18.1397 45.2323 18.1413C45.2055 18.1429 45.1734 18.143 45.1283 18.143V18.543C45.202 18.543 45.3074 18.5453 45.3954 18.5166C45.447 18.4998 45.4994 18.471 45.5438 18.423C45.5872 18.376 45.6132 18.3212 45.629 18.2668L45.2451 18.1547ZM45.2879 17.9746C45.2879 18.0275 45.2766 18.08 45.2547 18.1287L45.6194 18.2929C45.6645 18.1928 45.6879 18.0844 45.6879 17.9746H45.2879ZM45.2547 17.8206C45.2766 17.8693 45.2879 17.9217 45.2879 17.9746H45.6879C45.6879 17.8649 45.6645 17.7565 45.6194 17.6564L45.2547 17.8206ZM44.7173 16.8195C44.9434 17.121 45.1224 17.4534 45.2488 17.806L45.6253 17.671C45.4854 17.2806 45.2873 16.9128 45.0374 16.5795L44.7173 16.8195ZM40.4526 13.8291C42.1483 14.3893 43.634 15.4318 44.7197 16.8226L45.035 16.5764C43.9 15.1226 42.348 14.034 40.5781 13.4493L40.4526 13.8291ZM40.25 14.4622C40.4673 14.2493 40.6252 13.9847 40.7078 13.6939L40.323 13.5846C40.2596 13.8079 40.1382 14.0118 39.9701 14.1764L40.25 14.4622ZM39.6955 14.8409C39.9061 14.752 40.0962 14.6218 40.254 14.4581L39.9661 14.1805C39.8461 14.3049 39.7011 14.4043 39.54 14.4723L39.6955 14.8409ZM39.0292 14.9755C39.2582 14.9755 39.485 14.9297 39.6955 14.8409L39.54 14.4723C39.3788 14.5404 39.205 14.5755 39.0292 14.5755V14.9755ZM38.3629 14.8409C38.5734 14.9297 38.8002 14.9755 39.0292 14.9755V14.5755C38.8534 14.5755 38.6796 14.5404 38.5184 14.4723L38.3629 14.8409ZM37.8044 14.4581C37.9622 14.6218 38.1523 14.752 38.3629 14.8409L38.5184 14.4723C38.3573 14.4043 38.2123 14.3049 38.0923 14.1805L37.8044 14.4581ZM37.328 13.6235C37.3959 13.9485 37.5663 14.2437 37.8143 14.4677L38.0824 14.1709C37.8966 14.003 37.7699 13.7827 37.7195 13.5416L37.328 13.6235ZM35.1905 14.8775C35.9006 14.3589 36.7099 13.9846 37.5706 13.777L37.4768 13.3881C36.5652 13.608 35.7075 14.0046 34.9546 14.5545L35.1905 14.8775ZM32.9298 17.3849C33.4946 16.4034 34.2647 15.5491 35.19 14.8779L34.9551 14.5541C33.9846 15.2581 33.1763 16.1546 32.5831 17.1854L32.9298 17.3849ZM32.7416 18.0159C32.7776 17.7926 32.8437 17.5749 32.9383 17.3684L32.5746 17.2018C32.4651 17.4409 32.3884 17.6933 32.3467 17.9523L32.7416 18.0159ZM32.7412 18.1956C32.7311 18.1369 32.7311 18.0769 32.7412 18.0181L32.347 17.95C32.3291 18.0538 32.3291 18.1599 32.347 18.2637L32.7412 18.1956ZM32.795 18.0297H32.5441V18.4297H32.795V18.0297ZM35.1252 18.3135C34.3555 18.2591 33.5892 18.1654 32.8295 18.0326L32.7606 18.4267C33.5338 18.5618 34.3137 18.6572 35.097 18.7125L35.1252 18.3135ZM36.3762 18.389C35.9566 18.3513 35.5319 18.313 35.1111 18.313V18.713C35.5109 18.713 35.9176 18.7494 36.3404 18.7874L36.3762 18.389ZM36.3783 18.3892L36.3782 18.3892L36.3384 18.7872L36.3385 18.7872L36.3783 18.3892ZM37.4898 18.4642C37.1177 18.4555 36.7487 18.4224 36.3763 18.389L36.3405 18.7874C36.7108 18.8207 37.0929 18.8551 37.4805 18.8641L37.4898 18.4642ZM37.7958 18.5326C37.6974 18.4843 37.5885 18.4609 37.479 18.4642L37.4913 18.864C37.5359 18.8627 37.5799 18.8722 37.6194 18.8916L37.7958 18.5326ZM38.0427 18.742C37.9791 18.6528 37.8942 18.581 37.7958 18.5326L37.6194 18.8916C37.6588 18.911 37.6922 18.9395 37.7168 18.9741L38.0427 18.742ZM38.1587 19.0439C38.1463 18.935 38.1062 18.8313 38.0427 18.7421L37.7168 18.9741C37.7415 19.0087 37.7566 19.0483 37.7614 19.0895L38.1587 19.0439ZM38.1138 19.364C38.1557 19.2628 38.1712 19.1527 38.1587 19.0439L37.7614 19.0895C37.7661 19.1306 37.7603 19.1724 37.7442 19.211L38.1138 19.364ZM38.03 20.4836C37.9688 20.1041 37.9993 19.7158 38.1191 19.3498L37.739 19.2253C37.5993 19.6519 37.5638 20.1047 37.6351 20.5473L38.03 20.4836ZM38.542 22.5638C38.3008 21.8902 38.1295 21.1947 38.0306 20.4877L37.6345 20.5431C37.7372 21.2773 37.915 21.9994 38.1654 22.6986L38.542 22.5638ZM38.6884 24.3822C38.7277 23.7805 38.6807 23.1764 38.5488 22.5875L38.1585 22.6749C38.282 23.2266 38.326 23.7925 38.2892 24.3561L38.6884 24.3822ZM38.2865 25.9784C38.5047 25.4717 38.6402 24.9345 38.688 24.3865L38.2895 24.3517C38.2454 24.8571 38.1205 25.3526 37.9191 25.8202L38.2865 25.9784ZM38.394 26.8611C38.2418 26.5829 38.2064 26.2582 38.2948 25.9553L37.9108 25.8432C37.7926 26.2483 37.8402 26.6823 38.0431 27.0531L38.394 26.8611ZM38.5889 27.0124C38.5044 26.9851 38.4342 26.9288 38.3907 26.8553L38.0465 27.059C38.1404 27.2177 38.2899 27.3362 38.4659 27.393L38.5889 27.0124ZM38.9286 27.0126C38.8186 27.0484 38.6994 27.0484 38.5893 27.0126L38.4654 27.3929C38.656 27.455 38.8619 27.455 39.0525 27.3929L38.9286 27.0126ZM39.5088 26.7484C39.3415 26.8719 39.1496 26.9603 38.9452 27.0079L39.0359 27.3975C39.293 27.3377 39.5349 27.2263 39.7463 27.0702L39.5088 26.7484ZM39.9173 26.2909C39.815 26.4691 39.676 26.6249 39.5088 26.7484L39.7463 27.0702C39.9578 26.9141 40.1342 26.7166 40.2642 26.49L39.9173 26.2909ZM40.3937 24.5118C40.3556 25.1334 40.1919 25.7414 39.9119 26.3009L40.2696 26.4799C40.5736 25.8725 40.7515 25.2118 40.793 24.5363L40.3937 24.5118ZM40.134 22.6794C40.3435 23.2675 40.4318 23.8903 40.3937 24.5118L40.793 24.5363C40.8344 23.8608 40.7384 23.184 40.5107 22.5452L40.134 22.6794ZM39.5093 20.6148C39.6632 21.3197 39.8728 22.012 40.1361 22.6851L40.5086 22.5394C40.253 21.8858 40.0495 21.2138 39.9001 20.5294L39.5093 20.6148ZM39.3701 19.0288C39.3349 19.5631 39.3822 20.0996 39.5105 20.62L39.8989 20.5242C39.7804 20.0437 39.7367 19.5484 39.7692 19.0551L39.3701 19.0288ZM39.5909 18.6222C39.4787 18.7225 39.4021 18.8562 39.3733 19.0037L39.7659 19.0803C39.7778 19.0194 39.8096 18.9633 39.8574 18.9205L39.5909 18.6222ZM39.9944 18.4462C39.8446 18.4605 39.703 18.5221 39.5909 18.6222L39.8574 18.9205C39.9054 18.8776 39.9668 18.8507 40.0327 18.8443L39.9944 18.4462ZM40.3071 18.557L40.0948 18.4625L39.9322 18.828L40.1445 18.9224L40.3071 18.557ZM40.4844 19.733C41.9773 19.676 43.489 19.5432 45.0581 19.3347L45.0054 18.9382C43.4477 19.1452 41.9485 19.2768 40.4691 19.3333L40.4844 19.733ZM40.7819 20.3376C40.6776 20.0315 40.6768 19.7774 40.6768 19.5331H40.2768C40.2768 19.78 40.2759 20.0926 40.4032 20.4666L40.7819 20.3376ZM41.3773 22.2187C41.1408 21.6098 40.9436 20.987 40.7867 20.354L40.3984 20.4502C40.5594 21.0998 40.7618 21.7388 41.0045 22.3636L41.3773 22.2187ZM41.7292 24.6155C41.7773 23.8029 41.6581 22.9892 41.3788 22.2227L41.003 22.3596C41.2636 23.0749 41.3747 23.834 41.3299 24.5919L41.7292 24.6155ZM41.0993 26.9527C41.4669 26.2229 41.6812 25.4282 41.7292 24.6155L41.3299 24.5919C41.2851 25.3499 41.0853 26.0915 40.7421 26.7727L41.0993 26.9527ZM40.2924 27.8047C40.6128 27.5817 40.8842 27.2975 41.0901 26.9689L40.7512 26.7565C40.5741 27.039 40.3404 27.2839 40.0639 27.4764L40.2924 27.8047ZM39.2256 28.2672C39.6091 28.185 39.972 28.0277 40.2924 27.8047L40.0639 27.4764C39.7873 27.6689 39.4736 27.8049 39.1417 27.8761L39.2256 28.2672ZM38.1659 28.2646C38.516 28.3603 38.8862 28.3603 39.2363 28.2646L39.1309 27.8788C38.8498 27.9556 38.5524 27.9556 38.2713 27.8788L38.1659 28.2646ZM37.3003 27.5795C37.5065 27.8834 37.8005 28.1193 38.144 28.2573L38.2931 27.8861C38.0226 27.7774 37.7923 27.5922 37.6314 27.3549L37.3003 27.5795ZM36.9582 26.5668C36.9979 26.9202 37.1122 27.2614 37.2936 27.5688L37.6381 27.3656C37.4852 27.1064 37.3891 26.8192 37.3557 26.5221L36.9582 26.5668ZM37.0631 25.517C36.9542 25.8559 36.9185 26.2135 36.9582 26.5668L37.3557 26.5221C37.3223 26.2251 37.3523 25.9245 37.4439 25.6393L37.0631 25.517ZM37.3824 24.295C37.3461 24.7094 37.2409 25.1153 37.0709 25.4967L37.4362 25.6596C37.6243 25.2378 37.7407 24.7886 37.7809 24.3299L37.3824 24.295ZM37.3835 22.8849C37.4469 23.3497 37.4469 23.8206 37.3835 24.2854L37.7798 24.3395C37.8481 23.8388 37.8481 23.3315 37.7798 22.8308L37.3835 22.8849ZM36.8047 20.6011C36.9209 21.3937 37.1183 22.1727 37.3938 22.9265L37.7695 22.7892C37.5033 22.061 37.3127 21.3085 37.2005 20.5431L36.8047 20.6011ZM36.8037 19.4553C36.7635 19.8336 36.7635 20.215 36.8037 20.5933L37.2015 20.5509C37.1642 20.2008 37.1642 19.8478 37.2015 19.4976L36.8037 19.4553ZM37.0025 19.6764H37.0026V19.2764H37.0025V19.6764ZM35.0385 19.5602C35.7142 19.6769 36.368 19.6764 37.0025 19.6764V19.2764C36.3633 19.2764 35.7433 19.276 35.1066 19.166L35.0385 19.5602ZM33.8433 19.4123C34.2801 19.4578 34.6978 19.5013 35.0385 19.5602L35.1066 19.166C34.7498 19.1044 34.3174 19.0595 33.8847 19.0145L33.8433 19.4123ZM33.8474 19.4127L33.8474 19.4127L33.8806 19.0141L33.8806 19.0141L33.8474 19.4127ZM33.8356 19.4114L33.8357 19.4114L33.8923 19.0154L33.8922 19.0154L33.8356 19.4114ZM33.8496 19.4129L33.8496 19.4129L33.8781 19.0139L33.8781 19.0139L33.8496 19.4129ZM32.7073 19.2775C33.0654 19.3314 33.4609 19.3725 33.8431 19.4123L33.8845 19.0145C33.5002 18.9745 33.1142 18.9343 32.7669 18.882L32.7073 19.2775ZM32.1445 19.1532C32.3301 19.2243 32.5258 19.2668 32.7245 19.2793L32.7497 18.8801C32.5912 18.8701 32.4353 18.8362 32.2875 18.7796L32.1445 19.1532ZM31.4782 18.5662C31.6177 18.8394 31.8575 19.0492 32.1479 19.1544L32.2842 18.7784C32.0875 18.7071 31.9271 18.5657 31.8344 18.3843L31.4782 18.5662ZM31.3224 17.7358C31.2912 18.0222 31.3457 18.3111 31.4788 18.5674L31.8338 18.3831C31.7368 18.1964 31.6975 17.9867 31.72 17.779L31.3224 17.7358ZM31.6085 16.6563C31.4563 16.9998 31.3597 17.3645 31.3222 17.7374L31.7202 17.7774C31.7534 17.4468 31.8391 17.1233 31.9742 16.8183L31.6085 16.6563ZM34.2609 13.7035C33.1751 14.4846 32.2735 15.4854 31.6176 16.6384L31.9652 16.8362C32.5924 15.7337 33.455 14.776 34.4945 14.0283L34.2609 13.7035ZM37.7232 12.2706C36.4702 12.4749 35.2838 12.9658 34.2607 13.7037L34.4947 14.0281C35.4671 13.3268 36.5953 12.8598 37.7875 12.6654L37.7232 12.2706ZM38.2121 12.3908C38.0727 12.2898 37.8991 12.2466 37.7284 12.2698L37.7823 12.6662C37.8518 12.6567 37.9219 12.6745 37.9773 12.7147L38.2121 12.3908ZM38.4739 12.8137C38.4462 12.6436 38.3517 12.492 38.2121 12.3908L37.9773 12.7147C38.0327 12.7548 38.0686 12.8136 38.0791 12.8779L38.4739 12.8137ZM38.4654 13.0814C38.4993 12.9838 38.4993 12.8779 38.4654 12.7803L38.0875 12.9113C38.0919 12.924 38.0919 12.9376 38.0875 12.9503L38.4654 13.0814ZM38.4765 13.1481V13.0158H38.0765V13.1481H38.4765ZM38.5924 13.4231C38.5183 13.3481 38.4773 13.249 38.4765 13.1465L38.0765 13.1497C38.0781 13.3576 38.1615 13.5561 38.3079 13.7043L38.5924 13.4231ZM38.8981 13.5526C38.7817 13.5503 38.6719 13.5032 38.5921 13.4228L38.3082 13.7046C38.462 13.8596 38.6712 13.9482 38.8901 13.9525L38.8981 13.5526ZM39.1748 13.4248C39.1002 13.502 38.9968 13.5485 38.8864 13.5527L38.9018 13.9524C39.114 13.9442 39.3154 13.855 39.4626 13.7026L39.1748 13.4248ZM39.2683 13.2977C39.2498 13.342 39.2214 13.3821 39.1848 13.4151L39.4526 13.7122C39.5327 13.6401 39.5959 13.5513 39.6374 13.4519L39.2683 13.2977ZM39.2927 13.1583C39.2951 13.2058 39.2868 13.2534 39.2683 13.2977L39.6374 13.4519C39.6789 13.3526 39.6976 13.2453 39.6921 13.1378L39.2927 13.1583ZM39.2924 13.0347V13.1481H39.6924V13.0347H39.2924ZM39.2916 12.8194C39.2752 12.9061 39.2773 12.9954 39.2979 13.0813L39.6869 12.9881C39.6795 12.9571 39.6787 12.925 39.6846 12.8936L39.2916 12.8194ZM39.3929 12.5776C39.3426 12.6502 39.308 12.7325 39.2916 12.8193L39.6846 12.8936C39.6905 12.8623 39.7031 12.8323 39.7216 12.8055L39.3929 12.5776ZM39.5835 12.3974C39.5082 12.4437 39.4433 12.505 39.3929 12.5776L39.7216 12.8055C39.7402 12.7787 39.7645 12.7557 39.7931 12.738L39.5835 12.3974ZM39.8302 12.3079C39.7427 12.3207 39.6587 12.3511 39.5835 12.3974L39.7931 12.738C39.8218 12.7204 39.8541 12.7086 39.888 12.7037L39.8302 12.3079ZM40.1254 12.3132C40.0207 12.2839 39.9099 12.2839 39.8052 12.3132L39.913 12.6984C39.9472 12.6888 39.9834 12.6888 40.0175 12.6984L40.1254 12.3132ZM45.6341 15.9352C44.2635 14.1555 42.3216 12.8797 40.1214 12.3121L40.0215 12.6994C42.1365 13.245 44.0017 14.4711 45.3172 16.1793L45.6341 15.9352ZM46.3795 17.2974C46.2143 16.8023 45.9609 16.3399 45.6313 15.9316L45.32 16.1829C45.6199 16.5543 45.85 16.9745 46.0001 17.424L46.3795 17.2974ZM46.5375 17.9841C46.5375 17.7368 46.4796 17.4929 46.3686 17.2711L46.011 17.4502C46.0943 17.6166 46.1375 17.7992 46.1375 17.9841H46.5375ZM46.3686 18.697C46.4796 18.4753 46.5375 18.2314 46.5375 17.9841H46.1375C46.1375 18.1689 46.0943 18.3515 46.011 18.5179L46.3686 18.697ZM45.8551 19.16C46.0523 19.054 46.2225 18.905 46.3523 18.7241L46.0273 18.4909C45.9334 18.6218 45.8098 18.7302 45.6657 18.8076L45.8551 19.16ZM45.2144 19.3362C45.4387 19.3262 45.6579 19.266 45.8551 19.16L45.6657 18.8076C45.5217 18.8851 45.3612 18.9292 45.1965 18.9366L45.2144 19.3362ZM45.0318 19.3364H45.2055V18.9364H45.0318V19.3364ZM36.8673 45.4624H37.0795V45.0624H36.8673V45.4624ZM37.0673 45.319V45.2624H36.6673V45.319H37.0673ZM35.5453 43.7936C36.0662 44.2125 36.4582 44.7636 36.6788 45.3858L37.0558 45.2522C36.8102 44.5593 36.374 43.9467 35.7959 43.4819L35.5453 43.7936ZM33.3545 43.0255C34.1542 43.0256 34.9284 43.2973 35.5452 43.7936L35.796 43.4819C35.1075 42.928 34.2445 42.6256 33.3545 42.6255L33.3545 43.0255ZM31.2674 43.7065C31.8694 43.2654 32.6016 43.0263 33.3547 43.0255L33.3543 42.6255C32.517 42.6264 31.7021 42.8922 31.031 43.3839L31.2674 43.7065ZM30.014 45.4712C30.2261 44.7668 30.6654 44.1476 31.2674 43.7065L31.031 43.3839C30.3599 43.8756 29.8684 44.5672 29.6309 45.3558L30.014 45.4712ZM24.1866 45.6135H29.8224V45.2135H24.1866V45.6135ZM22.8646 43.8314C23.3976 44.2601 23.7906 44.8312 23.9961 45.4744L24.3771 45.3526C24.1475 44.6339 23.7087 43.9969 23.1153 43.5197L22.8646 43.8314ZM20.6348 43.0255C21.4516 43.0272 22.2407 43.3123 22.862 43.8293L23.1179 43.5218C22.4243 42.9447 21.5447 42.6274 20.6357 42.6255L20.6348 43.0255ZM18.5855 43.6051C19.1902 43.2117 19.9041 43.0091 20.6308 43.0254L20.6397 42.6255C19.8331 42.6075 19.0399 42.8322 18.3674 43.2699L18.5855 43.6051ZM17.2502 45.2235C17.5151 44.5636 17.981 43.9985 18.5855 43.6051L18.3674 43.2699C17.6948 43.7075 17.175 44.3373 16.879 45.0745L17.2502 45.2235ZM16.447 45.349H17.0646V44.949H16.447V45.349ZM17.5007 40.3472C16.4904 41.7493 16.0442 43.4677 16.2484 45.1728L16.6456 45.1253C16.4534 43.5205 16.8731 41.9024 17.8252 40.5811L17.5007 40.3472ZM19.6621 38.869C18.8532 39.2045 18.1236 39.7001 17.5192 40.3251L17.8067 40.6032C18.3727 40.0179 19.0566 39.5532 19.8154 39.2385L19.6621 38.869ZM22.2201 38.3751C21.3419 38.3654 20.471 38.5335 19.6621 38.869L19.8154 39.2385C20.5742 38.9238 21.3914 38.766 22.2157 38.7751L22.2201 38.3751ZM23.2619 38.3708C22.9188 38.3729 22.5705 38.3751 22.2179 38.3751V38.7751C22.572 38.7751 22.9215 38.7729 23.2643 38.7708L23.2619 38.3708ZM25.1943 38.3751C24.5788 38.3626 23.93 38.3666 23.2619 38.3708L23.2643 38.7708C23.9336 38.7666 24.577 38.7626 25.1862 38.775L25.1943 38.3751ZM26.4964 38.4536C26.0791 38.4197 25.6438 38.3843 25.1943 38.3751L25.1862 38.775C25.6216 38.7839 26.045 38.8183 26.464 38.8523L26.4964 38.4536ZM26.5107 38.4553L26.5106 38.4553L26.4498 38.8506L26.4499 38.8506L26.5107 38.4553ZM27.8152 38.5262C27.3912 38.5262 26.9554 38.4909 26.4965 38.4536L26.4641 38.8523C26.9198 38.8893 27.3721 38.9262 27.8152 38.9262V38.5262ZM29.0261 39.1032C28.6921 38.8172 28.2891 38.6201 27.8557 38.5304L27.7746 38.9221C28.1424 38.9982 28.4837 39.1653 28.7659 39.407L29.0261 39.1032ZM29.8171 40.3382C29.6483 39.881 29.3829 39.4641 29.0384 39.1147L28.7536 39.3956C29.0585 39.7048 29.2929 40.0732 29.4418 40.4767L29.8171 40.3382ZM30.1008 41.0621C29.9523 40.8616 29.8585 40.6278 29.8279 40.3827L29.431 40.4323C29.4702 40.7461 29.5902 41.0447 29.7793 41.3002L30.1008 41.0621ZM30.6779 41.5292C30.4478 41.4236 30.2493 41.2627 30.1008 41.0621L29.7793 41.3002C29.9684 41.5555 30.2203 41.7593 30.5111 41.8927L30.6779 41.5292ZM32.4621 41.5209C31.8765 41.7135 31.2426 41.7135 30.657 41.5209L30.532 41.9009C31.1988 42.1202 31.9203 42.1202 32.5871 41.9009L32.4621 41.5209ZM37.2795 44.1856C37.2795 43.105 36.8543 42.3123 36.0115 41.8584C35.1889 41.4153 33.9991 41.3124 32.4981 41.5127L32.551 41.9092C34.0223 41.7128 35.11 41.8271 35.8218 42.2105C36.5135 42.5831 36.8795 43.226 36.8795 44.1856H37.2795ZM37.2774 44.9892C37.318 44.7131 37.318 44.4327 37.2774 44.1565L36.8817 44.2147C36.9166 44.4523 36.9166 44.6935 36.8817 44.931L37.2774 44.9892ZM37.2755 45.3022C37.3012 45.1761 37.3012 45.0463 37.2755 44.9203L36.8836 44.9999C36.8985 45.0734 36.8985 45.1491 36.8836 45.2225L37.2755 45.3022ZM37.3884 46.0069H36.1338V46.4069H37.3884V46.0069ZM37.9438 46.2096L37.4613 46.0207L37.3155 46.3931L37.798 46.582L37.9438 46.2096ZM37.8342 46.0667L37.6991 46.2934L38.0427 46.4982L38.1778 46.2715L37.8342 46.0667ZM38.0775 45.2962C38.0463 45.568 37.9625 45.8317 37.8305 46.0732L38.1815 46.265C38.3381 45.9785 38.4378 45.6652 38.4749 45.3419L38.0775 45.2962ZM38.0775 44.3406C38.1139 44.6582 38.1139 44.9787 38.0775 45.2963L38.4749 45.3418C38.5147 44.994 38.5147 44.6429 38.4749 44.2951L38.0775 44.3406ZM32.7049 41.1914C34.4924 40.9575 35.8087 41.1233 36.6855 41.6444C37.5471 42.1565 38.0206 43.0346 38.0764 44.3265L38.476 44.3092C38.416 42.9186 37.8955 41.8982 36.8898 41.3005C35.8992 40.7117 34.4748 40.5564 32.653 40.7948L32.7049 41.1914ZM31.2721 41.1851C31.7494 41.3238 32.2575 41.3238 32.7348 41.1851L32.6232 40.801C32.2188 40.9185 31.7881 40.9185 31.3837 40.801L31.2721 41.1851ZM30.8472 40.8055C30.9426 40.9557 31.0742 41.0799 31.2299 41.1674L31.4259 40.8187C31.3271 40.7632 31.2445 40.6849 31.1849 40.5911L30.8472 40.8055ZM30.6844 40.307C30.6958 40.4841 30.7519 40.6554 30.8472 40.8055L31.1849 40.5911C31.1253 40.4973 31.0906 40.3909 31.0836 40.2813L30.6844 40.307ZM29.7435 38.9098C30.1738 39.3136 30.4999 39.811 30.6956 40.3611L31.0724 40.2271C30.8553 39.6164 30.4935 39.065 30.0172 38.6181L29.7435 38.9098ZM28.3172 38.2046C28.8513 38.309 29.3457 38.5541 29.747 38.9131L30.0137 38.6149C29.5582 38.2075 28.9981 37.9301 28.3939 37.8121L28.3172 38.2046ZM25.615 38.0383C26.5859 38.0383 27.5283 38.0392 28.3145 38.2041L28.3966 37.8126C27.5616 37.6375 26.5741 37.6383 25.615 37.6383V38.0383ZM25.6149 38.0383H25.615V37.6383H25.6149V38.0383ZM22.5653 38.0383H25.6149V37.6383H22.5653V38.0383ZM19.7964 38.6569C20.668 38.2683 21.6116 38.0578 22.5694 38.0383L22.5613 37.6384C21.5503 37.6589 20.554 37.8811 19.6335 38.2916L19.7964 38.6569ZM17.5008 40.2978C18.1438 39.6039 18.9248 39.0455 19.7964 38.6569L19.6335 38.2916C18.713 38.702 17.8874 39.2921 17.2074 40.026L17.5008 40.2978ZM16.1814 45.7987C15.8838 43.8597 16.3617 41.8825 17.5164 40.2788L17.1918 40.045C15.9763 41.7332 15.4724 43.8159 15.7861 45.8594L16.1814 45.7987ZM16.1838 46.1691V45.8291H15.7838V46.1691H16.1838ZM16.3119 45.9691H15.9838V46.3691H16.3119V45.9691ZM16.9102 45.9691H16.3119V46.3691H16.9102V45.9691ZM17.7787 45.9691H16.9102V46.3691H17.7787V45.9691ZM18.0624 45.9691H17.7787V46.3691H18.0624V45.9691ZM18.6505 47.6795C18.3499 47.2398 18.213 46.7131 18.2616 46.1875L17.8633 46.1507C17.806 46.7697 17.9675 47.3891 18.3202 47.9053L18.6505 47.6795ZM19.932 48.6084C19.407 48.4528 18.9544 48.1242 18.6505 47.6796L18.3202 47.9053C18.6768 48.4269 19.2065 48.8106 19.8184 48.9919L19.932 48.6084ZM21.5275 48.5308C21.021 48.7365 20.457 48.7639 19.932 48.6084L19.8184 48.9919C20.4302 49.1732 21.0873 49.1412 21.678 48.9014L21.5275 48.5308ZM22.708 47.4827C22.4508 47.9544 22.0339 48.3251 21.5275 48.5308L21.678 48.9014C22.2687 48.6615 22.7571 48.2282 23.0592 47.6742L22.708 47.4827ZM22.9404 45.9437C23.0472 46.4673 22.9652 47.0111 22.708 47.4827L23.0592 47.6742C23.3613 47.1202 23.458 46.4803 23.3323 45.8638L22.9404 45.9437ZM22.121 44.6083C22.5444 44.9479 22.8336 45.42 22.9404 45.9437L23.3323 45.8638C23.2066 45.2474 22.8666 44.6936 22.3713 44.2962L22.121 44.6083ZM20.6206 44.083C21.1682 44.0834 21.6984 44.2692 22.121 44.6083L22.3713 44.2962C21.8771 43.8998 21.2586 43.6834 20.6209 43.683L20.6206 44.083ZM20.6366 43.683H20.6207V44.083H20.6366V43.683ZM19.7181 44.2553C20.0087 44.1385 20.3203 44.0799 20.6346 44.083L20.6385 43.683C20.272 43.6794 19.9083 43.7478 19.569 43.8841L19.7181 44.2553ZM18.9434 44.7621C19.1642 44.5444 19.4276 44.372 19.7181 44.2553L19.569 43.8841C19.2297 44.0205 18.9214 44.2221 18.6626 44.4773L18.9434 44.7621ZM18.8199 44.8927C18.8591 44.848 18.9001 44.8045 18.9429 44.7626L18.663 44.4769C18.6129 44.526 18.5648 44.5768 18.5189 44.6293L18.8199 44.8927ZM19.0254 44.1229C18.8326 44.2745 18.6604 44.4477 18.5118 44.6379L18.827 44.8841C18.9558 44.7193 19.1052 44.569 19.2727 44.4372L19.0254 44.1229ZM20.867 43.4944C20.1992 43.494 19.5504 43.715 19.0264 44.1221L19.2718 44.438C19.7249 44.0859 20.2871 43.8941 20.8667 43.8944L20.867 43.4944ZM22.7668 44.1611C22.2289 43.7346 21.5595 43.4998 20.8684 43.4944L20.8653 43.8944C21.4681 43.8991 22.0508 44.1039 22.5183 44.4745L22.7668 44.1611ZM23.7851 45.8879C23.6631 45.2137 23.3034 44.6036 22.7698 44.1635L22.5153 44.4721C22.9768 44.8528 23.2865 45.3792 23.3915 45.9592L23.7851 45.8879ZM23.7883 46.2825V45.9235H23.3883V46.2825H23.7883ZM30.7103 46.0825H23.5883V46.4825H30.7103V46.0825ZM30.5103 45.9235V46.2825H30.9103V45.9235H30.5103ZM31.5525 44.1789C31.0054 44.6047 30.6354 45.2124 30.5135 45.888L30.9071 45.9591C31.0113 45.3818 31.3278 44.8607 31.7982 44.4946L31.5525 44.1789ZM32.9091 43.5622C32.4094 43.6507 31.9411 43.8638 31.5494 44.1814L31.8013 44.4921C32.1399 44.2176 32.5454 44.0329 32.9789 43.956L32.9091 43.5622ZM34.4032 43.6752C33.9233 43.5125 33.4087 43.4736 32.9091 43.5622L32.9789 43.956C33.4123 43.8792 33.8587 43.913 34.2748 44.054L34.4032 43.6752ZM35.6502 44.492C35.3127 44.119 34.8832 43.8379 34.4032 43.6752L34.2748 44.054C34.6909 44.1951 35.0623 44.4385 35.3536 44.7603L35.6502 44.492ZM36.3291 45.805C36.2217 45.317 35.9877 44.8649 35.6502 44.492L35.3536 44.7603C35.6449 45.0822 35.8461 45.4716 35.9385 45.891L36.3291 45.805ZM36.3338 46.2069V45.848H35.9338V46.2069H36.3338ZM20.6158 44.9897C20.9991 44.9925 21.3652 45.1421 21.6358 45.4054L21.9148 45.1187C21.5693 44.7826 21.1039 44.5932 20.6187 44.5898L20.6158 44.9897ZM19.5993 45.4047C19.8685 45.1404 20.2346 44.9907 20.6177 44.9897L20.6168 44.5897C20.1304 44.5909 19.6636 44.7809 19.3191 45.1193L19.5993 45.4047ZM19.2823 45.8583C19.3544 45.6889 19.4613 45.5353 19.5967 45.4073L19.3217 45.1167C19.1469 45.2822 19.0081 45.4812 18.9143 45.7016L19.2823 45.8583ZM19.1767 46.3928C19.1743 46.2096 19.2102 46.0277 19.2823 45.8583L18.9143 45.7016C18.8204 45.922 18.7736 46.159 18.7767 46.3981L19.1767 46.3928ZM19.5971 47.3879C19.3274 47.124 19.1767 46.7669 19.1767 46.3955H18.7767C18.7767 46.8758 18.9717 47.3355 19.3173 47.6738L19.5971 47.3879ZM20.6172 47.8012C20.2338 47.8012 19.8669 47.652 19.5971 47.3879L19.3173 47.6738C19.6628 48.0119 20.1305 48.2012 20.6172 48.2012V47.8012ZM21.1706 47.6969C20.9963 47.768 20.8088 47.8035 20.6197 47.8012L20.6147 48.2011C20.8571 48.2042 21.0977 48.1587 21.3217 48.0673L21.1706 47.6969ZM21.633 47.3883C21.5022 47.5208 21.3449 47.6258 21.1706 47.6969L21.3217 48.0673C21.5456 47.976 21.7485 47.8406 21.9176 47.6694L21.633 47.3883ZM22.0578 46.3949C22.0569 46.766 21.9056 47.1224 21.6356 47.3857L21.9149 47.6721C22.2608 47.3347 22.4566 46.8758 22.4578 46.396L22.0578 46.3949ZM21.635 45.4045C21.9038 45.6692 22.0551 46.0256 22.0578 46.3969L22.4578 46.394C22.4543 45.9152 22.2591 45.4578 21.9156 45.1195L21.635 45.4045ZM34.661 45.1283C34.4971 44.9464 34.2979 44.7985 34.0753 44.6932L33.9043 45.0548C34.0794 45.1377 34.2356 45.2538 34.3638 45.3961L34.661 45.1283ZM34.3124 45.1866V45.2622H34.7124V45.1866H34.3124ZM35.1949 46.3186C35.1914 45.8398 34.9962 45.3824 34.6528 45.0441L34.3721 45.3291C34.6409 45.5938 34.7922 45.9502 34.795 46.3216L35.1949 46.3186ZM34.6521 47.5967C34.998 47.2593 35.1937 46.8004 35.1949 46.3206L34.7949 46.3196C34.794 46.6906 34.6427 47.0471 34.3728 47.3103L34.6521 47.5967ZM34.0588 47.992C34.2828 47.9006 34.4856 47.7653 34.6547 47.5941L34.3701 47.313C34.2393 47.4454 34.082 47.5505 33.9077 47.6216L34.0588 47.992ZM33.3519 48.1258C33.5942 48.1288 33.8348 48.0833 34.0588 47.992L33.9077 47.6216C33.7334 47.6927 33.5459 47.7282 33.3569 47.7258L33.3519 48.1258ZM32.0544 47.5984C32.3999 47.9366 32.8676 48.1258 33.3544 48.1258V47.7258C32.9709 47.7258 32.604 47.5767 32.3342 47.3126L32.0544 47.5984ZM31.5138 46.3201C31.5138 46.8004 31.7088 47.2601 32.0544 47.5984L32.3342 47.3126C32.0645 47.0486 31.9138 46.6915 31.9138 46.3201H31.5138ZM31.6514 45.6262C31.5576 45.8466 31.5107 46.0836 31.5138 46.3227L31.9138 46.3175C31.9114 46.1342 31.9473 45.9523 32.0194 45.7829L31.6514 45.6262ZM32.0588 45.0414C31.8839 45.2069 31.7452 45.4058 31.6514 45.6262L32.0194 45.7829C32.0916 45.6135 32.1984 45.46 32.3338 45.3319L32.0588 45.0414ZM33.3539 44.5144C32.8676 44.5155 32.4007 44.7055 32.0562 45.044L32.3364 45.3293C32.6056 45.065 32.9718 44.9153 33.3548 44.9144L33.3539 44.5144ZM34.0753 44.6932C33.8528 44.588 33.6111 44.5273 33.3646 44.5146L33.3441 44.9141C33.5387 44.9241 33.7292 44.972 33.9043 45.0548L34.0753 44.6932ZM33.3545 44.0076C33.9033 44.0073 34.4347 44.1932 34.8582 44.5329L35.1085 44.2209C34.6132 43.8236 33.9933 43.6072 33.3542 43.6076L33.3545 44.0076ZM33.5544 43.8832V43.8076H33.1544V43.8832H33.5544ZM31.6743 44.6927C32.1277 44.2824 32.729 44.0629 33.3478 44.0831L33.3609 43.6833C32.6395 43.6598 31.9371 43.9154 31.4059 44.3961L31.6743 44.6927ZM31.0003 46.095C31.0535 45.5637 31.2934 45.0661 31.68 44.6872L31.4001 44.4015C30.9473 44.8452 30.665 45.4295 30.6023 46.0552L31.0003 46.095ZM31.3876 47.6042C31.0838 47.1596 30.9472 46.6263 31.0003 46.095L30.6023 46.0552C30.5397 46.6809 30.7008 47.3081 31.0574 47.8299L31.3876 47.6042ZM32.6691 48.533C32.1442 48.3775 31.6915 48.0488 31.3876 47.6042L31.0574 47.8299C31.4139 48.3515 31.9436 48.7352 32.5555 48.9165L32.6691 48.533ZM34.2646 48.4554C33.7581 48.6611 33.1942 48.6886 32.6691 48.533L32.5555 48.9165C33.1674 49.0978 33.8244 49.0659 34.4151 48.826L34.2646 48.4554ZM35.4452 47.4074C35.1879 47.879 34.771 48.2498 34.2646 48.4554L34.4151 48.826C35.0058 48.5862 35.4942 48.1528 35.7963 47.5989L35.4452 47.4074ZM35.6775 45.8683C35.7843 46.392 35.7023 46.9358 35.4452 47.4074L35.7963 47.5989C36.0985 47.0448 36.1952 46.4049 36.0695 45.7884L35.6775 45.8683ZM34.8582 44.5329C35.2816 44.8725 35.5707 45.3447 35.6775 45.8683L36.0695 45.7884C35.9438 45.172 35.6038 44.6182 35.1085 44.2209L34.8582 44.5329Z" fill="white" mask="url(#path-1-outside-1_12_372)"/>
</svg>
