<svg width="53" height="65" viewBox="0 0 53 65" fill="none" xmlns="http://www.w3.org/2000/svg">
<path d="M35.3675 1.66901H17.8533V13.076H35.3675V1.66901ZM17.3505 0.660645H36.3731V14.0844H16.8477V0.660645H17.3505Z" fill="white"/>
<path d="M35.3675 7.73332H17.8533V13.1136H35.3675V7.73332ZM17.3505 6.76245H36.3731V14.0845H16.8477V6.76245H17.3505Z" fill="white"/>
<path d="M32.8093 22.0624V13.8887H20.411V22.0624L23.148 25.2636H30.1659L32.8093 22.0624ZM33.9322 13.3764V22.4039L30.6337 26.288H22.5865L19.2881 22.4039V12.8643H33.9322V13.3764Z" fill="white"/>
<path d="M24.1696 14.085H22.9492V20.1867H24.1696V14.085Z" fill="white"/>
<path d="M30.2711 14.085H29.0508V20.1867H30.2711V14.085Z" fill="white"/>
<path d="M28.0913 27.1672H25.1707V29.0893H28.0913V27.1672ZM24.6601 26.2886H29.0513V29.9496H24.1699V26.2886H24.6601Z" fill="white"/>
<path d="M26.61 31.1697H25.3896V32.39H26.61V31.1697Z" fill="white"/>
<path d="M26.61 33.6099H25.3896V34.8302H26.61V33.6099Z" fill="white"/>
<path d="M26.61 37.2715H25.3896V38.4918H26.61V37.2715Z" fill="white"/>
<path d="M26.61 42.1528H25.3896V43.3732H26.61V42.1528Z" fill="white"/>
<path d="M26.61 44.5928H25.3896V47.0335H26.61V44.5928Z" fill="white"/>
<path d="M26.61 48.2544H25.3896V49.4747H26.61V48.2544Z" fill="white"/>
<path d="M47.3574 50.6946H4.64551V51.9149H47.3574V50.6946Z" fill="white"/>
<path d="M11.0932 44.7762L26.6105 50.8855L26.2472 51.9152L10.7512 45.8059L11.0932 44.7762ZM1.34678 40.9321L9.40467 44.0898L9.04128 45.1194L0.983398 41.9618L1.34678 40.9321Z" fill="white"/>
<path d="M18.8022 44.12L26.6112 51.1694L25.9228 51.9148L18.1138 44.8867L18.8022 44.12ZM13.8974 39.7114L17.9417 43.3533L17.2533 44.12L13.1875 40.4568L13.8974 39.7114Z" fill="white"/>
<path d="M42.5163 45.8059L26.9525 51.9152L26.6113 50.8855L42.0686 44.7762L42.5163 45.8059ZM52.2384 41.9618L44.2007 45.1194L43.8595 44.0898L51.8974 40.9321L52.2384 41.9618Z" fill="white"/>
<path d="M34.3861 44.8867L27.2412 51.9148L26.6113 51.1694L33.7562 44.12L34.3861 44.8867ZM38.8147 40.4568L35.0946 44.12L34.4648 43.3533L38.1849 39.7114L38.8147 40.4568Z" fill="white"/>
<path d="M3.42383 63.5636C7.0264 58.1918 12.7194 54.3071 19.3264 52.7122C25.9334 51.1174 32.9494 51.9343 38.9246 54.9941C42.8939 57.0402 46.2201 60.0076 48.5764 63.6047L47.6667 64.1184C45.4027 60.6635 42.213 57.8092 38.4071 55.8325C34.6011 53.8557 30.3082 52.8236 25.9447 52.8364C21.5925 52.8387 17.3133 53.873 13.5149 55.8407C9.7164 57.8083 6.52511 60.6439 4.24484 64.0773L3.42383 63.5636Z" fill="white"/>
</svg>
