<svg width="56" height="55" viewBox="0 0 56 55" fill="none" xmlns="http://www.w3.org/2000/svg">
<mask id="path-1-outside-1_1403_4743" maskUnits="userSpaceOnUse" x="-0.458008" y="-0.457031" width="57" height="55" fill="black">
<rect fill="white" x="-0.458008" y="-0.457031" width="57" height="55"/>
<path fill-rule="evenodd" clip-rule="evenodd" d="M41.8142 1.10908L42.3917 0.542969L55.4581 13.3513L54.8806 13.9174L53.2831 12.3515L50.965 14.6238L50.9652 14.6241L47.0687 18.4937L45.435 16.8922L41.3009 20.9446L37.8978 21.3782L37.3453 20.8366L35.6856 22.4636L33.1503 19.9283L34.7845 18.3264L34.2396 17.7922L34.6819 14.4563L34.75 14.3229L38.782 10.3706L37.1998 8.81967L37.209 8.81075L37.1831 8.78544L43.4142 2.67744L41.8142 1.10908ZM38.1531 20.5443L35.3453 17.7767L35.0733 17.5086L35.4136 14.8066L39.3605 10.9377L40.2771 11.8361L37.6026 14.4577L38.1802 15.0238L40.8546 12.4022L43.3494 14.8478L40.6678 17.4764L41.2453 18.0425L43.9269 15.4139L44.8565 16.3251L40.9266 20.194L38.1531 20.5443ZM52.7471 11.826L50.4285 14.0989L41.7089 5.56666L44.0353 3.28625L52.7471 11.826ZM38.4423 8.76877L47.1119 17.2671L49.8082 14.6241L41.1386 6.1257L38.4423 8.76877ZM36.7235 20.312L35.2942 18.9109L34.2563 19.9283L35.6856 21.3294L36.7235 20.312ZM33.9505 22.1965L34.529 21.6295L33.9505 21.0623L33.372 21.6295L33.9505 22.1965ZM33.149 22.9797L32.5705 23.5468L31.9919 22.9797L32.5705 22.4126L33.149 22.9797ZM31.1758 24.9149L31.7543 24.3478L31.1928 23.7807L30.6143 24.3478L31.1758 24.9149ZM30.377 25.6992L29.7985 26.2663L29.22 25.6992L29.7985 25.1321L30.377 25.6992ZM27.8423 27.0639L28.4198 26.4978L28.9974 27.0639L28.4198 27.63L27.8423 27.0639ZM27.6193 28.4009L27.0408 28.968L26.4623 28.4176L27.0408 27.8505L27.6193 28.4009ZM25.6465 30.3361L26.225 29.769L25.6465 29.2019L25.0679 29.769L25.6465 30.3361ZM13.9567 24.0639C13.8354 24.0574 13.7141 24.0534 13.5927 24.0519C13.2003 23.9583 12.8053 23.8732 12.4078 23.7969C10.4468 23.3554 8.40981 23.3495 6.44609 23.7795C5.73387 23.9354 5.03783 24.1473 4.3644 24.4121C3.14909 24.8805 2.0061 25.5208 0.972904 26.3155C0.916251 26.428 0.86697 26.5444 0.824874 26.6643C-0.0167334 28.3735 1.08917 31.0943 3.21957 34.1881C5.33774 37.1234 7.74259 39.8494 10.4001 42.3276C13.2183 45.0292 16.2571 47.5004 19.4862 49.7165C23.2308 52.255 26.819 54.01 29.4502 54.1968C30.5863 54.3254 31.51 54.1541 32.145 53.6195C33.2081 51.9456 33.876 50.0599 34.0997 48.1004C34.3235 46.1409 34.0974 44.1571 33.4382 42.2942C33.3006 41.8839 33.1534 41.4773 32.9969 41.0749V40.9934L33.0819 40.86C32.3322 38.8741 31.3257 36.9907 30.0872 35.2557C27.4479 31.5852 23.9917 28.5509 19.9801 26.3823C18.082 25.3597 16.0576 24.5805 13.9567 24.0639ZM12.186 24.6142C12.2754 24.6314 12.3646 24.649 12.4537 24.6671C11.7796 25.7724 12.2139 27.5779 13.3952 29.6682C15.0519 32.3559 17.1241 34.7754 19.5377 36.8403C21.8178 38.9665 24.4245 40.7282 27.2627 42.0609C29.5669 43.0136 31.4668 43.1877 32.5101 42.3747C32.5246 42.4201 32.5391 42.4655 32.5534 42.5111C33.1763 44.2517 33.3972 46.1062 33.2 47.9407C33.0029 49.7752 32.3926 51.5439 31.4134 53.1191C31.3669 53.1555 31.3184 53.1895 31.2677 53.2211C30.7303 53.4845 30.0643 53.5723 29.2957 53.5084C27.9903 53.3498 26.309 52.7196 24.4201 51.7347C21.1452 49.969 18.0561 47.8907 15.1977 45.53C12.0756 43.0437 9.17791 40.2981 6.53693 37.3238L6.50765 37.2905C5.55854 36.176 4.65458 35.0242 3.79809 33.8378C2.72917 32.2874 1.94432 30.8588 1.55008 29.6521C1.26825 28.7351 1.20432 27.9229 1.40144 27.2515C1.44976 27.1201 1.51115 26.997 1.58608 26.8825C3.07879 25.7538 4.80898 24.9646 6.65125 24.5723C7.3724 24.4187 8.10366 24.3274 8.83674 24.2984C9.95922 24.2582 11.0855 24.3635 12.186 24.6142ZM17.3592 26.202C16.0996 25.674 14.7984 25.2376 13.4657 24.8979H13.2761C12.5784 25.6818 12.9187 27.3164 14.0588 29.3179C15.6637 31.9349 17.6792 34.2877 20.0311 36.2899C22.3102 38.3521 24.9127 40.0416 27.7391 41.2937C29.8561 42.183 31.5418 42.3568 32.2555 41.6223C31.772 40.2647 31.1737 38.9541 30.4691 37.7033C29.9699 37.7886 29.4591 37.7952 28.956 37.7219C28.3058 37.6271 27.6827 37.401 27.1263 37.0579C23.5795 35.2826 20.5653 32.6326 18.3804 29.3687C17.9702 28.8651 17.6719 28.2829 17.5049 27.6596C17.3773 27.1835 17.3284 26.6914 17.3592 26.202ZM18.1521 26.5491C18.2633 27.4153 18.593 28.2412 19.1121 28.9518C21.2123 32.0777 24.1022 34.6175 27.5006 36.324C28.2856 36.7515 29.1644 36.9855 30.0614 37.0066C28.6594 34.7423 26.919 32.6833 24.8887 30.9023H24.7944C23.7854 29.9859 22.7077 29.1534 21.5726 28.4106C20.4783 27.7109 19.3351 27.0889 18.1521 26.5491Z"/>
</mask>
<path fill-rule="evenodd" clip-rule="evenodd" d="M41.8142 1.10908L42.3917 0.542969L55.4581 13.3513L54.8806 13.9174L53.2831 12.3515L50.965 14.6238L50.9652 14.6241L47.0687 18.4937L45.435 16.8922L41.3009 20.9446L37.8978 21.3782L37.3453 20.8366L35.6856 22.4636L33.1503 19.9283L34.7845 18.3264L34.2396 17.7922L34.6819 14.4563L34.75 14.3229L38.782 10.3706L37.1998 8.81967L37.209 8.81075L37.1831 8.78544L43.4142 2.67744L41.8142 1.10908ZM38.1531 20.5443L35.3453 17.7767L35.0733 17.5086L35.4136 14.8066L39.3605 10.9377L40.2771 11.8361L37.6026 14.4577L38.1802 15.0238L40.8546 12.4022L43.3494 14.8478L40.6678 17.4764L41.2453 18.0425L43.9269 15.4139L44.8565 16.3251L40.9266 20.194L38.1531 20.5443ZM52.7471 11.826L50.4285 14.0989L41.7089 5.56666L44.0353 3.28625L52.7471 11.826ZM38.4423 8.76877L47.1119 17.2671L49.8082 14.6241L41.1386 6.1257L38.4423 8.76877ZM36.7235 20.312L35.2942 18.9109L34.2563 19.9283L35.6856 21.3294L36.7235 20.312ZM33.9505 22.1965L34.529 21.6295L33.9505 21.0623L33.372 21.6295L33.9505 22.1965ZM33.149 22.9797L32.5705 23.5468L31.9919 22.9797L32.5705 22.4126L33.149 22.9797ZM31.1758 24.9149L31.7543 24.3478L31.1928 23.7807L30.6143 24.3478L31.1758 24.9149ZM30.377 25.6992L29.7985 26.2663L29.22 25.6992L29.7985 25.1321L30.377 25.6992ZM27.8423 27.0639L28.4198 26.4978L28.9974 27.0639L28.4198 27.63L27.8423 27.0639ZM27.6193 28.4009L27.0408 28.968L26.4623 28.4176L27.0408 27.8505L27.6193 28.4009ZM25.6465 30.3361L26.225 29.769L25.6465 29.2019L25.0679 29.769L25.6465 30.3361ZM13.9567 24.0639C13.8354 24.0574 13.7141 24.0534 13.5927 24.0519C13.2003 23.9583 12.8053 23.8732 12.4078 23.7969C10.4468 23.3554 8.40981 23.3495 6.44609 23.7795C5.73387 23.9354 5.03783 24.1473 4.3644 24.4121C3.14909 24.8805 2.0061 25.5208 0.972904 26.3155C0.916251 26.428 0.86697 26.5444 0.824874 26.6643C-0.0167334 28.3735 1.08917 31.0943 3.21957 34.1881C5.33774 37.1234 7.74259 39.8494 10.4001 42.3276C13.2183 45.0292 16.2571 47.5004 19.4862 49.7165C23.2308 52.255 26.819 54.01 29.4502 54.1968C30.5863 54.3254 31.51 54.1541 32.145 53.6195C33.2081 51.9456 33.876 50.0599 34.0997 48.1004C34.3235 46.1409 34.0974 44.1571 33.4382 42.2942C33.3006 41.8839 33.1534 41.4773 32.9969 41.0749V40.9934L33.0819 40.86C32.3322 38.8741 31.3257 36.9907 30.0872 35.2557C27.4479 31.5852 23.9917 28.5509 19.9801 26.3823C18.082 25.3597 16.0576 24.5805 13.9567 24.0639ZM12.186 24.6142C12.2754 24.6314 12.3646 24.649 12.4537 24.6671C11.7796 25.7724 12.2139 27.5779 13.3952 29.6682C15.0519 32.3559 17.1241 34.7754 19.5377 36.8403C21.8178 38.9665 24.4245 40.7282 27.2627 42.0609C29.5669 43.0136 31.4668 43.1877 32.5101 42.3747C32.5246 42.4201 32.5391 42.4655 32.5534 42.5111C33.1763 44.2517 33.3972 46.1062 33.2 47.9407C33.0029 49.7752 32.3926 51.5439 31.4134 53.1191C31.3669 53.1555 31.3184 53.1895 31.2677 53.2211C30.7303 53.4845 30.0643 53.5723 29.2957 53.5084C27.9903 53.3498 26.309 52.7196 24.4201 51.7347C21.1452 49.969 18.0561 47.8907 15.1977 45.53C12.0756 43.0437 9.17791 40.2981 6.53693 37.3238L6.50765 37.2905C5.55854 36.176 4.65458 35.0242 3.79809 33.8378C2.72917 32.2874 1.94432 30.8588 1.55008 29.6521C1.26825 28.7351 1.20432 27.9229 1.40144 27.2515C1.44976 27.1201 1.51115 26.997 1.58608 26.8825C3.07879 25.7538 4.80898 24.9646 6.65125 24.5723C7.3724 24.4187 8.10366 24.3274 8.83674 24.2984C9.95922 24.2582 11.0855 24.3635 12.186 24.6142ZM17.3592 26.202C16.0996 25.674 14.7984 25.2376 13.4657 24.8979H13.2761C12.5784 25.6818 12.9187 27.3164 14.0588 29.3179C15.6637 31.9349 17.6792 34.2877 20.0311 36.2899C22.3102 38.3521 24.9127 40.0416 27.7391 41.2937C29.8561 42.183 31.5418 42.3568 32.2555 41.6223C31.772 40.2647 31.1737 38.9541 30.4691 37.7033C29.9699 37.7886 29.4591 37.7952 28.956 37.7219C28.3058 37.6271 27.6827 37.401 27.1263 37.0579C23.5795 35.2826 20.5653 32.6326 18.3804 29.3687C17.9702 28.8651 17.6719 28.2829 17.5049 27.6596C17.3773 27.1835 17.3284 26.6914 17.3592 26.202ZM18.1521 26.5491C18.2633 27.4153 18.593 28.2412 19.1121 28.9518C21.2123 32.0777 24.1022 34.6175 27.5006 36.324C28.2856 36.7515 29.1644 36.9855 30.0614 37.0066C28.6594 34.7423 26.919 32.6833 24.8887 30.9023H24.7944C23.7854 29.9859 22.7077 29.1534 21.5726 28.4106C20.4783 27.7109 19.3351 27.0889 18.1521 26.5491Z" fill="white"/>
<path d="M42.3917 0.542969L42.6018 0.328732L42.3917 0.122873L42.1817 0.328732L42.3917 0.542969ZM41.8142 1.10908L41.6042 0.894841L41.3857 1.10908L41.6042 1.32332L41.8142 1.10908ZM55.4581 13.3513L55.6681 13.5655L55.8867 13.3513L55.6681 13.1371L55.4581 13.3513ZM54.8806 13.9174L54.6706 14.1316L54.8806 14.3375L55.0906 14.1316L54.8806 13.9174ZM53.2831 12.3515L53.4931 12.1372L53.2831 11.9314L53.0731 12.1372L53.2831 12.3515ZM50.965 14.6238L50.755 14.4096L50.5358 14.6244L50.7555 14.8386L50.965 14.6238ZM50.9652 14.6241L51.1766 14.8369L51.393 14.6221L51.1747 14.4093L50.9652 14.6241ZM47.0687 18.4937L46.8587 18.7079L47.0701 18.9151L47.2801 18.7065L47.0687 18.4937ZM45.435 16.8922L45.645 16.6779L45.435 16.4721L45.2249 16.6779L45.435 16.8922ZM41.3009 20.9446L41.3388 21.2422L41.4389 21.2294L41.5109 21.1588L41.3009 20.9446ZM37.8978 21.3782L37.6878 21.5925L37.7916 21.6942L37.9358 21.6758L37.8978 21.3782ZM37.3453 20.8366L37.5553 20.6224L37.3453 20.4165L37.1353 20.6224L37.3453 20.8366ZM35.6856 22.4636L35.4735 22.6757L35.6835 22.8858L35.8956 22.6778L35.6856 22.4636ZM33.1503 19.9283L32.9403 19.7141L32.7239 19.9262L32.9382 20.1405L33.1503 19.9283ZM34.7845 18.3264L34.9945 18.5406L35.2131 18.3264L34.9945 18.1122L34.7845 18.3264ZM34.2396 17.7922L33.9422 17.7527L33.9224 17.9014L34.0295 18.0064L34.2396 17.7922ZM34.6819 14.4563L34.4147 14.32L34.3913 14.3658L34.3845 14.4169L34.6819 14.4563ZM34.75 14.3229L34.54 14.1086L34.505 14.1429L34.4828 14.1866L34.75 14.3229ZM38.782 10.3706L38.992 10.5848L39.2105 10.3706L38.992 10.1563L38.782 10.3706ZM37.1998 8.81967L36.9903 8.60496L36.7708 8.81919L36.9898 9.0339L37.1998 8.81967ZM37.209 8.81075L37.4185 9.02546L37.638 8.81123L37.419 8.59651L37.209 8.81075ZM37.1831 8.78544L36.9731 8.5712L36.7546 8.78544L36.9731 8.99968L37.1831 8.78544ZM43.4142 2.67744L43.6242 2.89168L43.8428 2.67744L43.6242 2.46321L43.4142 2.67744ZM35.3453 17.7767L35.1347 17.9904L35.1347 17.9904L35.3453 17.7767ZM38.1531 20.5443L37.9425 20.7579L38.0462 20.8601L38.1907 20.8419L38.1531 20.5443ZM35.0733 17.5086L34.7757 17.4711L34.7571 17.6182L34.8627 17.7223L35.0733 17.5086ZM35.4136 14.8066L35.2036 14.5923L35.129 14.6654L35.116 14.7691L35.4136 14.8066ZM39.3605 10.9377L39.5705 10.7234L39.3605 10.5176L39.1505 10.7234L39.3605 10.9377ZM40.2771 11.8361L40.4871 12.0504L40.7056 11.8361L40.4871 11.6219L40.2771 11.8361ZM37.6026 14.4577L37.3926 14.2435L37.1741 14.4577L37.3926 14.672L37.6026 14.4577ZM38.1802 15.0238L37.9701 15.2381L38.1802 15.4439L38.3902 15.2381L38.1802 15.0238ZM40.8546 12.4022L41.0646 12.188L40.8546 11.9821L40.6446 12.188L40.8546 12.4022ZM43.3494 14.8478L43.5594 15.062L43.7779 14.8478L43.5594 14.6335L43.3494 14.8478ZM40.6678 17.4764L40.4578 17.2622L40.2392 17.4764L40.4578 17.6906L40.6678 17.4764ZM41.2453 18.0425L41.0353 18.2567L41.2453 18.4626L41.4553 18.2567L41.2453 18.0425ZM43.9269 15.4139L44.1369 15.1996L43.9269 14.9938L43.7169 15.1996L43.9269 15.4139ZM44.8565 16.3251L45.067 16.5389L45.2846 16.3247L45.0665 16.1109L44.8565 16.3251ZM40.9266 20.194L40.9642 20.4916L41.0648 20.4789L41.1371 20.4078L40.9266 20.194ZM50.4285 14.0989L50.2187 14.3133L50.4287 14.5188L50.6385 14.3131L50.4285 14.0989ZM52.7471 11.826L52.9571 12.0403L53.1757 11.826L52.9571 11.6118L52.7471 11.826ZM41.7089 5.56666L41.4989 5.35243L41.2802 5.56685L41.4991 5.78109L41.7089 5.56666ZM44.0353 3.28625L44.2453 3.07201L44.0353 2.86615L43.8253 3.07201L44.0353 3.28625ZM47.1119 17.2671L46.9019 17.4814L47.1119 17.6872L47.3219 17.4814L47.1119 17.2671ZM38.4423 8.76877L38.2323 8.55453L38.0137 8.76877L38.2323 8.98301L38.4423 8.76877ZM49.8082 14.6241L50.0182 14.8383L50.2367 14.6241L50.0182 14.4098L49.8082 14.6241ZM41.1386 6.1257L41.3486 5.91146L41.1386 5.70561L40.9286 5.91146L41.1386 6.1257ZM35.2942 18.9109L35.5042 18.6967L35.2942 18.4908L35.0842 18.6967L35.2942 18.9109ZM36.7235 20.312L36.9335 20.5262L37.1521 20.312L36.9335 20.0977L36.7235 20.312ZM34.2563 19.9283L34.0463 19.7141L33.8277 19.9283L34.0463 20.1426L34.2563 19.9283ZM35.6856 21.3294L35.4756 21.5436L35.6856 21.7495L35.8956 21.5436L35.6856 21.3294ZM34.529 21.6295L34.739 21.8437L34.9576 21.6295L34.739 21.4152L34.529 21.6295ZM33.9505 22.1965L33.7405 22.4108L33.9505 22.6166L34.1605 22.4108L33.9505 22.1965ZM33.9505 21.0623L34.1605 20.8481L33.9505 20.6422L33.7405 20.8481L33.9505 21.0623ZM33.372 21.6295L33.162 21.4152L32.9434 21.6295L33.162 21.8437L33.372 21.6295ZM32.5705 23.5468L32.3604 23.761L32.5705 23.9669L32.7805 23.761L32.5705 23.5468ZM33.149 22.9797L33.359 23.1939L33.5775 22.9797L33.359 22.7654L33.149 22.9797ZM31.9919 22.9797L31.7819 22.7654L31.5634 22.9797L31.7819 23.1939L31.9919 22.9797ZM32.5705 22.4126L32.7805 22.1983L32.5705 21.9925L32.3604 22.1983L32.5705 22.4126ZM31.7543 24.3478L31.9643 24.562L32.1796 24.351L31.9675 24.1367L31.7543 24.3478ZM31.1758 24.9149L30.9626 25.126L31.1726 25.3381L31.3858 25.1291L31.1758 24.9149ZM31.1928 23.7807L31.406 23.5696L31.196 23.3575L30.9828 23.5664L31.1928 23.7807ZM30.6143 24.3478L30.4043 24.1335L30.189 24.3446L30.4011 24.5589L30.6143 24.3478ZM29.7985 26.2663L29.5885 26.4806L29.7985 26.6864L30.0085 26.4806L29.7985 26.2663ZM30.377 25.6992L30.587 25.9135L30.8055 25.6992L30.587 25.485L30.377 25.6992ZM29.22 25.6992L29.0099 25.485L28.7914 25.6992L29.01 25.9135L29.22 25.6992ZM29.7985 25.1321L30.0085 24.9179L29.7985 24.712L29.5885 24.9179L29.7985 25.1321ZM28.4198 26.4978L28.6299 26.2836L28.4198 26.0777L28.2098 26.2836L28.4198 26.4978ZM27.8423 27.0639L27.6323 26.8497L27.4137 27.0639L27.6323 27.2782L27.8423 27.0639ZM28.9974 27.0639L29.2074 27.2781L29.4259 27.0639L29.2074 26.8497L28.9974 27.0639ZM28.4198 27.63L28.2098 27.8443L28.4198 28.0501L28.6298 27.8443L28.4198 27.63ZM27.0408 28.968L26.834 29.1853L27.0439 29.385L27.2508 29.1822L27.0408 28.968ZM27.6193 28.4009L27.8293 28.6151L28.0512 28.3977L27.8261 28.1835L27.6193 28.4009ZM26.4623 28.4176L26.2523 28.2033L26.0304 28.4208L26.2555 28.6349L26.4623 28.4176ZM27.0408 27.8505L27.2476 27.6331L27.0377 27.4334L26.8308 27.6362L27.0408 27.8505ZM26.225 29.769L26.435 29.9832L26.6535 29.769L26.435 29.5548L26.225 29.769ZM25.6465 30.3361L25.4365 30.5503L25.6465 30.7562L25.8565 30.5503L25.6465 30.3361ZM25.6465 29.2019L25.8565 28.9877L25.6465 28.7818L25.4365 28.9877L25.6465 29.2019ZM25.0679 29.769L24.8579 29.5548L24.6394 29.769L24.8579 29.9832L25.0679 29.769ZM13.5927 24.0519L13.523 24.3437L13.5555 24.3515L13.5889 24.3519L13.5927 24.0519ZM13.9567 24.0639L14.0283 23.7726L14.0009 23.7659L13.9727 23.7643L13.9567 24.0639ZM12.4078 23.7969L12.3419 24.0897L12.3513 24.0915L12.4078 23.7969ZM6.44609 23.7795L6.51026 24.0725H6.51026L6.44609 23.7795ZM4.3644 24.4121L4.4723 24.692L4.47418 24.6913L4.3644 24.4121ZM0.972904 26.3155L0.790007 26.0777L0.735717 26.1194L0.704928 26.1806L0.972904 26.3155ZM0.824874 26.6643L1.09401 26.7969L1.10198 26.7807L1.10796 26.7637L0.824874 26.6643ZM3.21957 34.1881L2.97242 34.3583L2.9763 34.3636L3.21957 34.1881ZM10.4001 42.3276L10.6077 42.111L10.6047 42.1082L10.4001 42.3276ZM19.4862 49.7165L19.3165 49.9639L19.3179 49.9648L19.4862 49.7165ZM29.4502 54.1968L29.484 53.8984L29.4714 53.8975L29.4502 54.1968ZM32.145 53.6195L32.3382 53.849L32.3735 53.8193L32.3983 53.7803L32.145 53.6195ZM34.0997 48.1004L33.8017 48.0664L34.0997 48.1004ZM33.4382 42.2942L33.1537 42.3896L33.1554 42.3943L33.4382 42.2942ZM32.9969 41.0749H32.6969V41.1312L32.7173 41.1836L32.9969 41.0749ZM32.9969 40.9934L32.7439 40.8321L32.6969 40.9059V40.9934H32.9969ZM33.0819 40.86L33.3349 41.0213L33.4157 40.8946L33.3626 40.754L33.0819 40.86ZM30.0872 35.2557L30.3314 35.0814L30.3308 35.0806L30.0872 35.2557ZM19.9801 26.3823L20.1228 26.1184L20.1224 26.1182L19.9801 26.3823ZM12.4537 24.6671L12.7098 24.8234L12.9325 24.4584L12.5135 24.3732L12.4537 24.6671ZM12.186 24.6142L12.1194 24.9068L12.1293 24.9087L12.186 24.6142ZM13.3952 29.6682L13.1338 29.8159L13.1398 29.8256L13.3952 29.6682ZM19.5377 36.8403L19.7425 36.6207L19.7327 36.6123L19.5377 36.8403ZM27.2627 42.0609L27.135 42.3328L27.148 42.3382L27.2627 42.0609ZM32.5101 42.3747L32.7957 42.283L32.6645 41.874L32.3256 42.138L32.5101 42.3747ZM32.5534 42.5111L32.267 42.6011L32.2709 42.6121L32.5534 42.5111ZM33.2 47.9407L32.9017 47.9087L33.2 47.9407ZM31.4134 53.1191L31.5985 53.3552L31.6402 53.3225L31.6681 53.2775L31.4134 53.1191ZM31.2677 53.2211L31.3997 53.4905L31.4135 53.4837L31.4265 53.4756L31.2677 53.2211ZM29.2957 53.5084L29.2595 53.8064L29.2709 53.8073L29.2957 53.5084ZM24.4201 51.7347L24.2777 51.9988L24.2814 52.0007L24.4201 51.7347ZM15.1977 45.53L15.3888 45.2987L15.3846 45.2954L15.1977 45.53ZM6.53693 37.3238L6.3117 37.522L6.3126 37.523L6.53693 37.3238ZM6.50765 37.2905L6.27922 37.485L6.28242 37.4887L6.50765 37.2905ZM3.79809 33.8378L3.55104 34.0081L3.55485 34.0134L3.79809 33.8378ZM1.55008 29.6521L1.26327 29.7402L1.26491 29.7452L1.55008 29.6521ZM1.40144 27.2515L1.11987 27.148L1.11641 27.1574L1.11359 27.167L1.40144 27.2515ZM1.58608 26.8825L1.40514 26.6433L1.36363 26.6746L1.33512 26.7182L1.58608 26.8825ZM6.65125 24.5723L6.58876 24.2789H6.58876L6.65125 24.5723ZM8.83674 24.2984L8.826 23.9986L8.82487 23.9986L8.83674 24.2984ZM13.4657 24.8979L13.5398 24.6072L13.5033 24.5979H13.4657V24.8979ZM17.3592 26.202L17.6586 26.2208L17.6719 26.0079L17.4751 25.9254L17.3592 26.202ZM13.2761 24.8979V24.5979H13.1415L13.052 24.6984L13.2761 24.8979ZM14.0588 29.3179L13.7979 29.4665L13.803 29.4748L14.0588 29.3179ZM20.0311 36.2899L20.2325 36.0673L20.2256 36.0614L20.0311 36.2899ZM27.7391 41.2937L27.6176 41.568L27.6229 41.5702L27.7391 41.2937ZM32.2555 41.6223L32.4706 41.8314L32.6007 41.6975L32.5381 41.5217L32.2555 41.6223ZM30.4691 37.7033L30.7304 37.5561L30.6268 37.3721L30.4186 37.4076L30.4691 37.7033ZM28.956 37.7219L28.9128 38.0187H28.9128L28.956 37.7219ZM27.1263 37.0579L27.2838 36.8025L27.2725 36.7956L27.2606 36.7896L27.1263 37.0579ZM18.3804 29.3687L18.6297 29.2019L18.6219 29.1902L18.613 29.1793L18.3804 29.3687ZM17.5049 27.6596L17.2151 27.7373L17.5049 27.6596ZM18.1521 26.5491L18.2766 26.2761L17.7858 26.0522L17.8545 26.5872L18.1521 26.5491ZM19.1121 28.9518L19.3613 28.7843L19.3543 28.7748L19.1121 28.9518ZM27.5006 36.324L27.6442 36.0604L27.6352 36.0559L27.5006 36.324ZM30.0614 37.0066L30.0544 37.3065L30.608 37.3195L30.3165 36.8487L30.0614 37.0066ZM24.8887 30.9023L25.0865 30.6767L25.0016 30.6023H24.8887V30.9023ZM24.7944 30.9023L24.5927 31.1243L24.6785 31.2023H24.7944V30.9023ZM21.5726 28.4106L21.7369 28.1596L21.7342 28.1579L21.5726 28.4106ZM42.1817 0.328732L41.6042 0.894841L42.0242 1.32332L42.6018 0.757206L42.1817 0.328732ZM55.6681 13.1371L42.6018 0.328732L42.1817 0.757206L55.2481 13.5655L55.6681 13.1371ZM55.0906 14.1316L55.6681 13.5655L55.2481 13.1371L54.6706 13.7032L55.0906 14.1316ZM53.0731 12.5657L54.6706 14.1316L55.0906 13.7032L53.4931 12.1372L53.0731 12.5657ZM51.175 14.838L53.4931 12.5657L53.0731 12.1372L50.755 14.4096L51.175 14.838ZM51.1747 14.4093L51.1744 14.409L50.7555 14.8386L50.7558 14.8389L51.1747 14.4093ZM47.2801 18.7065L51.1766 14.8369L50.7538 14.4112L46.8573 18.2808L47.2801 18.7065ZM45.2249 17.1064L46.8587 18.7079L47.2787 18.2794L45.645 16.6779L45.2249 17.1064ZM41.5109 21.1588L45.645 17.1064L45.2249 16.6779L41.0909 20.7303L41.5109 21.1588ZM37.9358 21.6758L41.3388 21.2422L41.263 20.647L37.8599 21.0806L37.9358 21.6758ZM37.1353 21.0509L37.6878 21.5925L38.1079 21.164L37.5553 20.6224L37.1353 21.0509ZM35.8956 22.6778L37.5553 21.0509L37.1353 20.6224L35.4756 22.2494L35.8956 22.6778ZM32.9382 20.1405L35.4735 22.6757L35.8977 22.2515L33.3624 19.7162L32.9382 20.1405ZM34.5745 18.1122L32.9403 19.7141L33.3603 20.1426L34.9945 18.5406L34.5745 18.1122ZM34.0295 18.0064L34.5745 18.5406L34.9945 18.1122L34.4496 17.5779L34.0295 18.0064ZM34.3845 14.4169L33.9422 17.7527L34.537 17.8316L34.9793 14.4958L34.3845 14.4169ZM34.4828 14.1866L34.4147 14.32L34.9492 14.5926L35.0173 14.4592L34.4828 14.1866ZM38.572 10.1563L34.54 14.1086L34.96 14.5371L38.992 10.5848L38.572 10.1563ZM36.9898 9.0339L38.572 10.5848L38.992 10.1563L37.4098 8.60543L36.9898 9.0339ZM36.9994 8.59605L36.9903 8.60496L37.4094 9.03437L37.4185 9.02546L36.9994 8.59605ZM36.9731 8.99968L36.999 9.02499L37.419 8.59651L37.3932 8.5712L36.9731 8.99968ZM43.2042 2.46321L36.9731 8.5712L37.3932 8.99968L43.6242 2.89168L43.2042 2.46321ZM41.6042 1.32332L43.2042 2.89168L43.6242 2.46321L42.0242 0.894841L41.6042 1.32332ZM35.1347 17.9904L37.9425 20.7579L38.3637 20.3306L35.5559 17.5631L35.1347 17.9904ZM34.8627 17.7223L35.1347 17.9904L35.5559 17.5631L35.2839 17.295L34.8627 17.7223ZM35.116 14.7691L34.7757 17.4711L35.371 17.5461L35.7113 14.8441L35.116 14.7691ZM39.1505 10.7234L35.2036 14.5923L35.6236 15.0208L39.5705 11.1519L39.1505 10.7234ZM40.4871 11.6219L39.5705 10.7234L39.1505 11.1519L40.067 12.0504L40.4871 11.6219ZM37.8126 14.672L40.4871 12.0504L40.067 11.6219L37.3926 14.2435L37.8126 14.672ZM38.3902 14.8096L37.8126 14.2435L37.3926 14.672L37.9701 15.2381L38.3902 14.8096ZM40.6446 12.188L37.9701 14.8096L38.3902 15.2381L41.0646 12.6165L40.6446 12.188ZM43.5594 14.6335L41.0646 12.188L40.6446 12.6165L43.1394 15.062L43.5594 14.6335ZM40.8778 17.6906L43.5594 15.062L43.1394 14.6335L40.4578 17.2622L40.8778 17.6906ZM41.4553 17.8283L40.8778 17.2622L40.4578 17.6906L41.0353 18.2567L41.4553 17.8283ZM43.7169 15.1996L41.0353 17.8283L41.4553 18.2567L44.1369 15.6281L43.7169 15.1996ZM45.0665 16.1109L44.1369 15.1996L43.7169 15.6281L44.6465 16.5394L45.0665 16.1109ZM41.1371 20.4078L45.067 16.5389L44.646 16.1114L40.7161 19.9802L41.1371 20.4078ZM38.1907 20.8419L40.9642 20.4916L40.889 19.8964L38.1155 20.2466L38.1907 20.8419ZM50.6385 14.3131L52.9571 12.0403L52.5371 11.6118L50.2185 13.8846L50.6385 14.3131ZM41.4991 5.78109L50.2187 14.3133L50.6383 13.8844L41.9187 5.35224L41.4991 5.78109ZM43.8253 3.07201L41.4989 5.35243L41.9189 5.7809L44.2453 3.50049L43.8253 3.07201ZM52.9571 11.6118L44.2453 3.07201L43.8253 3.50049L52.5371 12.0403L52.9571 11.6118ZM47.3219 17.0529L38.6523 8.55453L38.2323 8.98301L46.9019 17.4814L47.3219 17.0529ZM49.5982 14.4098L46.9019 17.0529L47.3219 17.4814L50.0182 14.8383L49.5982 14.4098ZM40.9286 6.33994L49.5982 14.8383L50.0182 14.4098L41.3486 5.91146L40.9286 6.33994ZM38.6523 8.98301L41.3486 6.33994L40.9286 5.91146L38.2323 8.55453L38.6523 8.98301ZM35.0842 19.1251L36.5135 20.5262L36.9335 20.0977L35.5042 18.6967L35.0842 19.1251ZM34.4663 20.1426L35.5042 19.1251L35.0842 18.6967L34.0463 19.7141L34.4663 20.1426ZM35.8956 21.1152L34.4663 19.7141L34.0463 20.1426L35.4756 21.5436L35.8956 21.1152ZM36.5135 20.0977L35.4756 21.1152L35.8956 21.5436L36.9335 20.5262L36.5135 20.0977ZM34.319 21.4152L33.7405 21.9823L34.1605 22.4108L34.739 21.8437L34.319 21.4152ZM33.7405 21.2766L34.319 21.8437L34.739 21.4152L34.1605 20.8481L33.7405 21.2766ZM33.582 21.8437L34.1605 21.2766L33.7405 20.8481L33.162 21.4152L33.582 21.8437ZM34.1605 21.9823L33.582 21.4152L33.162 21.8437L33.7405 22.4108L34.1605 21.9823ZM32.7805 23.761L33.359 23.1939L32.939 22.7654L32.3604 23.3325L32.7805 23.761ZM31.7819 23.1939L32.3604 23.761L32.7805 23.3325L32.2019 22.7654L31.7819 23.1939ZM32.3604 22.1983L31.7819 22.7654L32.2019 23.1939L32.7805 22.6268L32.3604 22.1983ZM33.359 22.7654L32.7805 22.1983L32.3604 22.6268L32.939 23.1939L33.359 22.7654ZM31.5443 24.1335L30.9658 24.7007L31.3858 25.1291L31.9643 24.562L31.5443 24.1335ZM30.9796 23.9918L31.5411 24.5589L31.9675 24.1367L31.406 23.5696L30.9796 23.9918ZM30.8243 24.562L31.4028 23.9949L30.9828 23.5664L30.4043 24.1335L30.8243 24.562ZM31.389 24.7038L30.8275 24.1367L30.4011 24.5589L30.9626 25.126L31.389 24.7038ZM30.0085 26.4806L30.587 25.9135L30.167 25.485L29.5885 26.0521L30.0085 26.4806ZM29.01 25.9135L29.5885 26.4806L30.0085 26.0521L29.43 25.485L29.01 25.9135ZM29.5885 24.9179L29.0099 25.485L29.43 25.9135L30.0085 25.3464L29.5885 24.9179ZM30.587 25.485L30.0085 24.9179L29.5885 25.3464L30.167 25.9135L30.587 25.485ZM28.2098 26.2836L27.6323 26.8497L28.0523 27.2782L28.6299 26.712L28.2098 26.2836ZM29.2074 26.8497L28.6299 26.2836L28.2098 26.712L28.7874 27.2781L29.2074 26.8497ZM28.6298 27.8443L29.2074 27.2781L28.7874 26.8497L28.2098 27.4158L28.6298 27.8443ZM27.6323 27.2782L28.2098 27.8443L28.6298 27.4158L28.0523 26.8497L27.6323 27.2782ZM27.2508 29.1822L27.8293 28.6151L27.4093 28.1867L26.8308 28.7537L27.2508 29.1822ZM26.2555 28.6349L26.834 29.1853L27.2476 28.7506L26.6691 28.2002L26.2555 28.6349ZM26.8308 27.6362L26.2523 28.2033L26.6723 28.6318L27.2508 28.0647L26.8308 27.6362ZM27.8261 28.1835L27.2476 27.6331L26.834 28.0678L27.4125 28.6182L27.8261 28.1835ZM26.015 29.5548L25.4365 30.1219L25.8565 30.5503L26.435 29.9832L26.015 29.5548ZM25.4365 29.4161L26.015 29.9832L26.435 29.5548L25.8565 28.9877L25.4365 29.4161ZM25.278 29.9832L25.8565 29.4161L25.4365 28.9877L24.8579 29.5548L25.278 29.9832ZM25.8565 30.1219L25.278 29.5548L24.8579 29.9832L25.4365 30.5503L25.8565 30.1219ZM13.5889 24.3519C13.7062 24.3534 13.8235 24.3572 13.9407 24.3635L13.9727 23.7643C13.8473 23.7577 13.7219 23.7535 13.5965 23.7519L13.5889 24.3519ZM12.3513 24.0915C12.7443 24.167 13.135 24.2511 13.523 24.3437L13.6624 23.7601C13.2657 23.6654 12.8663 23.5794 12.4644 23.5022L12.3513 24.0915ZM6.51026 24.0725C8.43113 23.6519 10.4237 23.6577 12.342 24.0895L12.4737 23.5042C10.4699 23.0531 8.38849 23.047 6.38192 23.4864L6.51026 24.0725ZM4.47418 24.6913C5.13282 24.4323 5.81361 24.2251 6.51026 24.0725L6.38192 23.4864C5.65414 23.6458 4.94285 23.8623 4.25462 24.1329L4.47418 24.6913ZM1.1558 26.5532C2.16597 25.7763 3.28367 25.1502 4.4723 24.692L4.2565 24.1322C3.01451 24.6109 1.84622 25.2653 0.790007 26.0777L1.1558 26.5532ZM1.10796 26.7637C1.14588 26.6556 1.19015 26.5511 1.24088 26.4503L0.704928 26.1806C0.642348 26.3049 0.588056 26.4332 0.541793 26.565L1.10796 26.7637ZM3.46666 34.0179C2.40876 32.4816 1.6166 31.0537 1.1916 29.81C0.76442 28.5598 0.724986 27.5463 1.09401 26.7969L0.555735 26.5318C0.0831545 27.4915 0.17587 28.693 0.623836 30.004C1.07399 31.3214 1.89998 32.8007 2.97248 34.3582L3.46666 34.0179ZM10.6047 42.1082C7.96142 39.6433 5.56953 36.9319 3.46284 34.0125L2.9763 34.3636C5.10594 37.3148 7.52376 40.0555 10.1954 42.547L10.6047 42.1082ZM19.656 49.4692C16.4403 47.2623 13.4141 44.8013 10.6077 42.111L10.1924 42.5441C13.0225 45.2571 16.074 47.7386 19.3165 49.9639L19.656 49.4692ZM29.4714 53.8975C26.9259 53.7168 23.3951 52.0039 19.6546 49.4682L19.3179 49.9648C23.0665 52.5061 26.7121 54.3032 29.4289 54.496L29.4714 53.8975ZM31.9518 53.39C31.4065 53.8491 30.5809 54.0228 29.4839 53.8987L29.4164 54.4949C30.5917 54.6279 31.6135 54.4591 32.3382 53.849L31.9518 53.39ZM33.8017 48.0664C33.5831 49.9805 32.9307 51.8229 31.8918 53.4586L32.3983 53.7803C33.4856 52.0683 34.1689 50.1393 34.3978 48.1344L33.8017 48.0664ZM33.1554 42.3943C33.7994 44.2143 34.0202 46.1522 33.8017 48.0664L34.3978 48.1344C34.6267 46.1295 34.3954 44.0999 33.721 42.1942L33.1554 42.3943ZM32.7173 41.1836C32.8721 41.5817 33.0177 41.9838 33.1538 42.3896L33.7226 42.1988C33.5835 41.784 33.4347 41.373 33.2764 40.9661L32.7173 41.1836ZM32.6969 40.9934V41.0749H33.2969V40.9934H32.6969ZM32.829 40.6987L32.7439 40.8321L33.2498 41.1547L33.3349 41.0213L32.829 40.6987ZM29.8431 35.4301C31.0666 37.144 32.0607 39.0044 32.8013 40.966L33.3626 40.754C32.6037 38.7438 31.5849 36.8374 30.3314 35.0814L29.8431 35.4301ZM19.8374 26.6462C23.8095 28.7934 27.231 31.7975 29.8436 35.4309L30.3308 35.0806C27.6647 31.3729 24.174 28.3084 20.1228 26.1184L19.8374 26.6462ZM13.885 24.3552C15.9614 24.8658 17.962 25.6358 19.8378 26.6464L20.1224 26.1182C18.2019 25.0835 16.1537 24.2952 14.0283 23.7726L13.885 24.3552ZM12.5135 24.3732C12.4234 24.3548 12.3331 24.337 12.2427 24.3196L12.1293 24.9087C12.2176 24.9258 12.3058 24.9432 12.3939 24.9611L12.5135 24.3732ZM13.6563 29.5206C13.0745 28.4909 12.6862 27.5476 12.5227 26.7388C12.3588 25.9277 12.4272 25.2867 12.7098 24.8234L12.1976 24.5109C11.806 25.1529 11.7546 25.9673 11.9346 26.8577C12.1151 27.7505 12.5346 28.7551 13.134 29.8158L13.6563 29.5206ZM19.7327 36.6123C17.3426 34.5676 15.2909 32.1718 13.6505 29.5108L13.1398 29.8256C14.813 32.54 16.9055 34.9833 19.3427 37.0682L19.7327 36.6123ZM27.3902 41.7894C24.5801 40.4698 21.9994 38.7257 19.7423 36.6209L19.3331 37.0597C21.6361 39.2073 24.2689 40.9866 27.1352 42.3325L27.3902 41.7894ZM32.3256 42.138C31.8838 42.4823 31.2323 42.6388 30.3796 42.5806C29.5294 42.5226 28.5114 42.2525 27.3773 41.7837L27.148 42.3382C28.3182 42.8219 29.4022 43.1153 30.3388 43.1792C31.273 43.243 32.093 43.08 32.6945 42.6113L32.3256 42.138ZM32.8396 42.421C32.8251 42.375 32.8105 42.329 32.7957 42.283L32.2244 42.4663C32.2388 42.5112 32.2531 42.5561 32.2672 42.6011L32.8396 42.421ZM33.4983 47.9728C33.7003 46.0932 33.474 44.1931 32.8358 42.41L32.2709 42.6121C32.8786 44.3103 33.0941 46.1193 32.9017 47.9087L33.4983 47.9728ZM31.6681 53.2775C32.6711 51.6642 33.2963 49.8524 33.4983 47.9728L32.9017 47.9087C32.7094 49.6981 32.1142 51.4236 31.1586 52.9607L31.6681 53.2775ZM31.4265 53.4756C31.4861 53.4384 31.5435 53.3983 31.5985 53.3552L31.2282 52.883C31.1904 52.9127 31.1506 52.9406 31.1089 52.9666L31.4265 53.4756ZM29.2709 53.8073C30.0732 53.8741 30.7982 53.7853 31.3997 53.4905L31.1357 52.9517C30.6624 53.1837 30.0553 53.2705 29.3206 53.2094L29.2709 53.8073ZM24.2814 52.0007C26.1815 52.9915 27.9007 53.6411 29.2596 53.8062L29.3319 53.2106C28.0798 53.0584 26.4365 52.4478 24.5588 51.4687L24.2814 52.0007ZM15.0067 45.7613C17.8802 48.1345 20.9856 50.2238 24.2777 51.9988L24.5624 51.4706C21.3047 49.7142 18.232 47.6468 15.3888 45.2987L15.0067 45.7613ZM6.3126 37.523C8.96506 40.5102 11.8753 43.2677 15.0109 45.7647L15.3846 45.2954C12.2759 42.8197 9.39076 40.086 6.76126 37.1246L6.3126 37.523ZM6.28242 37.4887L6.3117 37.522L6.76216 37.1256L6.73288 37.0923L6.28242 37.4887ZM3.55485 34.0134C4.41605 35.2063 5.32496 36.3644 6.27925 37.485L6.73605 37.096C5.79213 35.9876 4.89312 34.8421 4.04132 33.6622L3.55485 34.0134ZM1.26491 29.7452C1.67203 30.9914 2.47499 32.4473 3.5511 34.0081L4.04507 33.6675C2.98336 32.1276 2.21662 30.7263 1.83524 29.5589L1.26491 29.7452ZM1.11359 27.167C0.893576 27.9163 0.972277 28.7933 1.26332 29.7402L1.83684 29.5639C1.56423 28.677 1.51506 27.9294 1.68929 27.3361L1.11359 27.167ZM1.33512 26.7182C1.24716 26.8525 1.1757 26.9962 1.11987 27.148L1.68301 27.3551C1.72383 27.2441 1.77514 27.1414 1.83705 27.0469L1.33512 26.7182ZM6.58876 24.2789C4.7038 24.6803 2.93313 25.4878 1.40514 26.6433L1.76703 27.1218C3.22446 26.0197 4.91415 25.2489 6.71374 24.8657L6.58876 24.2789ZM8.82487 23.9986C8.07484 24.0283 7.32664 24.1217 6.58876 24.2789L6.71374 24.8657C7.41817 24.7157 8.13249 24.6265 8.84861 24.5982L8.82487 23.9986ZM12.2526 24.3216C11.1267 24.0652 9.97438 23.9575 8.826 23.9986L8.84748 24.5982C9.94407 24.559 11.0444 24.6618 12.1194 24.9067L12.2526 24.3216ZM13.3916 25.1886C14.7099 25.5247 15.9972 25.9564 17.2432 26.4787L17.4751 25.9254C16.202 25.3917 14.8868 24.9506 13.5398 24.6072L13.3916 25.1886ZM13.2761 25.1979H13.4657V24.5979H13.2761V25.1979ZM14.3194 29.1694C13.7583 28.1843 13.4052 27.308 13.2733 26.5966C13.14 25.8778 13.2416 25.3878 13.5002 25.0973L13.052 24.6984C12.6129 25.1918 12.5359 25.9111 12.6833 26.706C12.8321 27.5082 13.2192 28.4501 13.7981 29.4664L14.3194 29.1694ZM20.2256 36.0614C17.8976 34.0797 15.9028 31.751 14.3145 29.1611L13.803 29.4748C15.4246 32.1189 17.4608 34.4958 19.8367 36.5183L20.2256 36.0614ZM27.8606 41.0194C25.0633 39.7801 22.4877 38.1081 20.2324 36.0674L19.8299 36.5123C22.1327 38.5961 24.7622 40.303 27.6176 41.5679L27.8606 41.0194ZM32.0403 41.4133C31.7766 41.6847 31.2899 41.8281 30.5478 41.7679C29.8158 41.7086 28.8977 41.455 27.8553 41.0171L27.6229 41.5702C28.6975 42.0217 29.6808 42.2997 30.4993 42.366C31.3077 42.4315 32.0207 42.2945 32.4706 41.8314L32.0403 41.4133ZM30.2077 37.8506C30.904 39.0865 31.4952 40.3815 31.9729 41.723L32.5381 41.5217C32.0489 40.1478 31.4434 38.8216 30.7304 37.5561L30.2077 37.8506ZM30.4186 37.4076C29.9504 37.4876 29.4712 37.4938 28.9993 37.425L28.9128 38.0187C29.447 38.0966 29.9895 38.0896 30.5196 37.9991L30.4186 37.4076ZM28.9993 37.425C28.3893 37.3361 27.8052 37.1241 27.2838 36.8025L26.9688 37.3133C27.5603 37.678 28.2223 37.9181 28.9128 38.0187L28.9993 37.425ZM27.2606 36.7896C23.7597 35.0373 20.7854 32.4221 18.6297 29.2019L18.1311 29.5356C20.3452 32.8431 23.3992 35.5278 26.992 37.3262L27.2606 36.7896ZM18.613 29.1793C18.2293 28.7082 17.9507 28.1641 17.7947 27.582L17.2151 27.7373C17.3932 28.4018 17.711 29.022 18.1478 29.5582L18.613 29.1793ZM17.7947 27.582C17.6755 27.1373 17.6299 26.6778 17.6586 26.2208L17.0597 26.1832C17.027 26.7051 17.0791 27.2297 17.2151 27.7373L17.7947 27.582ZM17.8545 26.5872C17.9722 27.504 18.3211 28.3775 18.8698 29.1287L19.3543 28.7748C18.8649 28.1048 18.5544 27.3266 18.4496 26.5109L17.8545 26.5872ZM18.863 29.1191C20.9923 32.2883 23.9218 34.8627 27.366 36.5921L27.6352 36.0559C24.2825 34.3724 21.4322 31.8671 19.3611 28.7845L18.863 29.1191ZM27.3571 36.5875C28.1843 37.0379 29.1099 37.2843 30.0544 37.3065L30.0685 36.7067C29.219 36.6867 28.3869 36.465 27.6441 36.0605L27.3571 36.5875ZM24.6908 31.1278C26.6989 32.8893 28.42 34.9255 29.8063 37.1645L30.3165 36.8487C28.8988 34.5591 27.1391 32.4773 25.0865 30.6767L24.6908 31.1278ZM24.7944 31.2023H24.8887V30.6023H24.7944V31.2023ZM21.4084 28.6617C22.5303 29.3959 23.5955 30.2186 24.5927 31.1243L24.9961 30.6802C23.9753 29.7531 22.8851 28.911 21.7369 28.1596L21.4084 28.6617ZM18.0275 26.822C19.1978 27.356 20.3285 27.9712 21.411 28.6634L21.7342 28.1579C20.628 27.4505 19.4724 26.8218 18.2766 26.2761L18.0275 26.822Z" fill="white" mask="url(#path-1-outside-1_1403_4743)"/>
</svg>
