<svg width="73" height="44" viewBox="0 0 73 44" fill="none" xmlns="http://www.w3.org/2000/svg">
<path d="M36.5623 33.4519C30.055 33.4452 23.626 32.0327 17.7153 29.3111C11.473 26.4137 5.83588 22.3604 1.10181 17.3654L0.625 16.8635L1.10181 16.3616C5.83588 11.3667 11.473 7.31338 17.7153 4.41597C23.6159 1.69125 30.0378 0.280151 36.5372 0.280151C43.0365 0.280151 49.4584 1.69125 55.359 4.41597C61.609 7.31276 67.2545 11.3659 71.9976 16.3616L72.4744 16.8635L71.9976 17.3654C69.619 19.8498 67.0239 22.1174 64.243 24.1413C61.567 26.0851 58.7095 27.766 55.7104 29.1605L55.1332 27.8555C58.0425 26.5002 60.8157 24.8699 63.4148 22.9869C65.9406 21.1469 68.3078 19.0986 70.4918 16.8635C65.9862 12.2069 60.6605 8.421 54.7818 5.69587C49.0586 3.06752 42.8351 1.70678 36.5372 1.70678C30.2393 1.70678 24.0157 3.06752 18.2925 5.69587C12.4112 8.42922 7.07862 12.2139 2.55737 16.8635C7.07044 21.5227 12.4049 25.3087 18.2925 28.0312C24.0181 30.6524 30.24 32.0132 36.5372 32.0214L36.5623 33.4519Z" fill="white"/>
<path d="M60.8806 38.4959L49.4369 26.9267C49.0108 27.4746 48.5497 27.9943 48.0566 28.4827C47.5547 28.9595 47.0277 29.4112 46.5007 29.8379L57.9444 41.4321L60.8806 38.4959ZM49.8133 25.5967L62.5871 38.521L57.9193 43.1136L44.6436 29.6873L45.2208 29.2857C45.9322 28.7877 46.5959 28.2248 47.2033 27.6043C47.8246 26.9994 48.3953 26.3448 48.9099 25.6469L49.3114 25.0696L49.8133 25.5967Z" fill="white"/>
<path d="M52.2213 29.7372L49.4357 26.9264C49.0096 27.4743 48.5485 27.994 48.0554 28.4824C47.5535 28.9592 47.0265 29.4109 46.4995 29.8376L49.26 32.6483L52.2213 29.7372ZM49.7117 25.5963L53.8274 29.7372L49.1596 34.3548L44.542 29.687L45.1192 29.2854C45.8306 28.7874 46.4943 28.2245 47.1018 27.604C47.723 26.9991 48.2937 26.3445 48.8083 25.6465L49.2098 25.0693L49.7117 25.5963Z" fill="white"/>
<path d="M35.6337 25.9731C28.9582 26.1237 27.7787 15.9347 33.7516 13.1742C33.6146 12.92 33.5455 12.6347 33.5508 12.346C31.7517 13.5281 30.4151 15.2941 29.766 17.3466C29.1168 19.399 29.195 21.6125 29.9872 23.6141C28.7102 21.7878 28.164 19.5493 28.4563 17.3401C28.632 12.4966 31.518 7.80369 36.763 7.80369C37.797 7.83201 38.8145 8.06888 39.7546 8.50013C40.6947 8.93137 41.538 9.54809 42.2339 10.3133H42.4347C42.5085 9.84777 42.609 9.3869 42.7359 8.93299C41.1928 7.6992 39.311 6.96399 37.3403 6.82495H36.8634C35.7815 6.82175 34.7031 6.94811 33.6512 7.20137C31.2137 7.69632 29.0467 9.07856 27.5703 11.0802C26.0938 13.0819 25.4131 15.5603 25.6599 18.0353C25.9068 20.5103 27.0637 22.8055 28.9065 24.476C30.7492 26.1466 33.1465 27.0736 35.6337 27.0773H36.1607C37.0018 27.0917 37.8423 27.0245 38.6703 26.8765C40.0934 26.591 41.4377 26.0002 42.6104 25.1449V23.6643C40.9458 24.9725 38.9444 25.7818 36.8383 25.9982C36.3364 25.9982 35.6588 25.9982 35.6337 25.9982" fill="white"/>
<path d="M47.3031 6.12278C44.8175 3.63144 41.5448 2.07926 38.0429 1.73079C34.5409 1.38233 31.0265 2.25916 28.0987 4.21183C25.1709 6.1645 23.0109 9.07212 21.9869 12.4391C20.963 15.8061 21.1384 19.424 22.4833 22.6761C23.8282 25.9282 26.2594 28.6132 29.3624 30.2735C32.4654 31.9337 36.0481 32.4664 39.4999 31.7808C42.9517 31.0952 46.0589 29.2336 48.2918 26.5135C50.5247 23.7934 51.7452 20.3831 51.7451 16.8638C51.745 12.8366 50.1476 8.97375 47.3031 6.12278ZM36.5621 0.476212C40.3596 0.47101 44.0413 1.78278 46.9799 4.18797C49.9186 6.59317 51.9323 9.94297 52.6778 13.6665C53.4234 17.39 52.8547 21.2569 51.0687 24.6081C49.2827 27.9594 46.3899 30.5876 42.8832 32.0449C39.3765 33.5022 35.473 33.6984 31.8378 32.6002C28.2027 31.5019 25.0608 29.1771 22.9477 26.0219C20.8346 22.8667 19.8809 19.0764 20.2493 15.2968C20.6177 11.5173 22.2852 7.98243 24.9678 5.29463C28.0412 2.21528 32.2115 0.482171 36.5621 0.476212Z" fill="white"/>
</svg>
