<svg width="484" height="208" viewBox="0 0 484 208" fill="none" xmlns="http://www.w3.org/2000/svg">
<path opacity="0.2" fill-rule="evenodd" clip-rule="evenodd" d="M241.992 4.63756e-07C262.555 -0.00194167 282.656 6.09615 299.755 17.5231C316.853 28.95 330.179 45.1925 338.049 64.1964C345.919 83.2003 347.979 104.112 343.968 124.287C339.957 144.462 330.055 162.994 315.515 177.539C300.975 192.084 282.449 201.99 262.282 206.002C242.114 210.015 221.21 207.954 202.213 200.082C183.215 192.209 166.979 178.877 155.556 161.773C144.133 144.669 138.037 124.56 138.039 103.99C138.039 76.4103 148.991 49.96 168.486 30.458C187.981 10.9561 214.422 4.63756e-07 241.992 4.63756e-07Z" fill="#6399AB"/>
<path d="M238.353 160.659C215.452 160.659 197.125 156.457 176.698 147.187C155.554 137.583 136.079 123.443 119.018 105.699L117.379 103.99L119.018 102.291C136.079 84.5473 155.554 70.407 176.698 60.8033C197.176 51.3668 219.454 46.4805 242 46.4805C264.546 46.4805 286.824 51.3668 307.302 60.8033C328.446 70.407 347.921 84.5866 364.982 102.262L366.631 103.961L364.982 105.669C356.727 114.288 347.723 122.155 338.076 129.178C328.805 135.925 318.903 141.759 308.509 146.598L306.448 142.13C316.552 137.419 326.177 131.743 335.19 125.181C343.96 118.801 352.184 111.703 359.779 103.961C343.553 87.4735 325.167 74.2956 305.28 65.2615C285.435 56.12 263.847 51.3864 242 51.3864C220.153 51.3864 198.564 56.12 178.72 65.2615C158.833 74.2956 140.437 87.4735 124.221 103.961C140.447 120.458 158.833 133.636 178.72 142.66C198.714 151.795 220.427 156.553 242.407 156.614L238.353 160.659Z" fill="#6399AB"/>
<path fill-rule="evenodd" clip-rule="evenodd" d="M242.002 47.1332C219.55 47.1332 197.365 51.9991 176.973 61.3961L176.97 61.3976C155.908 70.9639 136.499 85.0533 119.49 102.744L118.287 103.991L119.49 105.246C136.499 122.936 155.908 137.026 176.969 146.592C197.235 155.788 215.407 159.973 238.085 160.006L240.843 157.254C219.304 156.977 198.054 152.211 178.451 143.254C158.484 134.193 140.034 120.967 123.757 104.418L123.307 103.96L123.757 103.502C140.024 86.9641 158.484 73.7377 178.45 64.6675C198.38 55.4869 220.061 50.7331 242.002 50.7331C263.943 50.7331 285.624 55.4869 305.553 64.6675C325.52 73.7378 343.97 86.9641 360.246 103.502L360.696 103.96L360.247 104.418C352.627 112.186 344.375 119.308 335.575 125.709C326.704 132.168 317.242 137.772 307.314 142.445L308.829 145.728C318.968 140.962 328.633 135.243 337.693 128.649C347.309 121.649 356.284 113.807 364.512 105.217L364.514 105.215L365.724 103.962L364.514 102.715C347.504 85.0924 328.095 70.9637 307.034 61.3976L307.031 61.3961C286.638 51.9991 264.453 47.1332 242.002 47.1332ZM176.428 60.2092C196.991 50.7337 219.362 45.8271 242.002 45.8271C264.641 45.8271 287.012 50.7337 307.575 60.2093C328.801 69.8505 348.342 84.0806 365.453 101.808L367.541 103.959L365.455 106.121C365.454 106.121 365.454 106.122 365.454 106.122C357.172 114.768 348.14 122.66 338.461 129.705C329.157 136.477 319.219 142.333 308.786 147.189L308.193 147.466L305.584 141.812L306.174 141.538C316.24 136.845 325.829 131.19 334.807 124.653C343.375 118.42 351.42 111.5 358.864 103.961C342.799 87.7391 324.635 74.77 305.012 65.8557L305.008 65.8543C285.25 56.7522 263.755 52.0391 242.002 52.0391C220.249 52.0391 198.754 56.7522 178.995 65.8543L178.992 65.8557C159.368 74.7699 141.195 87.7389 125.14 103.96C141.204 120.192 159.368 133.161 178.991 142.065L178.993 142.066C198.902 151.162 220.524 155.9 242.411 155.96L243.983 155.965L238.625 161.312H238.355C215.357 161.312 196.938 157.088 176.43 147.781C155.204 138.14 135.662 123.949 118.549 106.151L116.475 103.989L118.549 101.838C135.661 84.041 155.202 69.8502 176.428 60.2092Z" fill="#6399AB"/>
<path d="M326.364 179.053L286.668 138.881C283.677 142.658 280.239 146.057 276.429 149.005L316.116 189.177L326.364 179.053ZM287.944 134.246L332.254 179.092L316.087 195.079L270.059 148.484L272.022 147.07C274.463 145.333 276.761 143.402 278.893 141.296C281.034 139.185 283.003 136.906 284.783 134.482L286.226 132.518L287.944 134.246Z" fill="#6399AB"/>
<path fill-rule="evenodd" clip-rule="evenodd" d="M286.152 131.516L288.409 133.786L333.178 179.097L316.082 196.002L269.059 148.4L271.644 146.538C274.057 144.821 276.328 142.912 278.435 140.831C280.551 138.744 282.498 136.491 284.257 134.095L286.152 131.516ZM286.301 133.518L285.31 134.868C285.31 134.868 285.31 134.868 285.31 134.868C283.51 137.32 281.518 139.625 279.352 141.761C277.196 143.89 274.872 145.844 272.402 147.601C272.402 147.601 272.401 147.602 272.401 147.602L271.06 148.568L316.093 194.155L331.331 179.086L287.481 134.706L287.48 134.705L286.301 133.518ZM286.614 137.897L327.288 179.058L316.111 190.1L275.447 148.939L276.031 148.488C279.799 145.573 283.199 142.211 286.156 138.475L286.614 137.897ZM286.719 139.861C283.96 143.259 280.838 146.346 277.409 149.067L316.122 188.253L325.441 179.047L286.719 139.861Z" fill="#6399AB"/>
<path d="M296.346 148.641L286.707 138.881C283.716 142.658 280.278 146.057 276.468 149.005L286.108 158.766L296.346 148.641ZM287.983 134.246L302.236 148.671L286.069 164.657L270.098 148.484L272.061 147.07C276.971 143.596 281.281 139.344 284.822 134.482L286.265 132.518L287.983 134.246Z" fill="#6399AB"/>
<path fill-rule="evenodd" clip-rule="evenodd" d="M286.191 131.516L288.447 133.786L303.159 148.676L286.064 165.581L269.098 148.4L271.684 146.537C276.536 143.104 280.796 138.902 284.295 134.097L284.296 134.094L286.191 131.516ZM286.34 133.518L285.35 134.866C285.35 134.866 285.349 134.866 285.349 134.867C281.767 139.786 277.407 144.087 272.441 147.602C272.44 147.602 272.439 147.603 272.438 147.603L271.099 148.568L286.075 163.733L301.313 148.665L287.52 134.706L287.519 134.705L286.34 133.518ZM286.653 137.897L297.27 148.647L286.103 159.689L275.487 148.939L276.07 148.488C279.838 145.573 283.238 142.211 286.195 138.475L286.653 137.897ZM286.758 139.861C283.999 143.259 280.877 146.346 277.448 149.067L286.114 157.842L295.424 148.636L286.758 139.861Z" fill="#6399AB"/>
<path d="M238.602 135.649C215.485 136.14 211.353 100.505 232.084 91.2842C231.609 90.3771 231.375 89.3623 231.407 88.3383C218.519 94.7113 213.561 114.616 219.019 127.421C215.318 122.913 213.306 116.079 213.699 105.65C214.376 88.8588 224.31 72.6072 242.529 72.6072C246.096 72.6847 249.612 73.4772 252.868 74.9379C256.124 76.3985 259.053 78.4977 261.484 81.1111L262.161 81.0227C262.446 79.398 262.813 77.7888 263.261 76.2012C257.862 71.9784 251.343 69.4345 244.512 68.8856C243.982 68.8856 243.452 68.8856 242.922 68.8856C239.169 68.8714 235.428 69.3099 231.78 70.1916C223.883 72.4922 217.039 77.4846 212.436 84.3032C207.832 91.1219 205.758 99.337 206.574 107.525C207.39 115.712 211.044 123.356 216.903 129.132C222.762 134.907 230.456 138.449 238.651 139.145H240.477C243.261 139.154 246.041 138.944 248.792 138.517C253.732 137.497 258.393 135.42 262.456 132.429L262.838 127.313C257.064 131.862 250.116 134.675 242.804 135.424C241.086 135.61 238.74 135.551 238.622 135.61" fill="#6399AB"/>
<path d="M238.602 135.649C215.485 136.14 211.353 100.505 232.084 91.2842C231.609 90.3771 231.375 89.3623 231.407 88.3383C218.519 94.7113 213.561 114.616 219.019 127.421C215.318 122.913 213.306 116.079 213.699 105.65C214.376 88.8588 224.31 72.6072 242.529 72.6072C246.096 72.6847 249.612 73.4772 252.868 74.9379C256.124 76.3985 259.053 78.4977 261.484 81.1111L262.161 81.0227C262.446 79.398 262.813 77.7888 263.261 76.2012C257.862 71.9784 251.343 69.4345 244.512 68.8856C243.982 68.8856 243.452 68.8856 242.922 68.8856C239.169 68.8714 235.428 69.3099 231.78 70.1916C223.883 72.4922 217.039 77.4846 212.436 84.3032C207.832 91.1219 205.758 99.337 206.574 107.525C207.39 115.712 211.044 123.356 216.903 129.132C222.762 134.907 230.456 138.449 238.651 139.145H240.477C243.261 139.154 246.041 138.944 248.792 138.517C253.732 137.497 258.393 135.42 262.456 132.429L262.838 127.313C257.064 131.862 250.116 134.675 242.804 135.424C241.086 135.61 238.74 135.551 238.622 135.61" stroke="#6399AB" stroke-width="0.89" stroke-miterlimit="10"/>
<path d="M279.223 66.7644C270.614 58.1494 259.284 52.7873 247.165 51.5919C235.047 50.3965 222.889 53.4417 212.763 60.2086C202.637 66.9755 195.17 77.0454 191.634 88.7024C188.098 100.359 188.712 112.882 193.371 124.137C198.031 135.392 206.447 144.682 217.187 150.425C227.926 156.168 240.324 158.009 252.267 155.632C264.211 153.256 274.961 146.811 282.687 137.394C290.412 127.977 294.635 116.173 294.635 103.991C294.643 97.0761 293.286 90.2279 290.641 83.8395C287.997 77.4511 284.116 71.6483 279.223 66.7644ZM242 47.125C255.148 47.1094 267.894 51.6546 278.066 59.9861C288.239 68.3176 295.209 79.9199 297.789 92.816C300.369 105.712 298.399 119.104 292.215 130.71C286.03 142.316 276.015 151.418 263.874 156.465C251.733 161.512 238.219 162.191 225.633 158.388C213.048 154.584 202.171 146.533 194.854 135.605C187.538 124.678 184.236 111.551 185.51 98.4612C186.784 85.3713 192.556 73.1283 201.843 63.8185C207.11 58.5336 213.369 54.3418 220.261 51.4838C227.152 48.6258 234.54 47.1579 242 47.1643V47.125Z" fill="#6399AB"/>
<path fill-rule="evenodd" clip-rule="evenodd" d="M243.747 48.8984V48.9136L241.998 48.9121C234.768 48.9058 227.608 50.3284 220.929 53.0983C214.25 55.8681 208.184 59.9306 203.079 65.0524L203.079 65.0529C194.078 74.0765 188.483 85.943 187.248 98.6305C186.013 111.318 189.214 124.041 196.305 134.633C203.397 145.224 213.94 153.028 226.138 156.714C238.336 160.401 251.435 159.742 263.203 154.851C274.97 149.959 284.678 141.137 290.672 129.888C296.666 118.639 298.575 105.659 296.075 93.1589C293.574 80.6593 286.818 69.4137 276.959 61.3384C267.549 53.6323 255.869 49.2681 243.747 48.8984ZM240.252 45.441V45.3791L241.998 45.377C255.549 45.3609 268.687 50.0458 279.172 58.6335C289.658 67.2211 296.842 79.1802 299.501 92.4729C302.161 105.766 300.13 119.569 293.756 131.532C287.381 143.495 277.058 152.877 264.544 158.079C252.03 163.281 238.1 163.981 225.127 160.061C212.155 156.14 200.943 147.841 193.402 136.578C185.86 125.315 182.457 111.784 183.77 98.2917C185.083 84.7995 191.033 72.1802 200.604 62.5842M240.252 45.441C233.158 45.6475 226.156 47.1463 219.591 49.869C212.487 52.8151 206.035 57.1361 200.605 62.5837M211.791 58.755C222.253 51.7635 234.815 48.6172 247.336 49.8523C259.856 51.0873 271.561 56.6268 280.457 65.5269C285.513 70.5734 289.522 76.5694 292.255 83.1706C294.988 89.7717 296.39 96.8479 296.381 103.993C296.381 116.578 292.018 128.774 284.037 138.503C276.055 148.232 264.947 154.891 252.607 157.347C240.267 159.802 227.458 157.9 216.362 151.967C205.266 146.033 196.57 136.434 191.756 124.806C186.942 113.177 186.308 100.239 189.961 88.1947C193.614 76.1507 201.329 65.7465 211.791 58.755ZM246.993 53.3312C235.277 52.1755 223.522 55.1196 213.732 61.6619C203.943 68.2041 196.724 77.9397 193.305 89.2097C189.887 100.48 190.48 112.587 194.985 123.468C199.49 134.349 207.627 143.331 218.01 148.884C228.392 154.436 240.379 156.215 251.926 153.918C263.473 151.621 273.866 145.389 281.335 136.285C288.804 127.181 292.887 115.768 292.887 103.991V103.988C292.895 97.304 291.583 90.6839 289.026 84.5081C286.47 78.3324 282.719 72.7228 277.988 68.0015L277.987 68C269.663 59.671 258.71 54.487 246.993 53.3312Z" fill="#6399AB"/>
<path d="M111.678 125.909H86.8141V20.6426H78.9612L0 127.048V133.362H77.8617V181.351H86.8141V133.362H111.678V125.909ZM78.6176 36.0103C78.117 43.2278 77.8617 50.8086 77.8617 58.5366V125.909H11.6812L78.6569 34.9989L78.6176 36.0103Z" fill="#6399AB"/>
<path d="M484.001 125.909H459.136V20.6426H451.283L372.332 127.048V133.362H450.194V181.351H459.136V133.362H484.001V125.909ZM450.94 36.0103C450.439 43.2278 450.194 50.8086 450.194 58.5366V125.909H384.043L451.009 34.9989L450.94 36.0103Z" fill="#6399AB"/>
</svg>
